# Blender 5.2.1 LTS
# www.blender.org
mtllib aug eris oled.mtl
o Cube
v 0.494200 0.259300 0.093996
v 0.480073 0.277373 0.160726
v 0.482683 0.248822 0.096378
v 0.497054 0.253664 0.117887
v 0.492285 0.204386 0.077022
v 0.492285 0.235239 0.077022
v 0.488392 0.204386 0.076916
v 0.488392 0.235239 0.076916
v 0.494200 0.259300 -0.094886
v 0.480073 0.277373 -0.161616
v 0.482683 0.248822 -0.097268
v 0.497054 0.253664 -0.118777
v 0.492285 0.204386 -0.077912
v 0.492285 0.235239 -0.077912
v 0.488392 0.204386 -0.077806
v 0.488392 0.235239 -0.077806
v 0.494200 0.259300 -0.093996
v 0.480073 0.277373 -0.160726
v 0.482683 0.248822 -0.096378
v 0.497054 0.253664 -0.117887
v 0.492285 0.204386 -0.077022
v 0.492285 0.235239 -0.077022
v 0.488392 0.204386 -0.076916
v 0.488392 0.235239 -0.076916
v 0.494200 0.259300 0.094886
v 0.480073 0.277373 0.161616
v 0.482683 0.248822 0.097268
v 0.497054 0.253664 0.118777
v 0.492285 0.204386 0.077912
v 0.492285 0.235239 0.077912
v 0.488392 0.204386 0.077806
v 0.488392 0.235239 0.077806
vn 0.9715 0.2288 -0.0621
vn -0.5791 0.5790 -0.5740
vn 0.0272 -0.0000 -0.9996
vn -0.8064 0.3824 -0.4511
vn 0.3429 -0.3119 0.8861
vn -0.2117 -0.8815 0.4221
vn 0.9715 0.2288 0.0621
vn -0.5791 0.5790 0.5740
vn 0.0272 -0.0000 0.9996
vn -0.8064 0.3824 0.4511
vn 0.3429 -0.3119 -0.8861
vn -0.2117 -0.8815 -0.4221
vt 0.375000 0.000000
vt 0.625000 0.000000
vt 0.625000 0.250000
vt 0.375000 0.250000
vt 0.625000 0.500000
vt 0.375000 0.500000
vt 0.625000 0.750000
vt 0.375000 0.750000
vt 0.625000 1.000000
vt 0.375000 1.000000
vt 0.125000 0.500000
vt 0.125000 0.750000
vt 0.875000 0.500000
vt 0.875000 0.750000
s 1
usemtl 材質.002
f 1/1/1 2/2/1 4/3/1 3/4/1
f 3/4/2 4/3/2 8/5/2 7/6/2
f 7/6/3 8/5/3 6/7/3 5/8/3
f 5/8/4 6/7/4 2/9/4 1/10/4
f 3/11/5 7/6/5 5/8/5 1/12/5
f 8/5/6 4/13/6 2/14/6 6/7/6
f 9/1/7 11/4/7 12/3/7 10/2/7
f 11/4/8 15/6/8 16/5/8 12/3/8
f 15/6/9 13/8/9 14/7/9 16/5/9
f 13/8/10 9/10/10 10/9/10 14/7/10
f 11/11/11 9/12/11 13/8/11 15/6/11
f 16/5/12 14/7/12 10/14/12 12/13/12
f 17/1/7 19/4/7 20/3/7 18/2/7
f 19/4/8 23/6/8 24/5/8 20/3/8
f 23/6/9 21/8/9 22/7/9 24/5/9
f 21/8/10 17/10/10 18/9/10 22/7/10
f 19/11/11 17/12/11 21/8/11 23/6/11
f 24/5/12 22/7/12 18/14/12 20/13/12
f 25/1/1 26/2/1 28/3/1 27/4/1
f 27/4/2 28/3/2 32/5/2 31/6/2
f 31/6/3 32/5/3 30/7/3 29/8/3
f 29/8/4 30/7/4 26/9/4 25/10/4
f 27/11/5 31/6/5 29/8/5 25/12/5
f 32/5/6 28/13/6 26/14/6 30/7/6
o 立方体.002
v 0.146937 0.218623 -0.065000
v 0.146937 0.238623 -0.065000
v 0.351937 0.219621 -0.058514
v 0.351937 0.237625 -0.058514
v 0.146937 0.218623 0.065000
v 0.146937 0.238623 0.065000
v 0.351937 0.219621 0.058514
v 0.351937 0.237625 0.058514
l 33 34
l 35 36
l 39 40
l 37 38
o Cube.001
v 0.262613 0.293583 0.076409
v 0.260184 0.251367 0.062576
v 0.250412 0.293583 0.080289
v 0.249517 0.293583 0.068458
v 0.252738 0.293583 0.073500
v 0.253020 0.293583 0.089912
v 0.255611 0.293583 0.082157
v 0.255158 0.293583 0.080266
v 0.259999 0.293583 -0.075768
v 0.258047 0.251367 -0.061859
v 0.247672 0.293583 -0.079226
v 0.247184 0.293583 -0.067371
v 0.250230 0.293583 -0.072521
v 0.249949 0.293583 -0.088933
v 0.252805 0.293583 -0.081272
v 0.252416 0.293583 -0.079367
v 0.260184 0.335799 0.062576
v 0.258047 0.335799 -0.061859
vn -0.4681 -0.4318 0.7710
vn -0.0000 1.0000 -0.0000
vn -0.8152 0.0061 -0.5791
vn 0.9705 0.1819 -0.1585
vn -0.4943 -0.4318 -0.7544
vn -0.7948 0.0061 0.6068
vn 0.9753 0.1820 0.1251
vn -0.4681 0.4318 0.7710
vn -0.8152 -0.0061 -0.5791
vn 0.9705 -0.1819 -0.1585
vn -0.4943 0.4318 -0.7544
vn -0.7948 -0.0061 0.6068
vn 0.9753 -0.1820 0.1251
vt 0.375000 0.000000
vt 0.375000 0.250000
vt 0.625000 0.250000
vt 0.625000 0.000000
vt 0.375000 0.500000
vt 0.625000 0.500000
vt 0.375000 0.750000
vt 0.625000 0.750000
vt 0.375000 1.000000
vt 0.625000 1.000000
vt 0.125000 0.500000
vt 0.125000 0.750000
vt 0.875000 0.750000
vt 0.875000 0.500000
s 1
f 41/15/13 43/16/13 44/17/13 42/18/13
f 43/16/14 47/19/14 48/20/14 44/17/14
f 47/19/14 45/21/14 46/22/14 48/20/14
f 45/21/15 41/23/15 42/24/15 46/22/15
f 43/25/14 41/26/14 45/21/14 47/19/14
f 48/20/16 46/22/16 42/27/16 44/28/16
f 49/15/17 50/18/17 52/17/17 51/16/17
f 51/16/14 52/17/14 56/20/14 55/19/14
f 55/19/14 56/20/14 54/22/14 53/21/14
f 53/21/18 54/22/18 50/24/18 49/23/18
f 51/25/14 55/19/14 53/21/14 49/26/14
f 56/20/19 52/28/19 50/27/19 54/22/19
f 41/15/20 57/18/20 44/17/20 43/16/20
f 45/21/21 46/22/21 57/24/21 41/23/21
f 48/20/22 44/28/22 57/27/22 46/22/22
f 49/15/23 51/16/23 52/17/23 58/18/23
f 53/21/24 49/23/24 58/24/24 54/22/24
f 56/20/25 54/22/25 58/27/25 52/28/25
o Cube.002
v 0.392334 0.259300 0.093996
v 0.378207 0.277373 0.160726
v 0.380817 0.248822 0.096378
v 0.395188 0.253664 0.117887
v 0.390419 0.204386 0.077022
v 0.390419 0.235239 0.077022
v 0.386526 0.204386 0.076916
v 0.386526 0.235239 0.076916
v 0.392334 0.259300 -0.094886
v 0.378207 0.277373 -0.161616
v 0.380817 0.248822 -0.097268
v 0.395188 0.253664 -0.118777
v 0.390419 0.204386 -0.077912
v 0.390419 0.235239 -0.077912
v 0.386526 0.204386 -0.077806
v 0.386526 0.235239 -0.077806
v 0.392334 0.259300 -0.093996
v 0.378207 0.277373 -0.160726
v 0.380817 0.248822 -0.096378
v 0.395188 0.253664 -0.117887
v 0.390419 0.204386 -0.077022
v 0.390419 0.235239 -0.077022
v 0.386526 0.204386 -0.076916
v 0.386526 0.235239 -0.076916
v 0.392334 0.259300 0.094886
v 0.378207 0.277373 0.161616
v 0.380817 0.248822 0.097268
v 0.395188 0.253664 0.118777
v 0.390419 0.204386 0.077912
v 0.390419 0.235239 0.077912
v 0.386526 0.204386 0.077806
v 0.386526 0.235239 0.077806
vn 0.9715 0.2288 -0.0621
vn -0.5791 0.5790 -0.5740
vn 0.0272 -0.0000 -0.9996
vn -0.8064 0.3824 -0.4511
vn 0.3429 -0.3119 0.8861
vn -0.2117 -0.8815 0.4221
vn 0.9715 0.2288 0.0621
vn -0.5791 0.5790 0.5740
vn 0.0272 -0.0000 0.9996
vn -0.8064 0.3824 0.4511
vn 0.3429 -0.3119 -0.8861
vn -0.2117 -0.8815 -0.4221
vt 0.375000 0.000000
vt 0.625000 0.000000
vt 0.625000 0.250000
vt 0.375000 0.250000
vt 0.625000 0.500000
vt 0.375000 0.500000
vt 0.625000 0.750000
vt 0.375000 0.750000
vt 0.625000 1.000000
vt 0.375000 1.000000
vt 0.125000 0.500000
vt 0.125000 0.750000
vt 0.875000 0.500000
vt 0.875000 0.750000
s 1
usemtl 材質.003
f 59/29/26 60/30/26 62/31/26 61/32/26
f 61/32/27 62/31/27 66/33/27 65/34/27
f 65/34/28 66/33/28 64/35/28 63/36/28
f 63/36/29 64/35/29 60/37/29 59/38/29
f 61/39/30 65/34/30 63/36/30 59/40/30
f 66/33/31 62/41/31 60/42/31 64/35/31
f 67/29/32 69/32/32 70/31/32 68/30/32
f 69/32/33 73/34/33 74/33/33 70/31/33
f 73/34/34 71/36/34 72/35/34 74/33/34
f 71/36/35 67/38/35 68/37/35 72/35/35
f 69/39/36 67/40/36 71/36/36 73/34/36
f 74/33/37 72/35/37 68/42/37 70/41/37
f 75/29/32 77/32/32 78/31/32 76/30/32
f 77/32/33 81/34/33 82/33/33 78/31/33
f 81/34/34 79/36/34 80/35/34 82/33/34
f 79/36/35 75/38/35 76/37/35 80/35/35
f 77/39/36 75/40/36 79/36/36 81/34/36
f 82/33/37 80/35/37 76/42/37 78/41/37
f 83/29/26 84/30/26 86/31/26 85/32/26
f 85/32/27 86/31/27 90/33/27 89/34/27
f 89/34/28 90/33/28 88/35/28 87/36/28
f 87/36/29 88/35/29 84/37/29 83/38/29
f 85/39/30 89/34/30 87/36/30 83/40/30
f 90/33/31 86/41/31 84/42/31 88/35/31
o Cube.003
v 0.440680 0.259300 0.093996
v 0.426553 0.277373 0.160726
v 0.429163 0.248822 0.096378
v 0.443534 0.253664 0.117887
v 0.438765 0.204386 0.077022
v 0.438765 0.235239 0.077022
v 0.434872 0.204386 0.076916
v 0.434872 0.235239 0.076916
v 0.440680 0.259300 -0.094886
v 0.426553 0.277373 -0.161616
v 0.429163 0.248822 -0.097268
v 0.443534 0.253664 -0.118777
v 0.438765 0.204386 -0.077912
v 0.438765 0.235239 -0.077912
v 0.434872 0.204386 -0.077806
v 0.434872 0.235239 -0.077806
v 0.440680 0.259300 -0.093996
v 0.426553 0.277373 -0.160726
v 0.429163 0.248822 -0.096378
v 0.443534 0.253664 -0.117887
v 0.438765 0.204386 -0.077022
v 0.438765 0.235239 -0.077022
v 0.434872 0.204386 -0.076916
v 0.434872 0.235239 -0.076916
v 0.440680 0.259300 0.094886
v 0.426553 0.277373 0.161616
v 0.429163 0.248822 0.097268
v 0.443534 0.253664 0.118777
v 0.438765 0.204386 0.077912
v 0.438765 0.235239 0.077912
v 0.434872 0.204386 0.077806
v 0.434872 0.235239 0.077806
vn 0.9715 0.2288 -0.0621
vn -0.5791 0.5790 -0.5740
vn 0.0272 -0.0000 -0.9996
vn -0.8064 0.3824 -0.4511
vn 0.3429 -0.3119 0.8861
vn -0.2117 -0.8815 0.4221
vn 0.9715 0.2288 0.0621
vn -0.5791 0.5790 0.5740
vn 0.0272 -0.0000 0.9996
vn -0.8064 0.3824 0.4511
vn 0.3429 -0.3119 -0.8861
vn -0.2117 -0.8815 -0.4221
vt 0.375000 0.000000
vt 0.625000 0.000000
vt 0.625000 0.250000
vt 0.375000 0.250000
vt 0.625000 0.500000
vt 0.375000 0.500000
vt 0.625000 0.750000
vt 0.375000 0.750000
vt 0.625000 1.000000
vt 0.375000 1.000000
vt 0.125000 0.500000
vt 0.125000 0.750000
vt 0.875000 0.500000
vt 0.875000 0.750000
s 1
usemtl 材質.004
f 91/43/38 92/44/38 94/45/38 93/46/38
f 93/46/39 94/45/39 98/47/39 97/48/39
f 97/48/40 98/47/40 96/49/40 95/50/40
f 95/50/41 96/49/41 92/51/41 91/52/41
f 93/53/42 97/48/42 95/50/42 91/54/42
f 98/47/43 94/55/43 92/56/43 96/49/43
f 99/43/44 101/46/44 102/45/44 100/44/44
f 101/46/45 105/48/45 106/47/45 102/45/45
f 105/48/46 103/50/46 104/49/46 106/47/46
f 103/50/47 99/52/47 100/51/47 104/49/47
f 101/53/48 99/54/48 103/50/48 105/48/48
f 106/47/49 104/49/49 100/56/49 102/55/49
f 107/43/44 109/46/44 110/45/44 108/44/44
f 109/46/45 113/48/45 114/47/45 110/45/45
f 113/48/46 111/50/46 112/49/46 114/47/46
f 111/50/47 107/52/47 108/51/47 112/49/47
f 109/53/48 107/54/48 111/50/48 113/48/48
f 114/47/49 112/49/49 108/56/49 110/55/49
f 115/43/38 116/44/38 118/45/38 117/46/38
f 117/46/39 118/45/39 122/47/39 121/48/39
f 121/48/40 122/47/40 120/49/40 119/50/40
f 119/50/41 120/49/41 116/51/41 115/52/41
f 117/53/42 121/48/42 119/50/42 115/54/42
f 122/47/43 118/55/43 116/56/43 120/49/43
o Cube.004
v 0.093996 -0.028473 -0.180680
v 0.160726 -0.010400 -0.166553
v 0.096378 -0.038951 -0.169163
v 0.117887 -0.034109 -0.183534
v 0.077022 -0.083387 -0.178765
v 0.077022 -0.052534 -0.178765
v 0.076916 -0.083387 -0.174872
v 0.076916 -0.052534 -0.174872
v -0.094886 -0.028473 -0.180680
v -0.161616 -0.010400 -0.166553
v -0.097268 -0.038951 -0.169163
v -0.118777 -0.034109 -0.183534
v -0.077912 -0.083387 -0.178765
v -0.077912 -0.052534 -0.178765
v -0.077806 -0.083387 -0.174872
v -0.077806 -0.052534 -0.174872
v -0.093996 -0.028473 -0.180680
v -0.160726 -0.010400 -0.166553
v -0.096378 -0.038951 -0.169163
v -0.117887 -0.034109 -0.183534
v -0.077022 -0.083387 -0.178765
v -0.077022 -0.052534 -0.178765
v -0.076916 -0.083387 -0.174872
v -0.076916 -0.052534 -0.174872
v 0.094886 -0.028473 -0.180680
v 0.161616 -0.010400 -0.166553
v 0.097268 -0.038951 -0.169163
v 0.118777 -0.034109 -0.183534
v 0.077912 -0.083387 -0.178765
v 0.077912 -0.052534 -0.178765
v 0.077806 -0.083387 -0.174872
v 0.077806 -0.052534 -0.174872
vn -0.0621 0.2288 -0.9715
vn -0.5740 0.5790 0.5791
vn -0.9996 -0.0000 -0.0272
vn -0.4511 0.3824 0.8064
vn 0.8861 -0.3119 -0.3429
vn 0.4221 -0.8815 0.2117
vn 0.0621 0.2288 -0.9715
vn 0.5740 0.5790 0.5791
vn 0.9996 -0.0000 -0.0272
vn 0.4511 0.3824 0.8064
vn -0.8861 -0.3119 -0.3429
vn -0.4221 -0.8815 0.2117
vt 0.375000 0.000000
vt 0.625000 0.000000
vt 0.625000 0.250000
vt 0.375000 0.250000
vt 0.625000 0.500000
vt 0.375000 0.500000
vt 0.625000 0.750000
vt 0.375000 0.750000
vt 0.625000 1.000000
vt 0.375000 1.000000
vt 0.125000 0.500000
vt 0.125000 0.750000
vt 0.875000 0.500000
vt 0.875000 0.750000
s 1
usemtl 材質.001
f 123/57/50 124/58/50 126/59/50 125/60/50
f 125/60/51 126/59/51 130/61/51 129/62/51
f 129/62/52 130/61/52 128/63/52 127/64/52
f 127/64/53 128/63/53 124/65/53 123/66/53
f 125/67/54 129/62/54 127/64/54 123/68/54
f 130/61/55 126/69/55 124/70/55 128/63/55
f 131/57/56 133/60/56 134/59/56 132/58/56
f 133/60/57 137/62/57 138/61/57 134/59/57
f 137/62/58 135/64/58 136/63/58 138/61/58
f 135/64/59 131/66/59 132/65/59 136/63/59
f 133/67/60 131/68/60 135/64/60 137/62/60
f 138/61/61 136/63/61 132/70/61 134/69/61
f 139/57/56 141/60/56 142/59/56 140/58/56
f 141/60/57 145/62/57 146/61/57 142/59/57
f 145/62/58 143/64/58 144/63/58 146/61/58
f 143/64/59 139/66/59 140/65/59 144/63/59
f 141/67/60 139/68/60 143/64/60 145/62/60
f 146/61/61 144/63/61 140/70/61 142/69/61
f 147/57/50 148/58/50 150/59/50 149/60/50
f 149/60/51 150/59/51 154/61/51 153/62/51
f 153/62/52 154/61/52 152/63/52 151/64/52
f 151/64/53 152/63/53 148/65/53 147/66/53
f 149/67/54 153/62/54 151/64/54 147/68/54
f 154/61/55 150/69/55 148/70/55 152/63/55
o Cube.005
v 0.093996 -0.028473 -0.132334
v 0.160726 -0.010400 -0.118207
v 0.096378 -0.038951 -0.120817
v 0.117887 -0.034109 -0.135188
v 0.077022 -0.083387 -0.130419
v 0.077022 -0.052534 -0.130419
v 0.076916 -0.083387 -0.126526
v 0.076916 -0.052534 -0.126526
v -0.094886 -0.028473 -0.132334
v -0.161616 -0.010400 -0.118207
v -0.097268 -0.038951 -0.120817
v -0.118777 -0.034109 -0.135188
v -0.077912 -0.083387 -0.130419
v -0.077912 -0.052534 -0.130419
v -0.077806 -0.083387 -0.126526
v -0.077806 -0.052534 -0.126526
v -0.093996 -0.028473 -0.132334
v -0.160726 -0.010400 -0.118207
v -0.096378 -0.038951 -0.120817
v -0.117887 -0.034109 -0.135188
v -0.077022 -0.083387 -0.130419
v -0.077022 -0.052534 -0.130419
v -0.076916 -0.083387 -0.126526
v -0.076916 -0.052534 -0.126526
v 0.094886 -0.028473 -0.132334
v 0.161616 -0.010400 -0.118207
v 0.097268 -0.038951 -0.120817
v 0.118777 -0.034109 -0.135188
v 0.077912 -0.083387 -0.130419
v 0.077912 -0.052534 -0.130419
v 0.077806 -0.083387 -0.126526
v 0.077806 -0.052534 -0.126526
vn -0.0621 0.2288 -0.9715
vn -0.5740 0.5790 0.5791
vn -0.9996 -0.0000 -0.0272
vn -0.4511 0.3824 0.8064
vn 0.8861 -0.3119 -0.3429
vn 0.4221 -0.8815 0.2117
vn 0.0621 0.2288 -0.9715
vn 0.5740 0.5790 0.5791
vn 0.9996 -0.0000 -0.0272
vn 0.4511 0.3824 0.8064
vn -0.8861 -0.3119 -0.3429
vn -0.4221 -0.8815 0.2117
vt 0.375000 0.000000
vt 0.625000 0.000000
vt 0.625000 0.250000
vt 0.375000 0.250000
vt 0.625000 0.500000
vt 0.375000 0.500000
vt 0.625000 0.750000
vt 0.375000 0.750000
vt 0.625000 1.000000
vt 0.375000 1.000000
vt 0.125000 0.500000
vt 0.125000 0.750000
vt 0.875000 0.500000
vt 0.875000 0.750000
s 1
usemtl 材質.005
f 155/71/62 156/72/62 158/73/62 157/74/62
f 157/74/63 158/73/63 162/75/63 161/76/63
f 161/76/64 162/75/64 160/77/64 159/78/64
f 159/78/65 160/77/65 156/79/65 155/80/65
f 157/81/66 161/76/66 159/78/66 155/82/66
f 162/75/67 158/83/67 156/84/67 160/77/67
f 163/71/68 165/74/68 166/73/68 164/72/68
f 165/74/69 169/76/69 170/75/69 166/73/69
f 169/76/70 167/78/70 168/77/70 170/75/70
f 167/78/71 163/80/71 164/79/71 168/77/71
f 165/81/72 163/82/72 167/78/72 169/76/72
f 170/75/73 168/77/73 164/84/73 166/83/73
f 171/71/68 173/74/68 174/73/68 172/72/68
f 173/74/69 177/76/69 178/75/69 174/73/69
f 177/76/70 175/78/70 176/77/70 178/75/70
f 175/78/71 171/80/71 172/79/71 176/77/71
f 173/81/72 171/82/72 175/78/72 177/76/72
f 178/75/73 176/77/73 172/84/73 174/83/73
f 179/71/62 180/72/62 182/73/62 181/74/62
f 181/74/63 182/73/63 186/75/63 185/76/63
f 185/76/64 186/75/64 184/77/64 183/78/64
f 183/78/65 184/77/65 180/79/65 179/80/65
f 181/81/66 185/76/66 183/78/66 179/82/66
f 186/75/67 182/83/67 180/84/67 184/77/67
o Cube.006
v 0.093996 -0.028473 -0.234200
v 0.160726 -0.010400 -0.220073
v 0.096378 -0.038951 -0.222683
v 0.117887 -0.034109 -0.237054
v 0.077022 -0.083387 -0.232285
v 0.077022 -0.052534 -0.232285
v 0.076916 -0.083387 -0.228392
v 0.076916 -0.052534 -0.228392
v -0.094886 -0.028473 -0.234200
v -0.161616 -0.010400 -0.220073
v -0.097268 -0.038951 -0.222683
v -0.118777 -0.034109 -0.237054
v -0.077912 -0.083387 -0.232285
v -0.077912 -0.052534 -0.232285
v -0.077806 -0.083387 -0.228392
v -0.077806 -0.052534 -0.228392
v -0.093996 -0.028473 -0.234200
v -0.160726 -0.010400 -0.220073
v -0.096378 -0.038951 -0.222683
v -0.117887 -0.034109 -0.237054
v -0.077022 -0.083387 -0.232285
v -0.077022 -0.052534 -0.232285
v -0.076916 -0.083387 -0.228392
v -0.076916 -0.052534 -0.228392
v 0.094886 -0.028473 -0.234200
v 0.161616 -0.010400 -0.220073
v 0.097268 -0.038951 -0.222683
v 0.118777 -0.034109 -0.237054
v 0.077912 -0.083387 -0.232285
v 0.077912 -0.052534 -0.232285
v 0.077806 -0.083387 -0.228392
v 0.077806 -0.052534 -0.228392
vn -0.0621 0.2288 -0.9715
vn -0.5740 0.5790 0.5791
vn -0.9996 -0.0000 -0.0272
vn -0.4511 0.3824 0.8064
vn 0.8861 -0.3119 -0.3429
vn 0.4221 -0.8815 0.2117
vn 0.0621 0.2288 -0.9715
vn 0.5740 0.5790 0.5791
vn 0.9996 -0.0000 -0.0272
vn 0.4511 0.3824 0.8064
vn -0.8861 -0.3119 -0.3429
vn -0.4221 -0.8815 0.2117
vt 0.375000 0.000000
vt 0.625000 0.000000
vt 0.625000 0.250000
vt 0.375000 0.250000
vt 0.625000 0.500000
vt 0.375000 0.500000
vt 0.625000 0.750000
vt 0.375000 0.750000
vt 0.625000 1.000000
vt 0.375000 1.000000
vt 0.125000 0.500000
vt 0.125000 0.750000
vt 0.875000 0.500000
vt 0.875000 0.750000
s 1
usemtl 材質.006
f 187/85/74 188/86/74 190/87/74 189/88/74
f 189/88/75 190/87/75 194/89/75 193/90/75
f 193/90/76 194/89/76 192/91/76 191/92/76
f 191/92/77 192/91/77 188/93/77 187/94/77
f 189/95/78 193/90/78 191/92/78 187/96/78
f 194/89/79 190/97/79 188/98/79 192/91/79
f 195/85/80 197/88/80 198/87/80 196/86/80
f 197/88/81 201/90/81 202/89/81 198/87/81
f 201/90/82 199/92/82 200/91/82 202/89/82
f 199/92/83 195/94/83 196/93/83 200/91/83
f 197/95/84 195/96/84 199/92/84 201/90/84
f 202/89/85 200/91/85 196/98/85 198/97/85
f 203/85/80 205/88/80 206/87/80 204/86/80
f 205/88/81 209/90/81 210/89/81 206/87/81
f 209/90/82 207/92/82 208/91/82 210/89/82
f 207/92/83 203/94/83 204/93/83 208/91/83
f 205/95/84 203/96/84 207/92/84 209/90/84
f 210/89/85 208/91/85 204/98/85 206/97/85
f 211/85/74 212/86/74 214/87/74 213/88/74
f 213/88/75 214/87/75 218/89/75 217/90/75
f 217/90/76 218/89/76 216/91/76 215/92/76
f 215/92/77 216/91/77 212/93/77 211/94/77
f 213/95/78 217/90/78 215/92/78 211/96/78
f 218/89/79 214/97/79 212/98/79 216/91/79
o RenderMesh_18687757011
v -1.298122 0.072192 0.000335
v -1.298122 0.035545 0.037768
v -1.298122 0.050494 0.052718
v -1.298122 0.051050 0.000335
v -1.298122 -0.001889 0.053274
v -1.298122 0.035545 -0.037098
v -1.298122 -0.001889 0.074416
v -1.298122 0.050494 -0.052048
v -1.298122 -0.054271 0.052718
v -1.298122 -0.001889 -0.052604
v -1.298122 -0.039322 0.037768
v -1.298122 -0.001889 -0.073746
v -1.298122 -0.075969 0.000335
v -1.298122 -0.054271 -0.052048
v -1.298122 -0.054827 0.000335
v -1.298122 -0.039322 -0.037098
v -1.058669 0.035545 0.037768
v -1.298122 -0.001889 0.053274
v -1.298122 0.035545 0.037768
v -1.058669 -0.001889 0.053274
v -1.298122 -0.039322 0.037768
v -1.058669 0.051050 0.000335
v -1.298122 0.051050 0.000335
v -1.058669 -0.039322 0.037768
v -1.298122 -0.054827 0.000335
v -1.058669 -0.054827 0.000335
v -1.298122 -0.039322 -0.037098
v -1.058669 0.035545 -0.037098
v -1.298122 0.035545 -0.037098
v -1.058669 -0.039322 -0.037098
v -1.298122 -0.001889 -0.052604
v -1.058669 -0.001889 -0.052604
v 1.172592 0.151253 -0.025657
v 1.172592 0.151253 0.026327
v 0.921494 -0.049883 -0.141136
v 0.921494 -0.049883 0.141136
v 0.921494 -0.123039 -0.112909
v 0.921494 -0.123039 0.112909
v 0.921494 0.099079 -0.057951
v 0.921494 0.099079 0.057951
v 1.298122 0.099079 -0.057951
v 1.298122 0.099079 0.057951
v -0.263758 -0.228915 -0.125454
v -0.328694 -0.123039 0.125454
v -0.328694 -0.123039 -0.125454
v -0.263758 -0.228915 0.125454
v -0.263758 -0.228915 -0.125454
v 0.002003 -0.228915 -0.125454
v -0.263758 -0.228915 0.125454
v 0.002003 -0.228915 0.125454
v -0.144920 0.153267 0.019818
v -0.144920 0.153267 0.032657
v -0.144920 0.153267 -0.031986
v -0.144920 0.153267 -0.019148
v -0.103701 0.151031 -0.025656
v -0.103701 0.151031 0.026326
v 0.921494 -0.123039 0.112909
v -0.308857 -0.123039 0.112909
v 0.921494 -0.123039 -0.112909
v -0.308857 -0.123039 -0.112909
v -0.183543 -0.009058 0.020370
v 0.707573 -0.009058 0.020370
v 0.707573 -0.009058 0.118338
v -0.183543 -0.009058 0.118338
v 0.002003 -0.228915 -0.125454
v -0.263758 -0.228915 -0.125454
v 0.002003 -0.123039 -0.125454
v -0.328694 -0.123039 -0.125454
v 0.002003 -0.123039 0.125454
v -0.263758 -0.228915 0.125454
v 0.002003 -0.228915 0.125454
v -0.328694 -0.123039 0.125454
v 1.062463 0.153267 -0.031987
v 1.062463 0.153267 -0.019148
v 1.218169 0.153267 -0.031987
v 1.218169 0.153267 -0.019148
v 1.062463 0.153267 0.019818
v 1.062463 0.153267 0.032657
v 1.218169 0.153267 0.019818
v 1.218169 0.153267 0.032657
v 1.259160 0.157912 -0.036131
v 0.921494 0.099079 -0.057951
v 0.921494 0.157912 -0.036131
v 1.298122 0.099079 -0.057951
v -0.191972 0.157912 -0.036131
v -0.308857 0.099079 -0.057951
v -0.308857 -0.049883 -0.141136
v 0.921494 -0.049883 -0.141136
v -0.308857 -0.123039 -0.112909
v 0.921494 -0.123039 -0.112909
v -0.308857 -0.049883 0.141136
v -0.183543 -0.090722 0.125378
v -0.183543 -0.049883 0.141136
v -0.183543 -0.009058 0.118338
v -0.308857 -0.123039 0.112909
v -0.308857 0.099079 0.057951
v 0.707573 -0.090722 0.125378
v 0.921494 -0.123039 0.112909
v 0.921494 -0.049883 0.141136
v 0.707573 -0.049883 0.141136
v 0.707573 -0.009058 0.118338
v 0.921494 0.099079 0.057951
v -0.191972 0.157912 0.036131
v 0.921494 0.157912 0.036131
v 1.259160 0.157912 0.036131
v 1.298122 0.099079 0.057951
v 0.010785 0.153267 -0.031987
v -0.144920 0.153267 -0.031986
v 1.218169 0.153267 -0.031987
v 1.062463 0.153267 -0.031987
v 1.143667 0.151253 -0.025657
v 1.172592 0.151253 -0.025657
v -0.144920 0.153267 0.032657
v 0.010785 0.153267 0.032656
v 1.218169 0.153267 0.032657
v 1.062463 0.153267 0.032657
v 1.143667 0.151253 0.026327
v 1.172592 0.151253 0.026327
v -0.183543 -0.090722 0.020370
v 0.707573 -0.090722 0.020370
v 0.707573 -0.009058 0.020370
v -0.183543 -0.009058 0.020370
v -1.035882 0.038460 -0.040014
v -0.284726 0.055173 0.000335
v -0.284726 0.038460 -0.040014
v -1.035882 0.055173 0.000335
v -1.035882 -0.001889 -0.056727
v -0.284726 0.038460 0.040684
v -0.284726 -0.001889 -0.056727
v -1.035882 0.038460 0.040684
v -1.035882 -0.042237 -0.040014
v -0.284726 -0.001889 0.057397
v -0.284726 -0.042237 -0.040014
v -1.035882 -0.001889 0.057397
v -1.035882 -0.058950 0.000335
v -0.284726 -0.042237 0.040684
v -0.284726 -0.058950 0.000335
v -1.035882 -0.042237 0.040684
v -1.298122 -0.054271 0.052718
v -1.025868 -0.054271 0.052718
v -1.025868 -0.001889 0.074416
v -1.298122 -0.075969 0.000335
v -1.298122 -0.001889 0.074416
v -1.025868 -0.075969 0.000335
v -1.025868 0.050494 0.052718
v -1.298122 -0.054271 -0.052048
v -1.298122 0.050494 0.052718
v -1.025868 -0.054271 -0.052048
v -1.025868 0.072192 0.000335
v -1.298122 -0.001889 -0.073746
v -1.298122 0.072192 0.000335
v -1.025868 -0.001889 -0.073746
v -1.025868 0.050494 -0.052048
v -1.298122 0.050494 -0.052048
v 0.010785 0.153267 0.019818
v -0.144920 0.153267 0.019818
v 1.218169 0.153267 0.019818
v 1.062463 0.153267 0.019818
v -0.144920 0.153267 -0.019148
v 0.010785 0.153267 -0.019148
v 1.218169 0.153267 -0.019148
v 1.062463 0.153267 -0.019148
v 1.172592 0.151253 -0.025657
v 1.172592 0.151253 0.026327
v 1.143667 0.151253 -0.025657
v 1.143667 0.151253 0.026327
v -0.191972 0.157912 -0.036131
v -0.308857 0.099079 -0.057951
v -0.308857 0.099079 0.057951
v -0.191972 0.157912 0.036131
v -0.308857 -0.049883 0.141136
v 0.921494 0.157912 0.036131
v -0.308857 -0.049883 -0.141136
v -0.308857 -0.123039 -0.112909
v -0.308857 -0.123039 0.112909
v 0.921494 0.157912 -0.036131
v 1.259160 0.157912 0.036131
v 1.259160 0.157912 -0.036131
v 1.298122 0.099079 0.057951
v 1.298122 0.099079 -0.057951
v -0.103701 0.151031 0.026326
v -0.073577 0.151031 0.026326
v -0.103701 0.151031 -0.025656
v -0.073577 0.151031 -0.025656
v 0.010785 0.153267 0.019818
v 0.010785 0.153267 0.032656
v 0.010785 0.153267 -0.031987
v 0.010785 0.153267 -0.019148
v -0.154172 -0.222306 0.040234
v -0.154172 -0.314325 0.040234
v -0.114273 -0.314325 0.056761
v -0.170699 -0.222306 0.000335
v -0.114273 -0.222306 0.056761
v -0.170699 -0.314325 0.000335
v -0.074374 -0.314325 0.040234
v -0.154172 -0.222306 -0.039564
v -0.074374 -0.222306 0.040234
v -0.154172 -0.314325 -0.039564
v -0.057848 -0.314325 0.000335
v -0.114273 -0.222306 -0.056091
v -0.057848 -0.222306 0.000335
v -0.114273 -0.314325 -0.056091
v -0.074374 -0.314325 -0.039564
v -0.074374 -0.222306 -0.039564
v -0.183543 -0.090722 0.020370
v 0.707573 -0.090722 0.125378
v 0.707573 -0.090722 0.020370
v -0.183543 -0.090722 0.125378
v -0.073577 0.151031 -0.025656
v -0.073577 0.151031 0.026326
v -0.328694 -0.123039 -0.125454
v 0.002003 -0.123039 0.125454
v 0.002003 -0.123039 -0.125454
v -0.328694 -0.123039 0.125454
v -0.183543 -0.090722 0.020370
v -0.183543 -0.009058 0.118338
v -0.183543 -0.090722 0.125378
v -0.183543 -0.049883 0.141136
v -0.183543 -0.009058 0.020370
v 0.707573 -0.090722 0.020370
v 0.707573 -0.009058 0.118338
v 0.707573 -0.009058 0.020370
v 0.707573 -0.090722 0.125378
v 0.707573 -0.049883 0.141136
v 1.143667 0.151253 -0.025657
v 1.143667 0.151253 0.026327
v -1.025868 -0.054271 -0.052048
v -1.025868 -0.054271 0.052718
v -1.025868 -0.075969 0.000335
v -1.025868 0.050494 -0.052048
v -1.025868 -0.001889 -0.073746
v -1.025868 0.050494 0.052718
v -1.025868 -0.001889 0.074416
v -1.025868 0.072192 0.000335
vn -1.0000 0.0005 0.0005
vn -0.6306 -0.5488 -0.5488
vn 0.0005 0.0005 -1.0000
vn -0.0000 -0.7071 -0.7071
vn -0.6305 0.0004 -0.7762
vn -0.0000 0.7071 -0.7071
vn -0.6306 -0.7761 0.0005
vn 0.0005 -1.0000 0.0005
vn -0.6303 0.5490 -0.5490
vn 0.0005 1.0000 0.0005
vn -0.6303 0.7764 -0.0000
vn -0.0000 0.7071 0.7071
vn -0.6303 -0.5490 0.5490
vn -0.0000 -0.7071 0.7071
vn -0.6303 0.5490 0.5490
vn 0.0005 0.0005 1.0000
vn -0.6305 0.0004 0.7762
vn 1.0000 0.0005 0.0005
vn 0.7980 -0.6026 -0.0000
vn -0.8523 -0.5230 0.0004
vn -0.8524 -0.5228 -0.0000
vn -0.0000 0.3477 -0.9376
vn -0.0000 0.3954 -0.9185
vn 0.0004 0.3475 -0.9377
vn -0.0000 0.4552 -0.8904
vn 0.0006 0.0710 -0.9975
vn 0.0008 0.0711 -0.9975
vn 0.0004 -0.3601 -0.9329
vn -0.0000 -0.3600 -0.9330
vn 0.0006 0.0709 0.9975
vn -0.0000 -0.3600 0.9330
vn -0.0000 0.0705 0.9975
vn 0.0005 0.4880 0.8729
vn -0.0000 0.4552 0.8904
vn 0.0004 -0.3601 0.9329
vn -0.0000 0.4876 0.8731
vn -0.0000 0.3954 0.9185
vn 0.0003 0.3476 0.9377
vn 0.0004 0.3475 0.9377
vn -0.0000 0.3477 0.9376
vn 0.0005 -0.7071 0.7071
vn 0.0004 0.0004 1.0000
vn 0.0003 -0.7071 -0.7071
vn 0.0007 -0.7071 -0.7071
vn 0.0004 0.0004 -1.0000
vn 0.0005 0.7071 -0.7071
vn -0.2426 0.9701 -0.0000
vn -0.9075 0.4201 -0.0000
vn -0.2428 0.9701 0.0004
vn 0.5134 0.8581 0.0004
vn 0.8337 0.5521 -0.0000
vn -0.0000 -0.7061 -0.7081
vn 0.0005 -0.7061 0.7081
vn 0.0004 -0.7061 0.7081
vn -0.7071 -0.0000 0.7071
vn 0.7071 -0.0000 0.7071
vn -0.7071 -0.0000 -0.7071
vn 0.7071 -0.0000 -0.7071
vt 0.000000 0.000000
s 1
f 219/99/86 220/99/86 221/99/86
f 220/99/86 219/99/86 222/99/86
f 223/99/86 221/99/86 220/99/86
f 219/99/86 224/99/86 222/99/86
f 221/99/86 223/99/86 225/99/86
f 219/99/86 226/99/86 224/99/86
f 223/99/86 227/99/86 225/99/86
f 228/99/86 224/99/86 226/99/86
f 227/99/86 223/99/86 229/99/86
f 226/99/86 230/99/86 228/99/86
f 231/99/86 227/99/86 229/99/86
f 232/99/86 228/99/86 230/99/86
f 231/99/86 229/99/86 233/99/86
f 228/99/86 232/99/86 234/99/86
f 231/99/86 234/99/86 232/99/86
f 234/99/86 231/99/86 233/99/86
f 235/99/87 236/99/88 237/99/89
f 236/99/88 235/99/87 238/99/90
f 238/99/90 239/99/91 236/99/88
f 237/99/89 240/99/92 235/99/87
f 240/99/92 237/99/89 241/99/93
f 235/99/87 242/99/94 238/99/90
f 239/99/91 238/99/90 242/99/94
f 239/99/91 242/99/94 243/99/95
f 235/99/87 244/99/96 242/99/94
f 244/99/96 243/99/95 242/99/94
f 244/99/96 235/99/87 240/99/92
f 243/99/95 244/99/96 245/99/97
f 241/99/93 246/99/98 240/99/92
f 246/99/98 244/99/96 240/99/92
f 246/99/98 241/99/93 247/99/99
f 248/99/100 245/99/97 244/99/96
f 244/99/96 246/99/98 248/99/100
f 248/99/100 249/99/101 245/99/97
f 247/99/99 250/99/102 246/99/98
f 248/99/100 246/99/98 250/99/102
f 250/99/102 247/99/99 249/99/101
f 249/99/101 248/99/100 250/99/102
f 253/99/103 254/99/103 255/99/103
f 255/99/103 254/99/103 256/99/103
f 257/99/104 254/99/103 253/99/103
f 254/99/103 257/99/104 258/99/104
f 259/99/93 258/99/104 257/99/104
f 258/99/104 259/99/93 260/99/93
f 261/99/105 262/99/106 263/99/105
f 262/99/106 261/99/105 264/99/105
f 265/99/93 266/99/93 267/99/93
f 266/99/93 268/99/93 267/99/93
f 275/99/93 276/99/93 277/99/93
f 278/99/93 277/99/93 276/99/93
f 279/99/93 280/99/93 281/99/93
f 279/99/93 281/99/93 282/99/93
f 283/99/88 284/99/88 285/99/88
f 286/99/88 285/99/88 284/99/88
f 287/99/101 288/99/101 289/99/101
f 288/99/101 287/99/101 290/99/101
f 299/99/107 300/99/108 301/99/109
f 300/99/108 299/99/107 302/99/107
f 300/99/108 303/99/107 301/99/109
f 303/99/107 300/99/108 304/99/110
f 304/99/110 300/99/108 305/99/111
f 306/99/112 305/99/111 300/99/108
f 305/99/111 306/99/112 307/99/113
f 308/99/114 307/99/113 306/99/112
f 309/99/115 310/99/116 311/99/117
f 312/99/118 309/99/115 311/99/117
f 310/99/116 309/99/115 313/99/116
f 309/99/115 312/99/118 314/99/119
f 313/99/116 315/99/116 310/99/116
f 315/99/116 313/99/116 316/99/120
f 317/99/117 315/99/116 316/99/120
f 315/99/116 317/99/117 318/99/117
f 317/99/117 319/99/121 318/99/117
f 319/99/121 314/99/119 312/99/118
f 317/99/117 320/99/122 319/99/121
f 314/99/119 319/99/121 320/99/122
f 314/99/119 320/99/122 321/99/123
f 322/99/124 321/99/123 320/99/122
f 320/99/122 323/99/125 322/99/124
f 323/99/125 320/99/122 324/99/125
f 337/99/101 338/99/101 339/99/101
f 337/99/101 339/99/101 340/99/101
f 341/99/91 342/99/95 343/99/91
f 342/99/95 341/99/91 344/99/95
f 341/99/91 343/99/91 345/99/88
f 344/99/95 346/99/97 342/99/95
f 347/99/88 345/99/88 343/99/91
f 346/99/97 344/99/95 348/99/97
f 345/99/88 347/99/88 349/99/89
f 346/99/97 348/99/97 350/99/101
f 351/99/89 349/99/89 347/99/88
f 352/99/101 350/99/101 348/99/97
f 349/99/89 351/99/89 353/99/93
f 350/99/101 352/99/101 354/99/99
f 355/99/93 353/99/93 351/99/89
f 356/99/99 354/99/99 352/99/101
f 353/99/93 355/99/93 356/99/99
f 354/99/99 356/99/99 355/99/93
f 357/99/99 358/99/126 359/99/127
f 360/99/93 358/99/126 357/99/99
f 357/99/99 359/99/127 361/99/127
f 360/99/93 362/99/93 358/99/126
f 361/99/127 359/99/127 363/99/97
f 364/99/128 362/99/93 360/99/93
f 361/99/127 363/99/97 365/99/97
f 364/99/128 366/99/129 362/99/93
f 367/99/95 365/99/97 363/99/97
f 368/99/130 366/99/129 364/99/128
f 365/99/97 367/99/95 369/99/95
f 368/99/130 370/99/130 366/99/129
f 371/99/131 369/99/95 367/99/95
f 372/99/91 370/99/130 368/99/130
f 369/99/95 371/99/131 372/99/91
f 372/99/91 371/99/131 370/99/130
f 381/99/93 382/99/93 383/99/93
f 383/99/93 382/99/93 384/99/93
f 385/99/132 386/99/133 387/99/133
f 385/99/132 387/99/133 388/99/134
f 386/99/133 389/99/86 387/99/133
f 390/99/95 385/99/132 388/99/134
f 386/99/133 391/99/86 389/99/86
f 392/99/86 389/99/86 391/99/86
f 389/99/86 392/99/86 393/99/86
f 385/99/132 390/99/95 394/99/95
f 390/99/95 395/99/135 394/99/95
f 396/99/135 394/99/95 395/99/135
f 397/99/136 396/99/135 395/99/135
f 396/99/135 397/99/136 398/99/136
f 401/99/137 400/99/138 399/99/139
f 401/99/137 402/99/137 400/99/138
f 407/99/140 408/99/140 409/99/101
f 410/99/86 408/99/140 407/99/140
f 409/99/101 411/99/101 407/99/140
f 410/99/86 412/99/86 408/99/140
f 411/99/101 409/99/101 413/99/141
f 414/99/142 412/99/86 410/99/86
f 413/99/141 415/99/141 411/99/101
f 414/99/142 416/99/142 412/99/86
f 417/99/103 415/99/141 413/99/141
f 418/99/88 416/99/142 414/99/142
f 415/99/141 417/99/103 419/99/103
f 416/99/142 418/99/88 420/99/88
f 421/99/143 419/99/103 417/99/103
f 422/99/143 420/99/88 418/99/88
f 419/99/103 421/99/143 422/99/143
f 420/99/88 422/99/143 421/99/143
f 423/99/95 424/99/95 425/99/95
f 424/99/95 423/99/95 426/99/95
f 429/99/95 430/99/95 431/99/95
f 430/99/95 429/99/95 432/99/95
f 433/99/103 434/99/103 435/99/103
f 435/99/103 434/99/103 436/99/103
f 434/99/103 433/99/103 437/99/103
f 438/99/86 439/99/86 440/99/86
f 439/99/86 438/99/86 441/99/86
f 442/99/86 439/99/86 441/99/86
f 445/99/103 446/99/103 447/99/103
f 446/99/103 445/99/103 448/99/103
f 448/99/103 445/99/103 449/99/103
f 448/99/103 450/99/103 446/99/103
f 446/99/103 450/99/103 451/99/103
f 450/99/103 448/99/103 452/99/103
l 251 252
l 269 270
l 271 272
l 273 274
l 291 292
l 293 294
l 295 296
l 297 298
l 325 326
l 327 328
l 329 330
l 331 332
l 333 334
l 335 336
l 373 374
l 375 376
l 377 378
l 379 380
l 403 404
l 405 406
l 427 428
l 443 444
