# Blender 5.2.2 LTS
# www.blender.org
mtllib charging handle final 1111.mtl
o ChargingHandle_001_83550137677694.001
v 0.136596 0.038174 -0.239322
v 0.149287 -0.026814 -0.249286
v 0.137594 -0.026814 -0.237593
v 0.121621 -0.026814 -0.233313
v 0.147558 0.038174 -0.250284
v 0.121621 0.038174 -0.235310
v 0.153567 -0.026814 -0.265258
v 0.108629 0.038174 -0.233987
v 0.151570 0.038174 -0.265258
v 0.108625 -0.026814 -0.232185
v 0.147558 0.038174 -0.280233
v 0.090813 0.038173 -0.230921
v 0.149287 -0.026814 -0.281231
v 0.137594 -0.026814 -0.292924
v 0.136596 0.038174 -0.291195
v 0.090809 -0.026814 -0.229387
v 0.121621 -0.026814 -0.297204
v 0.072195 0.023807 -0.217956
v 0.072022 0.038173 -0.218067
v 0.072197 -0.026814 -0.217107
v 0.121621 0.038174 -0.295207
v 0.059928 0.023806 -0.199316
v 0.059935 -0.026814 -0.198481
v 0.055879 0.023804 -0.177127
v 0.055890 -0.026814 -0.176344
v 0.056044 0.010941 -0.154166
v 0.055952 0.023803 -0.167025
v 0.056044 -0.013954 -0.154166
v 0.055955 -0.026814 -0.167025
v -0.017020 0.007778 -0.296141
v -0.017020 -0.010791 -0.296712
v -0.019120 0.009878 -0.296077
v -0.104973 0.038174 -0.295207
v -0.104973 0.009878 -0.296077
v -0.019120 -0.012891 -0.296776
v -0.104973 -0.026814 -0.297204
v -0.104973 -0.012891 -0.296776
v 0.008324 0.019347 0.673976
v -0.005232 0.023802 0.658554
v 0.021880 0.023802 0.658554
v -0.002561 0.027380 0.655730
v 0.019209 0.027380 0.655730
v 0.021880 0.019834 0.673976
v 0.025848 0.019834 0.671587
v -0.104973 0.038174 -0.295207
v 0.121621 0.038174 -0.295207
v -0.104447 0.042167 -0.291090
v 0.134467 0.042167 -0.287507
v 0.121096 0.042167 -0.291090
v 0.136596 0.038174 -0.291195
v 0.147558 0.038174 -0.280233
v 0.143870 0.042167 -0.278104
v 0.151570 0.038174 -0.265258
v 0.147312 0.042167 -0.265258
v 0.147558 0.038174 -0.250284
v 0.143870 0.042167 -0.252413
v 0.136596 0.038174 -0.239322
v 0.134467 0.042167 -0.243010
v 0.121621 0.038174 -0.235310
v 0.120896 0.042167 -0.239374
v 0.108629 0.038174 -0.233987
v 0.108084 0.042167 -0.238058
v -0.134922 0.038174 -0.265258
v -0.127222 0.042167 -0.278104
v -0.130664 0.042167 -0.265258
v -0.130910 0.038174 -0.280233
v -0.130910 0.038174 -0.250284
v -0.117819 0.042167 -0.287507
v -0.127222 0.042167 -0.252413
v -0.119948 0.038174 -0.291195
v -0.104973 0.038174 -0.295207
v -0.104447 0.042167 -0.291090
v -0.119948 0.038174 -0.239322
v 0.121096 0.042167 -0.291090
v 0.121621 0.038174 -0.295207
v -0.117819 0.042167 -0.243010
v -0.104973 0.038174 -0.235310
v -0.104248 0.042167 -0.239374
v -0.091981 0.038174 -0.233987
v -0.091436 0.042167 -0.238058
v -0.017020 0.007778 -0.117565
v -0.023360 -0.012891 -0.117565
v -0.017020 -0.010791 -0.117565
v -0.019120 -0.012891 -0.117565
v -0.023360 0.009878 -0.117565
v -0.019120 0.009878 -0.117565
v -0.005232 0.023802 0.658554
v -0.005232 0.019834 0.673976
v -0.009200 0.019834 0.671587
v 0.008324 0.019347 0.673976
v -0.119948 0.038174 -0.239322
v -0.120383 0.009878 -0.238569
v -0.130910 0.038174 -0.250284
v -0.104973 0.009878 -0.234440
v -0.104973 0.038174 -0.235310
v -0.131663 0.009878 -0.249849
v -0.135792 0.009878 -0.265258
v -0.134922 0.038174 -0.265258
v -0.130910 0.038174 -0.280233
v -0.131663 0.009878 -0.280668
v -0.120383 0.009878 -0.291948
v -0.119948 0.038174 -0.291195
v -0.104973 0.009878 -0.296077
v -0.104973 0.038174 -0.295207
v -0.132268 -0.012891 -0.249500
v -0.120732 -0.012891 -0.237963
v -0.120946 -0.026814 -0.237593
v -0.104973 -0.026814 -0.233313
v -0.104973 -0.012891 -0.233741
v -0.132639 -0.026814 -0.249286
v -0.136919 -0.026814 -0.265258
v -0.136491 -0.012891 -0.265258
v -0.132268 -0.012891 -0.281017
v -0.132639 -0.026814 -0.281231
v -0.120946 -0.026814 -0.292924
v -0.120732 -0.012891 -0.292553
v -0.104973 -0.026814 -0.297204
v -0.104973 -0.012891 -0.296776
v -0.018050 -0.058823 0.666260
v -0.011871 -0.058823 0.653692
v -0.023360 -0.058823 0.653442
v -0.005232 -0.058823 0.673976
v 0.008324 -0.058823 0.673976
v -0.011871 -0.058823 0.631655
v -0.023360 -0.058823 0.631655
v 0.040008 -0.058823 0.653442
v 0.028519 -0.058823 0.653692
v 0.034698 -0.058823 0.666260
v 0.021880 -0.058823 0.673976
v 0.008324 -0.058823 0.673976
v -0.011871 -0.058823 0.653692
v 0.028519 -0.058823 0.631655
v 0.040008 -0.058823 0.631655
v 0.023732 -0.022594 0.672861
v 0.021880 -0.058823 0.673976
v 0.017220 -0.029106 0.673976
v 0.008324 -0.031489 0.673976
v 0.008324 -0.058823 0.673976
v 0.034698 -0.058823 0.666260
v 0.026116 -0.013698 0.671426
v 0.034698 0.010984 0.666260
v 0.023732 -0.004801 0.672861
v 0.021880 0.019834 0.673976
v 0.025848 0.019834 0.671587
v 0.017220 0.001711 0.673976
v 0.008324 0.019347 0.673976
v 0.008324 0.004095 0.673976
v 0.040008 0.005675 0.653442
v 0.040008 -0.058823 0.653442
v 0.040008 -0.058823 0.631655
v 0.040008 -0.048464 0.631655
v 0.040008 -0.037640 0.628755
v 0.040008 -0.029715 0.620830
v 0.040008 -0.026814 0.610005
v 0.040008 0.005675 -0.095252
v 0.040008 -0.026814 -0.167025
v 0.040008 -0.013954 -0.154166
v 0.040008 0.010867 -0.110740
v 0.040008 0.010941 -0.154166
v 0.040008 0.023803 -0.129653
v 0.040008 0.023802 -0.167025
v 0.040008 -0.037640 0.628755
v 0.040008 -0.048464 0.631655
v 0.040008 -0.058823 0.653442
v -0.117819 0.042167 -0.243010
v -0.130664 0.042167 -0.265258
v -0.127222 0.042167 -0.278104
v -0.127222 0.042167 -0.252413
v -0.117819 0.042167 -0.287507
v -0.104447 0.042167 -0.291090
v -0.104248 0.042167 -0.239374
v -0.091436 0.042167 -0.238058
v -0.072625 0.042167 -0.234803
v -0.043902 0.042167 -0.234197
v -0.054256 0.042167 -0.222208
v -0.021419 0.042167 -0.253895
v 0.121096 0.042167 -0.291090
v 0.008324 0.042167 -0.260869
v 0.038067 0.042167 -0.253895
v 0.089273 0.042167 -0.234803
v 0.038067 0.042167 -0.253895
v 0.089273 0.042167 -0.234803
v 0.060550 0.042167 -0.234197
v 0.070904 0.042167 -0.222208
v 0.121096 0.042167 -0.291090
v 0.108084 0.042167 -0.238058
v 0.120896 0.042167 -0.239374
v 0.134467 0.042167 -0.243010
v 0.134467 0.042167 -0.287507
v 0.143870 0.042167 -0.278104
v 0.147312 0.042167 -0.265258
v 0.143870 0.042167 -0.252413
v -0.021419 0.042167 -0.253895
v -0.104447 0.042167 -0.291090
v 0.008324 0.042167 -0.260869
v -0.072625 0.042167 -0.234803
v -0.039304 0.023803 -0.167025
v -0.039234 0.009878 -0.176912
v -0.039231 0.023804 -0.177127
v -0.039396 0.010941 -0.154166
v -0.039396 0.009878 -0.154166
v -0.023360 0.005675 0.653442
v -0.018050 -0.058823 0.666260
v -0.023360 -0.058823 0.653442
v -0.023360 -0.037640 0.628755
v -0.023360 -0.029715 0.620830
v -0.023360 -0.026814 0.610005
v -0.023360 0.005675 -0.095252
v -0.018050 0.010984 0.666260
v -0.023360 -0.012891 -0.117565
v -0.023360 -0.026814 -0.167025
v -0.023360 -0.013954 -0.154166
v -0.023360 -0.012891 -0.154166
v -0.023360 0.010867 -0.110740
v -0.023360 0.009878 -0.117565
v -0.023360 0.023803 -0.129653
v -0.023360 0.009878 -0.154166
v -0.023360 0.010941 -0.154166
v -0.023360 0.023802 -0.167025
v -0.009468 -0.013698 0.671426
v -0.007084 -0.022594 0.672861
v -0.005232 -0.058823 0.673976
v -0.007084 -0.004801 0.672861
v -0.000572 -0.029106 0.673976
v 0.008324 -0.031489 0.673976
v 0.008324 -0.058823 0.673976
v -0.005232 0.019834 0.673976
v -0.009200 0.019834 0.671587
v -0.000572 0.001711 0.673976
v 0.008324 0.019347 0.673976
v 0.008324 0.004095 0.673976
v 0.021880 0.023802 0.631535
v 0.040008 0.005675 -0.095252
v 0.040008 0.005675 0.653442
v 0.021880 0.023803 -0.095252
v 0.021880 0.023802 0.658554
v 0.034698 0.010984 0.666260
v 0.025848 0.019834 0.671587
v 0.019209 0.027380 0.634359
v 0.019209 0.027380 0.655730
v 0.040008 -0.026814 0.610005
v 0.028519 -0.029715 0.620830
v 0.040008 -0.029715 0.620830
v 0.028519 -0.026814 0.610005
v 0.028519 -0.026814 -0.200560
v 0.040008 -0.026814 -0.167025
v 0.055890 -0.026814 -0.176344
v 0.055955 -0.026814 -0.167025
v 0.059935 -0.026814 -0.198481
v 0.121621 -0.026814 -0.297204
v -0.104973 -0.026814 -0.297204
v 0.108625 -0.026814 -0.232185
v 0.090809 -0.026814 -0.229387
v 0.121621 -0.026814 -0.233313
v 0.137594 -0.026814 -0.292924
v 0.137594 -0.026814 -0.237593
v 0.149287 -0.026814 -0.281231
v 0.149287 -0.026814 -0.249286
v 0.153567 -0.026814 -0.265258
v -0.055549 -0.026814 -0.217107
v -0.074161 -0.026814 -0.229387
v -0.011871 -0.026814 -0.200560
v -0.043287 -0.026814 -0.198481
v -0.011871 -0.026814 0.610005
v -0.023360 -0.026814 -0.167025
v -0.039242 -0.026814 -0.176344
v -0.120946 -0.026814 -0.237593
v -0.104973 -0.026814 -0.233313
v -0.120946 -0.026814 -0.292924
v -0.132639 -0.026814 -0.281231
v -0.132639 -0.026814 -0.249286
v -0.136919 -0.026814 -0.265258
v 0.121621 -0.026814 -0.297204
v 0.028519 -0.026814 -0.200560
v 0.072197 -0.026814 -0.217107
v 0.090809 -0.026814 -0.229387
v 0.059935 -0.026814 -0.198481
v -0.104973 -0.026814 -0.297204
v -0.011871 -0.026814 -0.200560
v -0.039242 -0.026814 -0.176344
v -0.043287 -0.026814 -0.198481
v -0.023360 -0.026814 -0.167025
v -0.039307 -0.026814 -0.167025
v -0.104973 -0.026814 -0.233313
v -0.091977 -0.026814 -0.232185
v -0.074161 -0.026814 -0.229387
v -0.023360 -0.026814 0.610005
v -0.011871 -0.026814 0.610005
v -0.023360 -0.029715 0.620830
v -0.011871 -0.029715 0.620830
v -0.011871 -0.037640 0.628755
v -0.023360 -0.037640 0.628755
v -0.023360 -0.048464 0.631655
v -0.011871 -0.048464 0.631655
v 0.040008 -0.026814 -0.167025
v 0.028519 -0.026814 0.610005
v 0.040008 -0.026814 0.610005
v -0.002561 0.027380 0.655730
v 0.019209 0.027380 0.634359
v 0.019209 0.027380 0.655730
v -0.002561 0.027380 0.634359
v 0.008324 0.023801 -0.256842
v -0.043280 0.023806 -0.199316
v -0.019677 0.023802 -0.250276
v -0.040756 0.023806 -0.231808
v -0.051649 0.023807 -0.218346
v -0.055547 0.023807 -0.217956
v -0.023360 0.023802 -0.167025
v -0.039231 0.023804 -0.177127
v -0.039304 0.023803 -0.167025
v 0.040008 0.023802 -0.167025
v 0.055879 0.023804 -0.177127
v 0.055952 0.023803 -0.167025
v 0.059928 0.023806 -0.199316
v 0.036325 0.023802 -0.250276
v 0.057404 0.023806 -0.231808
v 0.068297 0.023807 -0.218346
v 0.072195 0.023807 -0.217956
v 0.040008 0.023803 -0.129653
v -0.023360 0.023803 -0.129653
v 0.027067 0.023803 -0.110731
v -0.010419 0.023803 -0.110731
v -0.005232 0.023803 -0.095252
v 0.021880 0.023803 -0.095252
v 0.040008 0.023802 -0.167025
v 0.008324 0.023801 -0.256842
v 0.059928 0.023806 -0.199316
v 0.055879 0.023804 -0.177127
v -0.023360 0.023803 -0.129653
v -0.023360 0.023802 -0.167025
v -0.005232 0.023802 0.631535
v -0.005232 0.023803 -0.095252
v 0.021880 0.023802 0.631535
v 0.021880 0.023803 -0.095252
v -0.010419 0.023803 -0.110731
v 0.027067 0.023803 -0.110731
v -0.023360 -0.037640 0.628755
v -0.023360 -0.058823 0.653442
v -0.023360 -0.048464 0.631655
v -0.023360 -0.058823 0.631655
v -0.018050 0.010984 0.666260
v -0.005232 0.023802 0.658554
v -0.009200 0.019834 0.671587
v -0.023360 0.005675 0.653442
v -0.005232 0.023802 0.631535
v -0.023360 0.005675 -0.095252
v -0.005232 0.023803 -0.095252
v -0.005232 0.023802 0.658554
v -0.005232 0.023802 0.631535
v -0.002561 0.027380 0.634359
v -0.002561 0.027380 0.655730
v -0.017020 -0.010791 -0.117565
v -0.017020 0.007778 -0.296141
v -0.017020 0.007778 -0.117565
v -0.017020 -0.010791 -0.296712
v -0.019120 0.009878 -0.296077
v -0.019120 0.009878 -0.117565
v -0.017020 0.007778 -0.117565
v -0.017020 0.007778 -0.296141
v 0.008324 0.004095 0.673976
v 0.008324 0.004095 0.653692
v -0.000572 0.001711 0.653692
v -0.000572 0.001711 0.673976
v -0.017020 -0.010791 -0.296712
v -0.017020 -0.010791 -0.117565
v -0.019120 -0.012891 -0.117565
v -0.019120 -0.012891 -0.296776
v -0.011871 -0.058823 0.631655
v -0.011871 -0.058823 0.653692
v -0.011871 -0.048464 0.631655
v -0.011871 -0.037640 0.628755
v -0.011871 -0.013167 0.653692
v -0.011871 -0.029715 0.620830
v -0.011871 -0.026814 0.610005
v -0.011871 -0.013167 -0.200560
v -0.011871 -0.026814 -0.200560
v -0.009165 -0.003069 -0.200560
v -0.009165 -0.003069 0.653692
v -0.001773 0.004322 0.653692
v -0.001773 0.004322 -0.200560
v -0.000572 0.001711 0.653692
v -0.007084 -0.004801 0.672861
v -0.000572 0.001711 0.673976
v -0.007084 -0.004801 0.653692
v -0.009468 -0.013698 0.671426
v -0.009468 -0.013698 0.653692
v -0.007084 -0.022594 0.653692
v -0.007084 -0.022594 0.672861
v -0.000572 -0.029106 0.653692
v -0.000572 -0.029106 0.673976
v 0.008324 -0.031489 0.653692
v 0.008324 -0.031489 0.673976
v 0.017220 0.001711 0.673976
v 0.017220 0.001711 0.653692
v 0.008324 0.004095 0.653692
v 0.008324 0.004095 0.673976
v -0.039231 0.023804 -0.177127
v -0.043282 0.009878 -0.199086
v -0.043280 0.023806 -0.199316
v -0.039234 0.009878 -0.176912
v -0.074163 0.009878 -0.230253
v -0.104973 0.009878 -0.296077
v -0.091980 0.009878 -0.233203
v -0.104973 0.009878 -0.234440
v -0.120383 0.009878 -0.238569
v -0.135792 0.009878 -0.265258
v -0.131663 0.009878 -0.249849
v -0.131663 0.009878 -0.280668
v -0.120383 0.009878 -0.291948
v -0.019120 0.009878 -0.296077
v -0.063554 0.009878 -0.222995
v -0.055548 0.009878 -0.217723
v -0.043282 0.009878 -0.199086
v -0.023360 0.009878 -0.154166
v -0.019120 0.009878 -0.117565
v -0.023360 0.009878 -0.117565
v -0.039234 0.009878 -0.176912
v -0.039396 0.009878 -0.154166
v 0.028519 -0.013167 0.653692
v 0.028519 -0.037640 0.628755
v 0.028519 -0.029715 0.620830
v 0.028519 -0.026814 0.610005
v 0.028519 -0.058823 0.653692
v 0.028519 -0.048464 0.631655
v 0.028519 -0.058823 0.631655
v 0.028519 -0.013167 -0.200560
v 0.028519 -0.026814 -0.200560
v 0.025813 -0.003069 0.653692
v 0.025813 -0.003069 -0.200560
v 0.018421 0.004322 -0.200560
v 0.018421 0.004322 0.653692
v 0.008324 0.007028 -0.200560
v 0.008324 0.007028 0.653692
v -0.001773 0.004322 -0.200560
v -0.001773 0.004322 0.653692
v -0.120732 -0.012891 -0.292553
v -0.120732 -0.012891 -0.237963
v -0.132268 -0.012891 -0.249500
v -0.132268 -0.012891 -0.281017
v -0.136491 -0.012891 -0.265258
v -0.104973 -0.012891 -0.296776
v -0.104973 -0.012891 -0.233741
v -0.091978 -0.012891 -0.232571
v -0.074162 -0.012891 -0.229715
v -0.019120 -0.012891 -0.296776
v -0.070136 -0.012891 -0.226961
v -0.055548 -0.012891 -0.217340
v -0.043285 -0.012891 -0.198710
v -0.023360 -0.012891 -0.154166
v -0.039239 -0.012891 -0.176560
v -0.039396 -0.012891 -0.154166
v -0.019120 -0.012891 -0.117565
v -0.023360 -0.012891 -0.117565
v 0.040008 0.010867 -0.110740
v 0.027067 0.023803 -0.110731
v 0.040008 0.023803 -0.129653
v 0.040008 0.005675 -0.095252
v 0.021880 0.023803 -0.095252
v 0.023732 -0.004801 0.672861
v 0.023732 -0.004801 0.653692
v 0.017220 0.001711 0.653692
v 0.017220 0.001711 0.673976
v 0.026116 -0.013698 0.671426
v 0.026116 -0.013698 0.653692
v 0.023732 -0.022594 0.653692
v 0.023732 -0.022594 0.672861
v 0.017220 -0.029106 0.653692
v 0.017220 -0.029106 0.673976
v 0.008324 -0.031489 0.673976
v 0.008324 -0.031489 0.653692
v -0.005232 0.023803 -0.095252
v -0.023360 0.005675 -0.095252
v -0.010419 0.023803 -0.110731
v -0.023360 0.010867 -0.110740
v -0.023360 0.023803 -0.129653
v 0.072197 -0.026814 -0.217107
v 0.059928 0.023806 -0.199316
v 0.072195 0.023807 -0.217956
v -0.043285 -0.012891 -0.198710
v -0.055549 -0.026814 -0.217107
v -0.055548 -0.012891 -0.217340
v -0.070136 -0.012891 -0.226961
v -0.043287 -0.026814 -0.198481
v -0.074161 -0.026814 -0.229387
v -0.074162 -0.012891 -0.229715
v -0.091977 -0.026814 -0.232185
v -0.091978 -0.012891 -0.232571
v -0.104973 -0.026814 -0.233313
v -0.104973 -0.012891 -0.233741
v -0.039239 -0.012891 -0.176560
v -0.039242 -0.026814 -0.176344
v -0.039307 -0.026814 -0.167025
v -0.039396 -0.013954 -0.154166
v -0.039396 -0.012891 -0.154166
v 0.040008 -0.013954 -0.154166
v 0.055955 -0.026814 -0.167025
v 0.040008 -0.026814 -0.167025
v 0.055955 -0.026814 -0.167025
v 0.040008 -0.013954 -0.154166
v 0.056044 -0.013954 -0.154166
v -0.023360 -0.013954 -0.154166
v -0.039307 -0.026814 -0.167025
v -0.039396 -0.013954 -0.154166
v -0.023360 -0.026814 -0.167025
v 0.040008 0.023802 -0.167025
v 0.055952 0.023803 -0.167025
v 0.040008 0.010941 -0.154166
v 0.056044 0.010941 -0.154166
v -0.039304 0.023803 -0.167025
v -0.023360 0.023802 -0.167025
v -0.023360 0.010941 -0.154166
v -0.039396 0.010941 -0.154166
v 0.090813 0.038173 -0.230921
v 0.108084 0.042167 -0.238058
v 0.108629 0.038174 -0.233987
v 0.089273 0.042167 -0.234803
v 0.120896 0.042167 -0.239374
v 0.121621 0.038174 -0.235310
v 0.070904 0.042167 -0.222208
v 0.072022 0.038173 -0.218067
v 0.070904 0.042167 -0.222208
v 0.068175 0.038173 -0.218427
v -0.091436 0.042167 -0.238058
v -0.074165 0.038173 -0.230921
v -0.091981 0.038174 -0.233987
v -0.072625 0.042167 -0.234803
v -0.104248 0.042167 -0.239374
v -0.104973 0.038174 -0.235310
v -0.054256 0.042167 -0.222208
v -0.055374 0.038173 -0.218067
v -0.054256 0.042167 -0.222208
v -0.051527 0.038173 -0.218427
v -0.043902 0.042167 -0.234197
v -0.019645 0.038172 -0.250229
v -0.040702 0.038172 -0.231782
v -0.021419 0.042167 -0.253895
v 0.008324 0.038172 -0.256787
v 0.008324 0.042167 -0.260869
v -0.054256 0.042167 -0.222208
v -0.051527 0.038173 -0.218427
v -0.072625 0.042167 -0.234803
v -0.074165 0.038173 -0.230921
v 0.060550 0.042167 -0.234197
v 0.036293 0.038172 -0.250229
v 0.038067 0.042167 -0.253895
v 0.008324 0.038172 -0.256787
v 0.008324 0.042167 -0.260869
v 0.057350 0.038172 -0.231782
v 0.070904 0.042167 -0.222208
v 0.068175 0.038173 -0.218427
v 0.090813 0.038173 -0.230921
v 0.089273 0.042167 -0.234803
v -0.023360 0.010941 -0.154166
v -0.039396 0.009878 -0.154166
v -0.039396 0.010941 -0.154166
v -0.023360 0.009878 -0.154166
v -0.039396 -0.012891 -0.154166
v -0.023360 -0.012891 -0.154166
v -0.023360 -0.013954 -0.154166
v -0.039396 -0.013954 -0.154166
v 0.056044 0.010941 -0.154166
v 0.056044 -0.013954 -0.154166
v 0.040008 0.010941 -0.154166
v 0.040008 -0.013954 -0.154166
v -0.043280 0.023806 -0.199316
v -0.055548 0.009878 -0.217723
v -0.055547 0.023807 -0.217956
v -0.043282 0.009878 -0.199086
v -0.063554 0.009878 -0.222995
v -0.074163 0.009878 -0.230253
v -0.074165 0.038173 -0.230921
v -0.055374 0.038173 -0.218067
v -0.091980 0.009878 -0.233203
v -0.091981 0.038174 -0.233987
v -0.104973 0.009878 -0.234440
v -0.104973 0.038174 -0.235310
v 0.028519 -0.013167 -0.200560
v -0.001773 0.004322 -0.200560
v 0.018421 0.004322 -0.200560
v 0.008324 0.007028 -0.200560
v 0.025813 -0.003069 -0.200560
v -0.011871 -0.013167 -0.200560
v -0.009165 -0.003069 -0.200560
v 0.028519 -0.026814 -0.200560
v -0.011871 -0.026814 -0.200560
v -0.051527 0.038173 -0.218427
v -0.051649 0.023807 -0.218346
v -0.055374 0.038173 -0.218067
v -0.055547 0.023807 -0.217956
v 0.072022 0.038173 -0.218067
v 0.068297 0.023807 -0.218346
v 0.068175 0.038173 -0.218427
v 0.072195 0.023807 -0.217956
v -0.051527 0.038173 -0.218427
v -0.040756 0.023806 -0.231808
v -0.051649 0.023807 -0.218346
v -0.040702 0.038172 -0.231782
v -0.019677 0.023802 -0.250276
v -0.019645 0.038172 -0.250229
v 0.008324 0.023801 -0.256842
v 0.008324 0.038172 -0.256787
v 0.036293 0.038172 -0.250229
v 0.036325 0.023802 -0.250276
v 0.057350 0.038172 -0.231782
v 0.057404 0.023806 -0.231808
v 0.068175 0.038173 -0.218427
v 0.068297 0.023807 -0.218346
v 0.021880 0.023802 0.631535
v -0.002561 0.027380 0.634359
v -0.005232 0.023802 0.631535
v 0.019209 0.027380 0.634359
v 0.040008 -0.037640 0.628755
v 0.028519 -0.037640 0.628755
v 0.028519 -0.048464 0.631655
v 0.040008 -0.048464 0.631655
v 0.040008 -0.058823 0.631655
v 0.028519 -0.058823 0.631655
v -0.011871 -0.048464 0.631655
v -0.023360 -0.048464 0.631655
v -0.011871 -0.058823 0.631655
v -0.023360 -0.058823 0.631655
v -0.011871 -0.058823 0.653692
v 0.008324 -0.031489 0.653692
v -0.000572 -0.029106 0.653692
v -0.007084 -0.022594 0.653692
v 0.028519 -0.058823 0.653692
v -0.011871 -0.013167 0.653692
v 0.017220 -0.029106 0.653692
v -0.009468 -0.013698 0.653692
v 0.023732 -0.022594 0.653692
v -0.007084 -0.004801 0.653692
v 0.028519 -0.013167 0.653692
v -0.009165 -0.003069 0.653692
v 0.026116 -0.013698 0.653692
v -0.000572 0.001711 0.653692
v 0.023732 -0.004801 0.653692
v -0.001773 0.004322 0.653692
v 0.025813 -0.003069 0.653692
v 0.008324 0.004095 0.653692
v 0.017220 0.001711 0.653692
v 0.008324 0.007028 0.653692
v 0.018421 0.004322 0.653692
v -0.023838 0.010575 -0.265965
v 0.030648 0.004252 -0.279535
v 0.016988 0.017205 -0.243573
v -0.011533 -0.013190 -0.280873
v -0.023782 -0.031114 -0.273499
v 0.028567 -0.014943 -0.287948
v 0.032699 -0.031766 -0.285566
v 0.080363 -0.016595 -0.292235
v 0.081884 -0.029860 -0.289896
v 0.078761 -0.001225 -0.285752
v 0.125285 -0.015989 -0.279811
v 0.126736 -0.026557 -0.277927
v 0.166201 -0.014728 -0.258429
v 0.123774 -0.004170 -0.274935
v 0.165021 -0.005852 -0.255018
v 0.124409 -0.001105 -0.260389
v 0.164956 -0.003705 -0.244137
v 0.125320 -0.002519 -0.246561
v 0.082546 0.003166 -0.266712
v 0.044440 0.010774 -0.255746
v 0.086688 0.002183 -0.248605
v 0.058333 0.009767 -0.233561
v 0.086252 -0.006245 -0.246493
v 0.060843 -0.002614 -0.231872
v 0.085897 -0.016779 -0.253202
v 0.124961 -0.009489 -0.244689
v 0.164862 -0.011845 -0.232547
v 0.124664 -0.017709 -0.249576
v 0.125838 -0.024372 -0.264109
v 0.164688 -0.018943 -0.236042
v 0.166109 -0.022867 -0.246841
v 0.195902 -0.018260 -0.206819
v 0.218718 -0.016597 -0.175150
v 0.198925 -0.021077 -0.215510
v 0.195280 -0.011759 -0.203810
v 0.195797 -0.005616 -0.204908
v 0.217306 -0.010901 -0.172587
v 0.218122 -0.005527 -0.173536
v 0.222000 -0.010025 -0.150018
v 0.222767 -0.005605 -0.150517
v 0.223650 -0.014709 -0.151647
v 0.220730 -0.009207 -0.125816
v 0.222750 -0.012697 -0.130021
v 0.221861 -0.006045 -0.129433
v 0.221687 -0.010778 -0.112841
v 0.221180 -0.007437 -0.112747
v 0.225783 -0.005557 -0.127952
v 0.221270 -0.009063 -0.101348
v 0.226206 -0.007741 -0.114283
v 0.226713 -0.011266 -0.114168
v 0.231173 -0.006399 -0.134016
v 0.232022 -0.010156 -0.130185
v 0.234552 -0.011396 -0.161070
v 0.232303 -0.013976 -0.133691
v 0.234172 -0.016460 -0.160054
v 0.226969 -0.013807 -0.128049
v 0.229062 -0.016746 -0.155924
v 0.223475 -0.019088 -0.182064
v 0.227889 -0.018709 -0.188679
v 0.201682 -0.020666 -0.223802
v 0.227978 -0.012556 -0.190044
v 0.225840 -0.006080 -0.187897
v 0.201183 -0.013630 -0.225142
v 0.199547 -0.006234 -0.222375
v 0.197539 -0.004311 -0.213443
v 0.221809 -0.004369 -0.180568
v 0.227490 -0.004675 -0.155164
v 0.232515 -0.006068 -0.159957
v 0.167338 -0.023206 -0.257141
v 0.165081 -0.005145 -0.233752
v 0.084069 -0.026006 -0.272015
v 0.044970 -0.028331 -0.264073
v 0.016528 -0.030221 -0.254482
v 0.057139 -0.017369 -0.240978
v 0.022955 -0.018667 -0.222028
v 0.045049 0.000175 -0.217183
v 0.022564 0.016902 -0.208167
v 0.056721 -0.034184 -0.253381
v 0.003372 -0.027641 -0.270815
v 0.014376 -0.040141 -0.233798
v 0.045698 -0.010556 -0.269466
v 0.057565 0.007383 -0.261524
v 0.006207 -0.008596 -0.279349
v 0.002070 0.008294 -0.277513
v -0.045147 -0.006601 -0.287265
v -0.046708 0.006711 -0.285237
v -0.044139 -0.021880 -0.280457
v -0.090830 -0.006657 -0.278000
v -0.092314 0.003950 -0.276380
v -0.133146 -0.007262 -0.259511
v -0.089768 -0.018411 -0.272855
v -0.132287 -0.016093 -0.255893
v -0.091443 -0.021244 -0.258344
v -0.132999 -0.018070 -0.245003
v -0.093303 -0.019608 -0.244636
v -0.049282 -0.025944 -0.261664
v -0.012102 -0.033683 -0.247953
v -0.054666 -0.024647 -0.243908
v -0.027497 -0.032221 -0.226809
v -0.054303 -0.016191 -0.241896
v -0.030007 -0.019795 -0.225485
v -0.053386 -0.005766 -0.248722
v -0.093013 -0.012613 -0.242848
v -0.133640 -0.009752 -0.233559
v -0.092301 -0.004472 -0.247825
v -0.092400 0.001973 -0.262503
v -0.133159 -0.002711 -0.237138
v -0.133788 0.001056 -0.248067
v -0.166338 -0.002692 -0.210159
v -0.191319 -0.003682 -0.180139
v -0.168723 0.000013 -0.219081
v -0.165986 -0.009151 -0.207017
v -0.166480 -0.015305 -0.208056
v -0.190141 -0.009348 -0.177398
v -0.190937 -0.014730 -0.178322
v -0.196404 -0.009836 -0.155202
v -0.197174 -0.014257 -0.155687
v -0.197894 -0.005165 -0.157012
v -0.196831 -0.010287 -0.130960
v -0.198521 -0.006848 -0.135348
v -0.197736 -0.013497 -0.134600
v -0.198676 -0.008508 -0.118109
v -0.198206 -0.011850 -0.117930
v -0.201756 -0.013930 -0.133390
v -0.199077 -0.010047 -0.106590
v -0.203111 -0.011530 -0.119817
v -0.203593 -0.008000 -0.119791
v -0.206702 -0.013139 -0.139827
v -0.207782 -0.009317 -0.136121
v -0.208143 -0.008537 -0.167123
v -0.207784 -0.005550 -0.139695
v -0.207789 -0.003461 -0.166159
v -0.202858 -0.005674 -0.133693
v -0.202977 -0.003152 -0.161686
v -0.195560 -0.001261 -0.187404
v -0.199506 -0.001707 -0.194305
v -0.170899 -0.000505 -0.227539
v -0.199555 -0.007880 -0.195581
v -0.197630 -0.014338 -0.193193
v -0.170371 -0.007565 -0.228735
v -0.168998 -0.014930 -0.225750
v -0.167635 -0.016729 -0.216672
v -0.194136 -0.015968 -0.185576
v -0.201570 -0.015222 -0.160638
v -0.206236 -0.013863 -0.165791
v -0.134294 0.001244 -0.258433
v -0.133834 -0.016468 -0.234675
v -0.050169 0.003153 -0.267497
v -0.011699 0.005292 -0.256880
v 0.016022 0.007104 -0.245356
v -0.025546 -0.005213 -0.234529
v 0.007244 -0.003892 -0.213261
v -0.015302 -0.022481 -0.209688
v 0.006349 -0.039243 -0.198876
vn 0.4998 0.0307 0.8656
vn 0.8656 0.0307 0.4998
vn 0.1764 0.0298 0.9839
vn 0.1774 0.0298 0.9837
vn 0.9995 0.0307 -0.0000
vn 0.1285 0.0269 0.9913
vn 0.9995 0.0308 0.0003
vn 0.8656 0.0307 -0.4998
vn 0.3670 0.0220 0.9300
vn 0.4998 0.0307 -0.8656
vn 0.3699 0.0210 0.9288
vn 0.1304 0.0307 -0.9910
vn 0.6612 0.0142 0.7501
vn 0.5574 0.0171 0.8300
vn 0.7112 0.0137 0.7029
vn 0.1304 0.0308 -0.9910
vn 0.9288 0.0062 0.3705
vn 0.7115 0.0132 0.7026
vn 0.9276 0.0063 0.3735
vn 0.9962 0.0016 0.0875
vn 0.9963 0.0015 0.0858
vn 1.0000 0.0005 -0.0072
vn 1.0000 0.0003 -0.0073
vn 1.0000 0.0004 -0.0073
vn -0.0003 0.0307 -0.9995
vn -0.0000 0.0306 -0.9995
vn -0.0004 0.0309 -0.9995
vn -0.1304 0.0308 -0.9910
vn 0.0024 0.8815 0.4722
vn -0.0024 0.8814 0.4723
vn -0.0005 0.9650 0.2624
vn -0.0000 0.6195 0.7850
vn 0.0073 0.9684 0.2495
vn 0.0074 0.9683 0.2495
vn -0.0903 0.7206 -0.6874
vn 0.0903 0.7206 -0.6874
vn 0.0904 0.7206 -0.6874
vn 0.3420 0.7295 -0.5924
vn 0.5924 0.7295 -0.3420
vn 0.6840 0.7294 -0.0000
vn 0.5924 0.7295 0.3420
vn 0.3420 0.7295 0.5924
vn 0.1255 0.7184 0.6842
vn 0.0952 0.7166 0.6909
vn 0.0952 0.7165 0.6911
vn -0.6840 0.7294 -0.0000
vn -0.5924 0.7295 -0.3420
vn -0.6842 0.7293 0.0003
vn -0.5924 0.7295 0.3420
vn -0.3425 0.7292 -0.5925
vn -0.3420 0.7295 -0.5924
vn -0.0904 0.7206 -0.6874
vn -0.3423 0.7293 0.5925
vn -0.3420 0.7295 0.5924
vn -0.1255 0.7184 0.6842
vn -0.0952 0.7166 0.6909
vn -0.0952 0.7165 0.6911
vn -0.0005 0.0005 -1.0000
vn -0.0074 0.9683 0.2495
vn -0.0073 0.9684 0.2494
vn -0.0024 0.8815 0.4722
vn -0.8656 0.0307 0.4998
vn -0.4998 0.0307 0.8656
vn -0.1784 0.0298 0.9835
vn -0.1793 0.0298 0.9833
vn -0.9995 0.0308 0.0004
vn -0.9995 0.0307 -0.0000
vn -0.8656 0.0307 -0.4998
vn -0.4998 0.0307 -0.8656
vn -0.1305 0.0308 -0.9910
vn -0.1734 0.0298 0.9844
vn -0.1744 0.0298 0.9842
vn -0.0005 -1.0000 -0.0005
vn -0.0000 -1.0000 -0.0000
vn 0.0376 0.0064 0.9993
vn 0.2770 0.0034 0.9609
vn 0.4274 0.0015 0.9041
vn -0.0005 0.0064 1.0000
vn 0.7578 -0.0000 0.6525
vn 0.5156 -0.0005 0.8568
vn 0.6881 -0.0000 0.7256
vn 0.4305 -0.0024 0.9026
vn 0.2761 -0.0054 0.9611
vn 0.5158 0.0001 0.8567
vn 0.0386 -0.0103 0.9992
vn -0.0005 -0.0102 0.9999
vn 0.9765 -0.0000 0.2154
vn 0.9808 -0.0005 0.1950
vn 1.0000 0.0005 0.0005
vn -0.0005 1.0000 0.0005
vn -0.0000 1.0000 -0.0000
vn -0.9962 0.0015 0.0874
vn -0.9963 0.0015 0.0855
vn -1.0000 0.0001 -0.0072
vn -1.0000 0.0005 -0.0073
vn -1.0000 -0.0000 -0.0071
vn -0.9808 -0.0005 0.1950
vn -0.7579 -0.0004 0.6524
vn -0.9765 -0.0000 0.2154
vn -1.0000 0.0005 0.0005
vn -0.6881 -0.0000 0.7256
vn -1.0000 -0.0000 -0.0000
vn -0.5157 -0.0000 0.8568
vn -0.4274 0.0015 0.9041
vn -0.2770 0.0034 0.9609
vn -0.4305 -0.0024 0.9026
vn -0.0376 0.0064 0.9993
vn -0.2761 -0.0054 0.9611
vn -0.5158 0.0001 0.8567
vn -0.0386 -0.0103 0.9992
vn 0.7071 0.7071 -0.0000
vn 0.7031 0.7030 0.1070
vn 0.7314 0.6820 -0.0000
vn 0.7030 0.7030 0.1070
vn 0.7339 0.6792 0.0003
vn 0.8013 0.5982 -0.0000
vn -0.0003 -0.8661 -0.4999
vn -0.0000 -0.9914 -0.1305
vn -0.0000 -0.9915 -0.1304
vn -0.0000 -0.9915 -0.1305
vn -0.0004 -0.9914 -0.1307
vn -0.0005 -0.9914 -0.1305
vn -0.0000 -0.8660 -0.5000
vn -0.0004 -0.4998 -0.8661
vn -0.0000 -0.1305 -0.9914
vn -0.0005 -0.9915 -0.1304
vn -0.0003 1.0000 0.0003
vn 0.0001 1.0000 -0.0000
vn -0.0006 1.0000 0.0006
vn -0.0004 1.0000 0.0004
vn -0.0001 1.0000 -0.0000
vn -0.0001 1.0000 0.0001
vn -0.7071 0.7071 -0.0000
vn -0.7339 0.6792 0.0005
vn -0.7071 0.7071 0.0005
vn -0.7311 0.6823 0.0005
vn -0.7030 0.7030 0.1070
vn -0.7031 0.7030 0.1070
vn -0.8013 0.5982 -0.0000
vn -0.7340 0.6792 0.0005
vn -0.8011 0.5985 -0.0000
vn -0.7071 -0.7071 -0.0000
vn -0.7071 -0.7071 -0.0007
vn -0.7071 -0.7071 -0.0006
vn 0.4995 -0.8663 -0.0000
vn -0.0001 -1.0000 -0.0000
vn 0.4909 -0.8712 -0.0000
vn -0.7071 0.7071 0.0007
vn 0.9914 -0.1305 -0.0000
vn 0.8661 -0.4998 -0.0004
vn 0.8662 -0.4998 -0.0005
vn 0.4999 -0.8661 -0.0000
vn 0.4913 -0.8710 -0.0005
vn 0.8539 -0.5204 -0.0000
vn 0.4998 -0.8661 -0.0000
vn 0.8660 -0.5000 -0.0000
vn 0.8660 0.5000 -0.0000
vn 0.8539 0.5204 -0.0000
vn 0.5000 0.8660 -0.0000
vn 0.4911 0.8711 0.0006
vn -0.0002 1.0000 -0.0000
vn -0.0003 1.0000 -0.0000
vn -0.0005 -1.0000 -0.0000
vn -0.4995 -0.8663 -0.0000
vn -0.4909 -0.8712 -0.0000
vn -0.0008 -1.0000 -0.0000
vn -0.9276 0.0064 0.3735
vn -0.9287 0.0064 0.3707
vn -0.9962 0.0015 0.0875
vn -0.9963 0.0015 0.0856
vn -0.9914 -0.1305 0.0004
vn -0.9914 -0.1305 -0.0000
vn -0.8660 -0.5000 -0.0000
vn -0.4998 -0.8661 -0.0004
vn 0.4997 -0.8662 -0.0000
vn 0.6366 0.6365 0.4354
vn 0.6717 0.6717 0.3127
vn 0.6715 0.6716 0.3132
vn 0.7030 0.7030 0.1072
vn -0.4999 -0.8661 -0.0000
vn -0.8539 -0.5204 -0.0000
vn -0.4911 -0.8711 -0.0005
vn -0.8660 0.5000 -0.0000
vn -0.8539 0.5204 -0.0000
vn -0.5000 0.8660 -0.0000
vn -0.4912 0.8710 0.0006
vn -0.0008 1.0000 -0.0000
vn -0.6717 0.6717 0.3127
vn -0.7030 0.7030 0.1072
vn -0.7030 0.7030 0.1071
vn -0.6716 0.6717 0.3128
vn -0.6366 0.6365 0.4354
vn 0.9275 0.0091 0.3737
vn 0.7116 0.0132 0.7024
vn -0.7070 0.0122 0.7071
vn -0.7088 0.0121 0.7053
vn -0.9274 0.0063 0.3740
vn -0.5523 0.0142 0.8335
vn -0.9288 0.0062 0.3705
vn -0.3638 0.0195 0.9313
vn -0.3618 0.0200 0.9320
vn -0.1224 0.0268 0.9921
vn -0.1226 0.0270 0.9921
vn -0.9961 0.0016 0.0877
vn -0.9963 0.0015 0.0859
vn -1.0000 0.0001 -0.0070
vn -1.0000 0.0005 -0.0074
vn -0.0000 -0.7071 0.7071
vn -0.0000 0.7070 0.7072
vn -0.0007 0.7071 0.7071
vn -0.0000 0.7071 0.7072
vn 0.0005 0.7071 0.7071
vn 0.0952 0.7166 0.6910
vn 0.0952 0.7163 0.6913
vn 0.2602 0.7225 0.6405
vn 0.2595 0.7227 0.6406
vn 0.1716 0.7323 0.6590
vn 0.2606 0.7225 0.6404
vn -0.0630 0.7982 0.5990
vn -0.3246 0.7466 0.5807
vn 0.1714 0.7323 0.6590
vn -0.0630 0.7982 0.5991
vn -0.0953 0.7166 0.6910
vn -0.2602 0.7225 0.6405
vn -0.0953 0.7163 0.6913
vn -0.2595 0.7227 0.6406
vn -0.2604 0.7225 0.6404
vn -0.1716 0.7323 0.6590
vn 0.0630 0.7983 0.5990
vn -0.1713 0.7323 0.6591
vn 0.3247 0.7466 0.5806
vn 0.0630 0.7982 0.5991
vn 0.4968 0.7156 0.4910
vn 0.3222 0.7137 0.6219
vn 0.4997 0.7176 0.4851
vn 0.3188 0.7138 0.6236
vn 0.0005 0.7149 0.6993
vn 0.0005 0.7149 0.6992
vn 0.0630 0.7982 0.5990
vn 0.3249 0.7466 0.5806
vn -0.3188 0.7138 0.6236
vn -0.3222 0.7137 0.6219
vn -0.4997 0.7176 0.4851
vn 0.0004 0.7149 0.6992
vn -0.4968 0.7157 0.4909
vn -0.0630 0.7983 0.5990
vn -0.3249 0.7466 0.5806
vn 0.2604 0.7225 0.6404
vn -0.0005 -0.0005 1.0000
vn -0.6637 0.0151 0.7479
vn -0.7128 0.0142 0.7012
vn -0.9275 0.0090 0.3738
vn -0.9287 0.0090 0.3708
vn -0.5615 0.0181 0.8273
vn -0.3735 0.0220 0.9274
vn -0.3707 0.0220 0.9285
vn -0.1322 0.0269 0.9909
vn -0.1324 0.0269 0.9908
vn -0.1783 0.0298 0.9835
vn 0.0963 0.0054 0.9953
vn 0.0962 0.0054 0.9953
vn 0.0961 0.0054 0.9954
vn -0.0963 0.0054 0.9953
vn -0.0962 0.0054 0.9953
vn 0.7770 -0.0034 0.6295
vn 0.7207 -0.0037 0.6932
vn 0.7771 -0.0035 0.6293
vn 0.7207 -0.0033 0.6933
vn 0.4573 -0.0039 0.8893
vn 0.4572 -0.0039 0.8894
vn -0.0005 -0.0034 1.0000
vn -0.4572 -0.0039 0.8894
vn -0.4573 -0.0039 0.8893
vn -0.7207 -0.0033 0.6933
vn -0.7207 -0.0037 0.6932
vn -0.7771 -0.0035 0.6293
vn -0.7771 -0.0033 0.6294
vn -0.0000 0.6195 -0.7850
vn -0.0000 -0.5000 -0.8660
vn -0.0006 -0.1305 -0.9914
vn -0.0000 -0.1305 -0.9915
vn -0.0000 -0.1304 -0.9915
vn -0.0190 0.7779 -0.6281
vn -0.1366 0.1182 -0.9836
vn -0.1853 0.1268 -0.9745
vn -0.0568 0.7550 -0.6532
vn 0.1307 0.9752 -0.1785
vn 0.1119 0.9744 -0.1949
vn -0.0426 -0.8775 -0.4776
vn -0.1138 -0.7439 -0.6586
vn 0.0815 0.1233 -0.9890
vn 0.0925 -0.8777 -0.4703
vn 0.0966 0.7697 -0.6311
vn 0.3506 0.1474 -0.9249
vn 0.2229 -0.8866 -0.4052
vn 0.2407 0.7949 -0.5569
vn 0.5602 0.1640 -0.8120
vn 0.3455 -0.8550 -0.3869
vn 0.3541 0.7972 -0.4890
vn 0.1089 0.9911 -0.0764
vn 0.1346 0.9799 -0.1470
vn 0.0893 0.9949 -0.0465
vn -0.2565 0.8422 0.4742
vn -0.0242 0.8500 0.5262
vn 0.2538 0.8614 0.4400
vn 0.4218 0.8401 0.3409
vn 0.2155 -0.2015 0.9555
vn 0.5253 -0.1975 0.8277
vn -0.1887 -0.1530 0.9700
vn 0.0901 -0.7931 0.6024
vn 0.2811 -0.7965 0.5354
vn -0.1414 -0.7742 0.6169
vn -0.3085 -0.7907 0.5288
vn -0.5145 -0.1260 0.8482
vn -0.0326 -0.9650 0.2604
vn 0.0510 -0.9601 0.2749
vn -0.0477 -0.9840 0.1717
vn -0.4413 -0.7905 0.4247
vn -0.7524 -0.1036 0.6505
vn -0.0592 -0.9914 0.1169
vn -0.5100 -0.8126 0.2822
vn -0.9163 -0.1005 0.3878
vn -0.0350 -0.9939 0.1042
vn -0.4318 0.8206 0.3743
vn -0.5060 0.8356 0.2139
vn -0.5836 -0.8037 0.1162
vn -0.9920 -0.0994 0.0779
vn -0.5508 0.8329 0.0539
vn -0.9945 -0.1045 -0.0105
vn -0.5535 0.8328 0.0106
vn -0.5929 -0.8039 0.0465
vn -0.5248 -0.8420 0.1251
vn -0.4928 0.8587 0.1403
vn 0.0726 0.9933 0.0904
vn -0.0237 0.0375 0.9990
vn 0.5450 0.7933 0.2715
vn 0.5199 -0.7818 0.3443
vn 0.9653 0.1370 0.2225
vn 0.5970 0.7971 0.0905
vn 0.9848 0.1521 -0.0838
vn 0.6059 0.7938 -0.0522
vn 0.5905 -0.7906 0.1618
vn 0.6060 -0.7952 0.0216
vn -0.0594 -0.9895 0.1319
vn -0.0604 -0.9926 0.1055
vn 0.5418 -0.8161 -0.2009
vn 0.4338 -0.8377 -0.3317
vn 0.8874 0.1576 -0.4331
vn 0.7307 0.1638 -0.6627
vn 0.5305 0.8066 -0.2608
vn 0.4373 0.8079 -0.3950
vn 0.0418 0.9989 -0.0193
vn 0.0610 0.9981 -0.0036
vn 0.0525 0.9984 0.0230
vn 0.1113 -0.9678 0.2258
vn 0.0960 -0.9817 0.1642
vn 0.2961 -0.8313 0.4704
vn 0.6139 -0.0737 0.7860
vn 0.3532 0.9163 0.1890
vn 0.0558 -0.7877 -0.6136
vn 0.2037 -0.1346 -0.9697
vn 0.2516 -0.1434 -0.9571
vn 0.0954 -0.7655 -0.6363
vn -0.1267 -0.9768 -0.1726
vn -0.1068 -0.9764 -0.1875
vn 0.0837 0.8696 -0.4865
vn 0.1661 0.7326 -0.6601
vn -0.0134 -0.1381 -0.9903
vn -0.0516 0.8709 -0.4887
vn -0.0593 -0.7786 -0.6247
vn -0.2866 -0.1590 -0.9448
vn -0.1862 0.8819 -0.4331
vn -0.2085 -0.8015 -0.5605
vn -0.5037 -0.1722 -0.8465
vn -0.3099 0.8516 -0.4228
vn -0.3263 -0.8019 -0.5005
vn -0.1122 -0.9913 -0.0690
vn -0.1328 -0.9810 -0.1413
vn -0.0948 -0.9948 -0.0377
vn 0.2152 -0.8367 0.5036
vn -0.0201 -0.8419 0.5393
vn -0.2916 -0.8524 0.4341
vn -0.4521 -0.8314 0.3231
vn -0.2798 0.2180 0.9350
vn -0.5799 0.2145 0.7859
vn 0.1220 0.1666 0.9784
vn -0.1248 0.8031 0.5827
vn -0.3105 0.8069 0.5025
vn 0.1050 0.7826 0.6136
vn 0.2780 0.7963 0.5372
vn 0.4553 0.1351 0.8800
vn 0.0231 0.9686 0.2476
vn -0.0614 0.9646 0.2563
vn 0.0444 0.9861 0.1599
vn 0.4177 0.7935 0.4426
vn 0.7061 0.1078 0.6999
vn 0.0598 0.9926 0.1060
vn 0.4964 0.8128 0.3049
vn 0.8879 0.0993 0.4492
vn 0.0365 0.9951 0.0915
vn 0.3973 -0.8181 0.4158
vn 0.4824 -0.8361 0.2611
vn 0.5812 0.8008 0.1446
vn 0.9850 0.0927 0.1454
vn 0.5381 -0.8364 0.1047
vn 0.9937 0.0964 0.0574
vn 0.5439 -0.8369 0.0617
vn 0.5955 0.7998 0.0757
vn 0.5223 0.8397 0.1488
vn 0.4740 -0.8604 0.1872
vn -0.0876 -0.9911 0.1000
vn -0.0464 -0.0221 0.9987
vn -0.5697 -0.7846 0.2447
vn -0.5357 0.7911 0.2954
vn -0.9796 -0.1259 0.1566
vn -0.6091 -0.7908 0.0605
vn -0.9779 -0.1456 -0.1501
vn -0.6079 -0.7897 -0.0825
vn -0.5931 0.7978 0.1083
vn -0.5990 0.8001 -0.0326
vn 0.0589 0.9909 0.1209
vn 0.0618 0.9936 0.0946
vn -0.5192 0.8171 -0.2504
vn -0.4021 0.8358 -0.3738
vn -0.8565 -0.1573 -0.4916
vn -0.6842 -0.1683 -0.7096
vn -0.5181 -0.8064 -0.2851
vn -0.4160 -0.8105 -0.4124
vn -0.0493 -0.9988 -0.0072
vn -0.0696 -0.9975 0.0071
vn -0.0629 -0.9974 0.0342
vn -0.1181 0.9720 0.2029
vn -0.0984 0.9849 0.1424
vn -0.3207 0.8408 0.4361
vn -0.6665 0.0908 0.7400
vn -0.3737 -0.9104 0.1775
vt 0.916667 0.500000
vt 0.833333 0.500000
vt 0.916667 0.971055
vt 1.000000 0.500000
vt 0.833333 0.971055
vt 1.000000 0.971055
vt 0.750000 0.500000
vt 1.000000 0.970838
vt 0.750000 0.971055
vt 1.000000 0.499786
vt 0.666667 0.971055
vt 1.000000 0.970341
vt 0.666667 0.500000
vt 0.583333 0.500000
vt 0.583333 0.971055
vt 1.000000 0.499293
vt 0.500000 0.500000
vt 1.000000 0.818461
vt 1.000000 0.959108
vt 0.500000 0.971055
vt 1.000000 0.500004
vt 1.000000 0.869636
vt 1.000000 0.869617
vt 1.000000 0.775696
vt 1.000000 0.869610
vt 1.000000 0.593906
vt 0.500000 0.750734
vt 0.500000 0.616144
vt 0.500000 0.765956
vt 0.500000 0.600922
vt 0.696518 0.505613
vt 0.606547 0.428482
vt 0.597284 0.450621
vt 0.536707 0.999985
vt 0.600382 0.999989
vt 0.673962 0.999991
vt 0.748702 0.999992
vt 0.823298 0.999993
vt 0.896341 0.999993
vt 0.957971 0.999966
vt 0.962963 0.999780
vt 0.398058 0.500000
vt 0.375000 0.488570
vt 0.601942 0.500000
vt 0.375000 0.496214
vt 0.625000 0.488570
vt 0.625000 0.496214
vt 0.916667 0.765956
vt 1.000000 0.765956
vt 0.833333 0.765956
vt 0.750000 0.765956
vt 0.666667 0.765956
vt 0.583333 0.765956
vt 0.916667 0.600922
vt 0.833333 0.600922
vt 1.000000 0.600922
vt 0.750000 0.600922
vt 0.666667 0.600922
vt 0.583333 0.600922
vt 0.375000 0.505105
vt 0.329673 0.505624
vt 0.354053 0.501495
vt 0.303482 0.500000
vt 0.250000 0.500000
vt 0.329673 0.512739
vt 0.375000 0.512739
vt 0.465089 0.410097
vt 0.375000 0.428482
vt 0.479088 0.438041
vt 0.462417 0.375000
vt 0.375000 0.375000
vt 0.375000 0.500000
vt 0.498358 0.452116
vt 0.535466 0.500000
vt 0.529189 0.438816
vt 0.558461 0.410097
vt 0.625000 0.375000
vt 0.576220 0.375000
vt 0.535466 0.505105
vt 0.371116 0.513011
vt 0.370353 0.515787
vt 0.375000 0.518836
vt 0.535466 0.717441
vt 0.375000 0.750000
vt 0.438517 0.738546
vt 0.561112 0.721269
vt 0.561477 0.737493
vt 0.625000 0.725014
vt 0.624998 0.742780
vt 0.956941 0.999304
vt 0.965993 0.998602
vt 0.818905 0.999411
vt 0.681418 0.999792
vt 0.633765 0.999876
vt 1.000000 0.767930
vt 0.443769 0.724133
vt 0.375000 0.744007
vt 0.443769 0.738501
vt 0.556225 0.723269
vt 0.556225 0.737538
vt 0.625000 0.742780
vt 0.696518 0.513251
vt 0.696518 0.717441
vt 0.582637 0.501495
vt 0.661265 0.500463
vt 0.326711 0.515787
vt 0.329673 0.518836
vt 0.984949 0.500000
vt 0.568528 0.575195
vt 0.538712 0.587416
vt 0.327197 0.512913
vt 0.000000 0.000000
vt 0.625000 0.744910
vt 0.676056 0.721267
vt 0.601942 0.668935
vt 0.398058 0.669474
vt 0.628786 0.500000
vt 0.628786 0.668874
vt 0.416667 0.747740
vt 0.500000 0.747740
vt 0.500000 0.900222
vt 0.416667 0.900222
vt 0.371214 0.500000
vt 0.371214 0.669535
vt 0.494903 0.243551
vt 0.470618 0.250000
vt 0.470618 0.243551
vt 0.520281 0.242702
vt 0.577655 0.250000
vt 0.538859 0.240383
vt 0.545659 0.237215
vt 0.577655 0.000000
vt 0.545659 0.000000
vt 0.601327 0.000000
vt 0.601327 0.250000
vt 0.625000 0.250000
vt 0.625000 0.000000
vt 0.416667 0.900223
vt 0.333333 0.891841
vt 0.416667 0.747741
vt 0.333333 0.747740
vt 0.250000 0.881055
vt 0.250000 0.747740
vt 0.166667 0.747741
vt 0.166667 0.891841
vt 0.083333 0.747740
vt 0.083333 0.900222
vt 0.000000 0.747740
vt 0.000000 0.900222
vt 1.000000 0.767933
vt 0.760139 0.609394
vt 0.783565 0.668874
vt 0.728020 0.606604
vt 0.783565 0.610565
vt 0.811345 0.614471
vt 0.831681 0.625142
vt 0.839124 0.639719
vt 0.831681 0.654297
vt 0.811344 0.664968
vt 0.708893 0.599738
vt 0.694459 0.594750
vt 0.672346 0.577120
vt 0.636430 0.534624
vt 0.636430 0.500000
vt 0.665049 0.556143
vt 0.665341 0.534625
vt 0.538859 0.509617
vt 0.520281 0.507298
vt 0.577655 0.500000
vt 0.545659 0.512785
vt 0.470618 0.500000
vt 0.494903 0.506449
vt 0.470618 0.506449
vt 0.577655 0.750000
vt 0.545659 0.750000
vt 0.601327 0.500000
vt 0.601327 0.750000
vt 0.687500 0.750000
vt 0.687500 0.500000
vt 0.750000 0.750000
vt 0.875000 0.750000
vt 0.875000 0.500000
vt 0.167227 0.624812
vt 0.188025 0.613898
vt 0.188025 0.665541
vt 0.167227 0.654627
vt 0.159615 0.639719
vt 0.216435 0.669535
vt 0.216435 0.609904
vt 0.239863 0.608797
vt 0.271982 0.606095
vt 0.279240 0.603490
vt 0.305540 0.594389
vt 0.327649 0.576764
vt 0.363570 0.534625
vt 0.334942 0.555810
vt 0.334659 0.534624
vt 0.363570 0.500000
vt 0.625000 0.721267
vt 0.535466 0.719766
vt 0.625000 0.719766
vt 1.000000 0.587594
vt 1.000000 0.601675
vt 1.000000 0.589950
vt 1.000000 0.600215
vt 1.000000 0.600709
vt 1.000000 0.601671
vt 1.000000 0.593905
vt 1.000000 0.869601
vt 1.000000 0.970319
vt 1.000000 0.998342
vt 0.824557 0.999445
vt 0.696741 0.999789
vt 0.655387 0.999856
vt 0.974329 0.998682
vt 1.000000 0.730832
vt 1.000000 0.738782
vt 1.000000 0.765249
vt 1.000000 0.765742
vt 0.618657 0.812500
vt 0.618657 0.937500
vt 0.625000 0.875000
vt 0.601327 0.766747
vt 0.577655 1.000000
vt 0.601327 0.983253
vt 0.545659 1.000000
vt 1.000000 0.868793
vt 0.327197 0.512912
vt 0.540287 0.319936
vt 0.534699 0.375000
vt 0.555555 0.279626
vt 0.540287 0.430064
vt 0.576411 0.264872
vt 0.555555 0.470374
vt 0.597267 0.279626
vt 0.601327 0.266747
vt 0.576411 0.485128
vt 0.612535 0.319936
vt 0.597267 0.470374
vt 0.618657 0.312500
vt 0.601327 0.483253
vt 0.618123 0.375000
vt 0.612535 0.430064
vt 0.618657 0.437500
s 1
usemtl Material.140
f 3/1/1 2/2/2 1/3/1
f 3/1/1 1/3/1 4/4/3
f 5/5/2 1/3/1 2/2/2
f 6/6/4 4/4/3 1/3/1
f 2/2/2 7/7/5 5/5/2
f 8/8/6 4/4/3 6/6/4
f 9/9/7 5/5/2 7/7/5
f 10/10/6 4/4/3 8/8/6
f 9/9/7 7/7/5 11/11/8
f 12/12/9 10/10/6 8/8/6
f 13/13/8 11/11/8 7/7/5
f 13/13/8 14/14/10 11/11/8
f 15/15/10 11/11/8 14/14/10
f 16/16/11 10/10/6 12/12/9
f 14/14/10 17/17/12 15/15/10
f 12/12/9 18/18/13 16/16/11
f 18/18/13 12/12/9 19/19/14
f 20/4/15 16/16/11 18/18/13
f 21/20/16 15/15/10 17/17/12
f 23/21/17 20/4/18 22/22/19
f 22/22/19 24/23/20 23/21/17
f 25/4/21 23/21/17 24/23/20
f 26/24/22 25/4/21 24/23/20
f 27/25/23 26/24/22 24/23/20
f 26/24/22 28/26/24 25/4/21
f 29/4/24 25/4/21 28/26/24
f 17/17/12 30/27/25 21/20/16
f 31/28/26 30/27/25 17/17/12
f 32/29/27 21/20/16 30/27/25
f 21/20/16 32/29/27 33/20/28
f 34/29/28 33/20/28 32/29/27
f 35/30/25 31/28/26 17/17/12
f 35/30/25 17/17/12 36/17/28
f 36/17/28 37/30/28 35/30/25
f 40/31/29 39/31/30 38/7/31
f 39/31/30 40/31/29 41/31/32
f 42/31/32 41/31/32 40/31/29
f 38/7/31 43/32/33 40/31/29
f 44/33/34 40/31/29 43/32/33
f 47/34/35 46/20/36 45/20/35
f 49/34/37 48/35/38 46/20/37
f 50/15/38 46/20/37 48/35/38
f 50/15/38 48/35/38 51/11/39
f 52/36/39 51/11/39 48/35/38
f 51/11/39 52/36/39 53/9/40
f 54/37/40 53/9/40 52/36/39
f 53/9/40 54/37/40 55/5/41
f 56/38/41 55/5/41 54/37/40
f 55/5/41 56/38/41 57/3/42
f 58/39/42 57/3/42 56/38/41
f 57/3/42 58/39/42 59/6/43
f 60/40/43 59/6/43 58/39/42
f 62/41/44 61/8/45 60/40/43
f 65/37/46 64/36/47 63/9/48
f 66/11/47 63/9/48 64/36/47
f 63/9/48 67/5/49 65/37/46
f 64/36/47 68/35/50 66/11/47
f 69/38/49 65/37/46 67/5/49
f 70/15/51 66/11/47 68/35/50
f 71/20/52 70/15/51 68/35/50
f 71/20/52 68/35/50 72/34/52
f 67/5/49 73/3/53 69/38/49
f 75/20/36 72/34/35 74/34/36
f 76/39/54 69/38/49 73/3/53
f 73/3/53 77/6/55 76/39/54
f 78/40/55 76/39/54 77/6/55
f 80/41/56 78/40/55 79/8/57
f 83/42/58 82/43/58 81/44/58
f 84/45/58 82/43/58 83/42/58
f 85/46/58 81/44/58 82/43/58
f 86/47/58 81/44/58 85/46/58
f 89/33/59 88/32/60 87/31/61
f 90/7/31 87/31/61 88/32/60
f 93/5/62 92/48/63 91/3/63
f 92/48/63 94/49/64 91/3/63
f 95/6/65 91/3/63 94/49/64
f 96/50/62 92/48/63 93/5/62
f 96/50/62 93/5/62 97/51/66
f 98/9/67 97/51/66 93/5/62
f 98/9/67 99/11/68 97/51/66
f 100/52/68 97/51/66 99/11/68
f 100/52/68 99/11/68 101/53/69
f 102/15/69 101/53/69 99/11/68
f 101/53/69 102/15/69 103/29/28
f 104/20/70 103/29/28 102/15/69
f 107/1/63 106/54/63 105/55/62
f 107/1/63 108/4/71 106/54/63
f 108/4/71 109/56/72 106/54/63
f 110/2/62 107/1/63 105/55/62
f 110/2/62 105/55/62 111/7/67
f 112/57/67 111/7/67 105/55/62
f 111/7/67 112/57/67 113/58/68
f 114/13/68 111/7/67 113/58/68
f 114/13/68 113/58/68 115/14/69
f 116/59/69 115/14/69 113/58/68
f 117/17/70 115/14/69 116/59/69
f 117/17/70 116/59/69 118/30/28
f 121/60/73 120/61/73 119/62/73
f 122/63/73 119/62/73 120/61/73
f 122/63/73 120/61/73 123/64/73
f 120/61/73 121/60/73 124/65/73
f 125/66/73 124/65/73 121/60/73
f 128/62/73 127/61/74 126/60/73
f 127/61/74 128/62/73 129/63/73
f 129/63/73 130/64/73 127/61/74
f 130/64/73 131/61/73 127/61/74
f 132/65/73 126/60/73 127/61/74
f 132/65/73 133/66/73 126/60/73
f 136/67/75 135/68/76 134/69/77
f 136/67/75 137/70/78 135/68/76
f 138/71/78 135/68/76 137/70/78
f 134/69/77 135/68/76 139/72/79
f 134/69/77 139/72/79 140/73/80
f 141/74/81 140/73/80 139/72/79
f 140/73/80 141/74/81 142/75/82
f 142/75/82 141/74/81 143/32/83
f 144/33/84 143/32/83 141/74/81
f 145/76/85 142/75/82 143/32/83
f 145/76/85 143/32/83 146/77/86
f 147/78/86 145/76/85 146/77/86
f 141/74/81 139/72/79 148/79/87
f 149/60/88 148/79/87 139/72/79
f 151/66/89 149/60/88 150/66/89
f 149/60/88 152/80/89 148/79/87
f 153/81/89 148/79/87 152/80/89
f 153/81/89 154/82/89 148/79/87
f 154/82/89 155/83/89 148/79/87
f 155/83/89 154/82/89 156/84/89
f 156/84/89 157/85/89 155/83/89
f 158/86/89 155/83/89 157/85/89
f 157/85/89 159/87/89 158/86/89
f 160/88/89 158/86/89 159/87/89
f 159/87/89 161/89/89 160/88/89
f 164/60/88 163/66/89 162/80/89
f 167/36/90 166/37/90 165/39/91
f 168/38/90 165/39/91 166/37/90
f 167/36/90 165/39/91 169/35/90
f 169/35/90 165/39/91 170/34/90
f 171/40/90 170/34/90 165/39/91
f 172/41/90 170/34/90 171/40/90
f 172/41/90 173/90/90 170/34/90
f 173/90/90 175/91/90 174/92/90
f 174/92/90 176/93/90 173/90/90
f 170/34/90 178/94/90 177/34/90
f 179/93/90 177/34/90 178/94/90
f 177/34/90 179/93/90 180/90/90
f 183/92/90 182/90/90 181/93/90
f 183/92/90 184/91/90 182/90/90
f 186/41/90 185/34/90 182/90/90
f 186/41/90 187/40/90 185/34/90
f 188/39/91 185/34/90 187/40/90
f 185/34/90 188/39/91 189/35/90
f 189/35/90 188/39/91 190/36/90
f 191/37/90 190/36/90 188/39/91
f 192/38/90 191/37/90 188/39/91
f 195/94/90 194/34/90 193/93/90
f 194/34/90 196/90/90 193/93/90
f 199/23/92 198/95/93 197/25/94
f 197/25/94 198/95/93 200/24/95
f 201/95/96 200/24/95 198/95/93
f 204/60/97 203/72/98 202/79/99
f 202/79/99 205/80/100 204/60/97
f 205/80/100 202/79/99 206/81/100
f 207/82/100 206/81/100 202/79/99
f 207/82/100 202/79/99 208/83/100
f 209/74/101 202/79/99 203/72/98
f 208/83/100 210/96/102 207/82/100
f 211/97/100 207/82/100 210/96/102
f 212/85/100 211/97/100 210/96/102
f 213/98/100 212/85/100 210/96/102
f 208/83/100 214/86/100 210/96/102
f 215/99/100 210/96/102 214/86/100
f 215/99/100 214/86/100 216/88/100
f 215/99/100 216/88/100 217/100/100
f 218/87/100 217/100/100 216/88/100
f 219/101/100 218/87/100 216/88/100
f 220/73/103 209/74/101 203/72/98
f 221/69/104 220/73/103 203/72/98
f 203/72/98 222/68/105 221/69/104
f 220/73/103 223/75/106 209/74/101
f 224/67/107 221/69/104 222/68/105
f 224/67/107 222/68/105 225/70/78
f 226/71/78 225/70/78 222/68/105
f 227/32/108 209/74/101 223/75/106
f 228/33/109 209/74/101 227/32/108
f 223/75/106 229/76/110 227/32/108
f 227/32/108 229/76/110 230/77/86
f 231/78/86 230/77/86 229/76/110
f 234/79/111 233/83/112 232/102/113
f 235/103/114 232/102/113 233/83/112
f 236/31/115 234/79/111 232/102/113
f 237/104/111 234/79/111 236/31/115
f 236/31/115 238/105/111 237/104/111
f 232/102/113 239/102/116 236/31/115
f 240/31/116 236/31/115 239/102/116
f 243/81/117 242/106/117 241/82/118
f 242/106/117 244/107/118 241/82/118
f 246/108/73 244/107/119 245/109/73
f 245/109/73 247/4/73 246/108/73
f 248/4/73 246/108/73 247/4/73
f 249/21/73 247/4/73 245/109/73
f 251/17/73 250/17/73 245/109/73
f 253/16/73 250/17/73 252/10/73
f 252/10/73 250/17/73 254/4/73
f 255/14/73 254/4/73 250/17/73
f 254/4/73 255/14/73 256/1/73
f 257/13/73 256/1/73 255/14/73
f 256/1/73 257/13/73 258/2/73
f 259/7/73 258/2/73 257/13/73
f 261/16/73 251/17/73 260/4/73
f 260/4/73 251/17/73 262/110/73
f 263/21/73 260/4/73 262/110/73
f 265/84/73 262/110/73 264/107/120
f 265/84/73 266/4/73 262/110/73
f 268/4/73 267/1/73 251/17/73
f 251/17/73 267/1/73 269/14/73
f 269/14/73 267/1/73 270/13/73
f 271/2/73 270/13/73 267/1/73
f 272/7/73 270/13/73 271/2/73
f 275/4/73 274/109/73 273/17/73
f 276/16/73 275/4/73 273/17/73
f 277/21/73 274/109/73 275/4/73
f 279/110/73 278/17/73 274/109/73
f 281/21/73 279/110/73 280/4/73
f 283/4/73 280/4/73 282/84/73
f 285/10/73 284/4/73 278/17/73
f 286/16/73 285/10/73 278/17/73
f 288/107/121 287/82/122 282/84/73
f 287/82/122 288/107/121 289/81/123
f 290/106/123 289/81/123 288/107/121
f 291/111/124 289/81/123 290/106/123
f 291/111/124 292/80/124 289/81/123
f 291/111/124 293/66/125 292/80/124
f 294/65/125 293/66/125 291/111/124
f 297/82/120 296/107/126 295/108/73
f 300/31/90 299/102/90 298/31/90
f 301/102/90 298/31/90 299/102/90
f 304/112/127 303/112/128 302/112/127
f 305/112/90 303/112/128 304/112/127
f 306/112/90 303/112/128 305/112/90
f 306/112/90 307/112/129 303/112/128
f 308/112/90 302/112/127 303/112/128
f 303/112/128 309/112/90 308/112/90
f 309/112/90 310/112/90 308/112/90
f 308/112/90 311/113/90 302/112/127
f 311/113/130 313/112/130 312/112/130
f 315/112/90 302/112/129 314/112/131
f 316/112/127 315/112/90 314/112/131
f 314/112/131 317/112/90 316/112/127
f 317/112/90 314/112/131 318/112/90
f 311/113/90 320/88/90 319/88/90
f 319/88/90 320/88/90 321/114/90
f 322/114/90 321/114/90 320/88/90
f 324/103/90 321/114/90 323/103/90
f 327/112/90 326/112/90 325/113/90
f 328/112/132 327/112/90 325/113/90
f 330/112/90 329/88/90 325/113/90
f 333/102/90 332/103/90 331/102/90
f 334/103/90 332/103/90 333/102/90
f 332/103/90 336/114/90 335/114/90
f 339/66/100 338/60/97 337/80/100
f 339/66/100 340/66/100 338/60/97
f 343/105/133 342/31/134 341/104/135
f 341/104/135 342/31/134 344/79/133
f 345/102/136 344/79/133 342/31/134
f 344/79/133 345/102/136 346/83/137
f 347/103/138 346/83/137 345/102/136
f 350/102/139 349/102/136 348/31/140
f 351/31/141 350/102/139 348/31/140
f 354/44/100 353/115/100 352/42/100
f 355/116/100 352/42/100 353/115/100
f 358/44/142 357/117/143 356/118/142
f 359/115/144 358/44/142 356/118/142
f 362/119/145 361/120/146 360/121/146
f 360/121/146 363/122/147 362/119/145
f 366/123/135 365/42/148 364/116/135
f 364/116/135 367/124/135 366/123/135
f 370/125/89 369/126/89 368/127/89
f 370/125/89 371/128/89 369/126/89
f 372/129/149 369/126/89 371/128/89
f 371/128/89 373/130/89 372/129/149
f 373/130/89 374/131/89 372/129/149
f 374/131/89 375/132/149 372/129/149
f 375/132/149 374/131/89 376/133/89
f 377/134/150 372/129/149 375/132/149
f 372/129/149 377/134/150 378/135/151
f 378/135/151 377/134/150 379/136/152
f 380/137/152 379/136/152 377/134/150
f 383/138/153 382/139/154 381/140/155
f 384/141/156 381/140/155 382/139/154
f 382/139/154 385/142/89 384/141/156
f 386/143/89 384/141/156 385/142/89
f 386/143/89 385/142/89 387/144/157
f 388/145/158 387/144/157 385/142/89
f 387/144/157 388/145/158 389/146/159
f 390/147/160 389/146/159 388/145/158
f 389/146/159 390/147/160 391/148/161
f 392/149/162 391/148/161 390/147/160
f 395/120/163 394/119/164 393/122/165
f 393/122/165 396/121/166 395/120/163
f 399/22/167 398/150/168 397/23/169
f 400/95/170 397/23/169 398/150/168
f 403/151/73 402/152/74 401/153/73
f 403/151/73 404/154/73 402/152/74
f 404/154/73 405/155/73 402/152/74
f 407/156/73 406/157/73 405/155/73
f 406/157/73 408/158/73 405/155/73
f 405/155/73 408/158/73 402/152/74
f 409/159/73 402/152/74 408/158/73
f 410/118/74 401/153/73 402/152/74
f 401/153/73 410/118/74 411/160/73
f 412/161/73 411/160/73 410/118/74
f 413/162/73 412/161/73 410/118/74
f 413/162/73 410/118/74 414/163/74
f 414/163/74 410/118/74 415/117/73
f 415/117/73 416/164/73 414/163/74
f 417/165/73 413/162/73 414/163/74
f 417/165/73 414/163/74 418/166/73
f 421/167/100 420/168/100 419/169/171
f 421/167/100 419/169/171 422/170/100
f 423/171/100 419/169/171 420/168/100
f 423/171/100 420/168/100 424/172/100
f 424/172/100 425/173/100 423/171/100
f 422/170/100 419/169/171 426/174/172
f 427/175/100 422/170/100 426/174/172
f 419/169/171 428/176/173 426/174/172
f 429/177/173 426/174/172 428/176/173
f 429/177/173 428/176/173 430/178/174
f 431/179/174 430/178/174 428/176/173
f 430/178/174 431/179/174 432/180/73
f 433/7/73 432/180/73 431/179/174
f 432/180/73 433/7/73 434/181/175
f 435/182/175 434/181/175 433/7/73
f 438/183/90 437/184/90 436/185/90
f 436/185/90 439/186/90 438/183/90
f 440/187/90 438/183/90 439/186/90
f 436/185/90 437/184/90 441/188/91
f 442/189/90 441/188/91 437/184/90
f 443/190/90 441/188/91 442/189/90
f 443/190/90 444/191/90 441/188/91
f 441/188/91 444/191/90 445/124/91
f 446/192/90 445/124/91 444/191/90
f 447/193/90 445/124/91 446/192/90
f 447/193/90 448/194/90 445/124/91
f 445/124/91 448/194/90 449/195/91
f 450/196/90 449/195/91 448/194/90
f 450/196/90 451/197/90 449/195/91
f 449/195/91 452/123/90 445/124/91
f 452/123/90 449/195/91 453/198/90
f 456/88/176 455/199/177 454/86/178
f 454/86/178 455/199/177 457/200/179
f 458/201/114 457/200/179 455/199/177
f 461/140/180 460/141/173 459/139/181
f 459/139/181 462/138/182 461/140/180
f 459/139/181 460/141/173 463/142/100
f 464/143/100 463/142/100 460/141/173
f 464/143/100 465/144/183 463/142/100
f 466/145/184 463/142/100 465/144/183
f 465/144/183 467/146/185 466/145/184
f 468/147/186 466/145/184 467/146/185
f 468/147/186 467/146/185 469/149/187
f 470/148/187 469/149/187 467/146/185
f 473/199/188 472/200/189 471/201/190
f 473/199/188 474/86/191 472/200/189
f 473/199/188 475/88/192 474/86/191
f 478/18/13 477/22/193 476/4/194
f 481/202/195 480/4/196 479/203/197
f 480/4/196 481/202/195 482/204/198
f 483/21/199 479/203/197 480/4/196
f 480/4/196 482/204/198 484/16/200
f 485/205/201 484/16/200 482/204/198
f 484/16/200 485/205/201 486/10/202
f 487/206/203 486/10/202 485/205/201
f 486/10/202 487/206/203 488/4/71
f 489/56/72 488/4/71 487/206/203
f 479/203/197 483/21/199 490/207/204
f 491/4/205 490/207/204 483/21/199
f 491/4/205 492/4/206 490/207/204
f 493/208/207 490/207/204 492/4/206
f 493/208/207 494/207/207 490/207/204
f 497/108/208 496/4/208 495/26/208
f 500/26/208 499/26/208 498/4/208
f 503/208/208 502/4/208 501/208/208
f 504/108/208 501/208/208 502/4/208
f 507/24/209 506/209/210 505/209/211
f 507/24/209 508/24/209 506/209/210
f 511/24/212 510/209/211 509/209/212
f 512/24/209 511/24/212 509/209/212
f 515/8/213 514/41/214 513/12/215
f 516/90/216 513/12/215 514/41/214
f 518/6/43 517/40/43 515/8/45
f 520/19/217 513/12/218 519/91/219
f 522/210/220 520/19/221 521/211/222
f 525/8/223 524/12/224 523/41/225
f 526/90/226 523/41/225 524/12/224
f 528/6/55 525/8/57 527/40/55
f 524/12/227 530/19/228 529/91/229
f 530/19/230 532/210/231 531/211/232
f 535/212/233 534/213/234 533/92/235
f 536/93/236 533/92/235 534/213/234
f 534/213/234 537/214/237 536/93/236
f 538/94/238 536/93/236 537/214/237
f 533/92/235 539/91/239 535/212/233
f 540/215/240 535/212/233 539/91/239
f 542/12/227 539/91/232 541/90/226
f 545/93/241 544/213/242 543/92/243
f 544/213/242 545/93/241 546/214/244
f 547/94/244 546/214/244 545/93/241
f 548/212/245 543/92/243 544/213/242
f 543/92/243 548/212/245 549/91/246
f 550/215/247 549/91/246 548/212/245
f 552/90/216 549/91/246 551/12/248
f 555/24/249 554/95/249 553/24/249
f 556/95/249 553/24/249 554/95/249
f 559/208/249 558/207/249 557/207/249
f 560/208/249 559/208/249 557/207/249
f 563/24/249 562/26/249 561/24/249
f 564/26/249 562/26/249 563/24/249
f 567/18/250 566/216/251 565/22/252
f 568/150/253 565/22/252 566/216/251
f 569/217/254 566/216/251 567/18/250
f 570/218/255 569/217/254 567/18/250
f 570/218/255 567/18/250 571/12/256
f 567/18/250 572/19/254 571/12/256
f 570/218/255 571/12/256 573/219/257
f 574/8/258 573/219/257 571/12/256
f 573/219/257 574/8/258 575/49/259
f 576/6/65 575/49/259 574/8/258
f 579/220/249 578/221/249 577/174/249
f 580/222/249 578/221/249 579/220/249
f 581/223/249 579/220/249 577/174/249
f 582/224/249 577/174/249 578/221/249
f 583/225/249 582/224/249 578/221/249
f 584/175/249 577/174/249 582/224/249
f 585/226/249 584/175/249 582/224/249
f 588/19/260 587/227/261 586/210/262
f 589/18/260 587/227/261 588/19/260
f 592/210/263 591/227/264 590/19/263
f 593/18/263 590/19/263 591/227/264
f 596/112/265 595/112/266 594/112/267
f 597/112/268 594/112/267 595/112/266
f 595/112/266 598/112/269 597/112/268
f 598/112/269 599/112/270 597/112/268
f 598/112/269 600/112/271 599/112/270
f 600/112/271 601/112/271 599/112/270
f 601/112/271 600/112/271 602/112/272
f 603/112/273 602/112/272 600/112/271
f 602/112/272 603/112/273 604/112/274
f 605/112/275 604/112/274 603/112/273
f 604/112/274 605/112/275 606/112/276
f 607/112/277 606/112/276 605/112/275
f 610/102/278 609/102/278 608/102/278
f 611/102/278 608/102/278 609/102/278
f 614/65/125 613/228/279 612/80/279
f 612/80/279 613/228/279 243/81/117
f 615/66/280 614/65/125 612/80/279
f 615/66/280 616/66/58 614/65/125
f 617/65/58 614/65/125 616/66/58
f 613/228/279 242/106/117 243/81/117
f 620/65/58 619/66/281 618/65/282
f 620/65/58 621/66/58 619/66/281
f 624/229/58 623/230/58 622/126/58
f 624/229/58 622/126/58 625/231/58
f 626/171/58 622/126/58 623/230/58
f 625/231/58 622/126/58 627/129/58
f 623/230/58 628/232/58 626/171/58
f 629/233/58 625/231/58 627/129/58
f 628/232/58 630/234/58 626/171/58
f 627/129/58 631/235/58 629/233/58
f 626/171/58 630/234/58 632/169/58
f 631/235/58 627/129/58 633/236/58
f 634/237/58 632/169/58 630/234/58
f 631/235/58 633/236/58 635/238/58
f 632/169/58 634/237/58 636/239/58
f 637/240/58 635/238/58 633/236/58
f 636/239/58 638/241/58 632/169/58
f 635/238/58 637/240/58 639/242/58
f 636/239/58 640/243/58 638/241/58
f 641/77/58 639/242/58 637/240/58
f 642/244/58 638/241/58 640/243/58
f 639/242/58 641/77/58 642/244/58
f 640/243/58 639/242/58 642/244/58
usemtl Material.141
f 644/112/283 648/112/284 646/112/285 643/112/286
f 662/112/287 644/112/283 643/112/286 645/112/288
f 648/112/284 649/112/289 647/112/290 646/112/285
f 650/112/291 651/112/292 649/112/289 648/112/284
f 652/112/293 650/112/291 648/112/284 644/112/283
f 653/112/294 654/112/295 651/112/292 650/112/291
f 656/112/296 653/112/294 650/112/291 652/112/293
f 655/112/297 711/112/298 654/112/295 653/112/294
f 657/112/299 655/112/297 653/112/294 656/112/296
f 658/112/300 656/112/296 652/112/293 661/112/301
f 659/112/302 657/112/299 656/112/296 658/112/300
f 712/112/303 659/112/302 658/112/300 660/112/304
f 660/112/304 658/112/300 661/112/301 663/112/305
f 661/112/301 652/112/293 644/112/283 662/112/287
f 663/112/305 661/112/301 662/112/287 664/112/306
f 665/112/307 663/112/305 664/112/306 666/112/308
f 668/112/309 660/112/304 663/112/305 665/112/307
f 667/112/310 665/112/307 666/112/308 716/112/311
f 670/112/312 668/112/309 665/112/307 667/112/310
f 672/112/313 669/112/314 668/112/309 670/112/312
f 669/112/314 712/112/303 660/112/304 668/112/309
f 671/112/315 670/112/312 667/112/310 713/112/316
f 673/112/317 672/112/313 670/112/312 671/112/315
f 674/112/318 677/112/319 669/112/314 672/112/313
f 676/112/320 674/112/318 672/112/313 673/112/317
f 675/112/321 679/112/322 677/112/319 674/112/318
f 700/112/323 675/112/321 674/112/318 676/112/320
f 677/112/319 678/112/324 712/112/303 669/112/314
f 679/112/322 680/112/325 678/112/324 677/112/319
f 683/112/326 681/112/327 679/112/322 675/112/321
f 681/112/327 682/112/328 680/112/325 679/112/322
f 684/112/329 686/112/330 682/112/328 681/112/327
f 685/112/331 684/112/329 681/112/327 683/112/326
f 687/112/332 684/112/329 685/112/331
f 688/112/333 686/112/330 684/112/329
f 688/112/333 684/112/329 687/112/332
f 688/112/333 689/112/334 686/112/330
f 690/112/335 688/112/333 687/112/332
f 691/112/336 689/112/334 688/112/333
f 690/112/335 691/112/336 688/112/333
f 690/112/335 692/112/337 691/112/336
f 692/112/337 694/112/338 691/112/336
f 691/112/336 693/112/339 689/112/334
f 691/112/336 694/112/338 693/112/339
f 693/112/339 694/112/338 695/112/340 710/112/341
f 694/112/338 696/112/342 697/112/343 695/112/340
f 692/112/337 696/112/342 694/112/338
f 696/112/342 698/112/344 699/112/345 697/112/343
f 692/112/337 698/112/344 696/112/342
f 698/112/344 685/112/331 683/112/326 699/112/345
f 687/112/332 685/112/331 698/112/344
f 687/112/332 698/112/344 692/112/337
f 697/112/343 699/112/345 700/112/323 701/112/346
f 699/112/345 683/112/326 675/112/321 700/112/323
f 701/112/346 700/112/323 676/112/320 702/112/347
f 703/112/348 701/112/346 702/112/347 705/112/349
f 695/112/340 697/112/343 701/112/346 703/112/348
f 704/112/350 703/112/348 705/112/349 706/112/351
f 710/112/341 695/112/340 703/112/348 704/112/350
f 705/112/349 702/112/347 711/112/298 655/112/297
f 706/112/351 705/112/349 655/112/297 657/112/299
f 707/112/352 706/112/351 657/112/299 659/112/302
f 708/112/353 704/112/350 706/112/351 707/112/352
f 678/112/324 707/112/352 659/112/302 712/112/303
f 680/112/325 708/112/353 707/112/352 678/112/324
f 709/112/354 710/112/341 704/112/350 708/112/353
f 682/112/328 709/112/354 708/112/353 680/112/325
f 686/112/330 689/112/334 709/112/354 682/112/328
f 689/112/334 693/112/339 710/112/341 709/112/354
f 702/112/347 676/112/320 673/112/317 711/112/298
f 711/112/298 673/112/317 671/112/315 654/112/295
f 690/112/335 687/112/332 692/112/337
f 654/112/295 671/112/315 713/112/316 651/112/292
f 651/112/292 713/112/316 714/112/355 649/112/289
f 713/112/316 667/112/310 716/112/311 714/112/355
f 649/112/289 714/112/355 715/112/356 647/112/290
f 714/112/355 716/112/311 717/112/357 715/112/356
f 716/112/311 666/112/308 718/112/358 717/112/357
f 666/112/308 664/112/306 719/112/359 718/112/358
f 664/112/306 662/112/287 645/112/288 719/112/359
usemtl Material.142
f 721/112/360 725/112/361 723/112/362 720/112/363
f 739/112/364 721/112/360 720/112/363 722/112/365
f 725/112/361 726/112/366 724/112/367 723/112/362
f 727/112/368 728/112/369 726/112/366 725/112/361
f 729/112/370 727/112/368 725/112/361 721/112/360
f 730/112/371 731/112/372 728/112/369 727/112/368
f 733/112/373 730/112/371 727/112/368 729/112/370
f 732/112/374 788/112/375 731/112/372 730/112/371
f 734/112/376 732/112/374 730/112/371 733/112/373
f 735/112/377 733/112/373 729/112/370 738/112/378
f 736/112/379 734/112/376 733/112/373 735/112/377
f 789/112/380 736/112/379 735/112/377 737/112/381
f 737/112/381 735/112/377 738/112/378 740/112/382
f 738/112/378 729/112/370 721/112/360 739/112/364
f 740/112/382 738/112/378 739/112/364 741/112/383
f 742/112/384 740/112/382 741/112/383 743/112/385
f 745/112/386 737/112/381 740/112/382 742/112/384
f 744/112/387 742/112/384 743/112/385 793/112/388
f 747/112/389 745/112/386 742/112/384 744/112/387
f 749/112/390 746/112/391 745/112/386 747/112/389
f 746/112/391 789/112/380 737/112/381 745/112/386
f 748/112/392 747/112/389 744/112/387 790/112/393
f 750/112/394 749/112/390 747/112/389 748/112/392
f 751/112/395 754/112/396 746/112/391 749/112/390
f 753/112/397 751/112/395 749/112/390 750/112/394
f 752/112/398 756/112/399 754/112/396 751/112/395
f 777/112/400 752/112/398 751/112/395 753/112/397
f 754/112/396 755/112/401 789/112/380 746/112/391
f 756/112/399 757/112/402 755/112/401 754/112/396
f 760/112/403 758/112/404 756/112/399 752/112/398
f 758/112/404 759/112/405 757/112/402 756/112/399
f 761/112/406 763/112/407 759/112/405 758/112/404
f 762/112/408 761/112/406 758/112/404 760/112/403
f 764/112/409 761/112/406 762/112/408
f 765/112/410 763/112/407 761/112/406
f 765/112/410 761/112/406 764/112/409
f 765/112/410 766/112/411 763/112/407
f 767/112/412 765/112/410 764/112/409
f 768/112/413 766/112/411 765/112/410
f 767/112/412 768/112/413 765/112/410
f 767/112/412 769/112/414 768/112/413
f 769/112/414 771/112/415 768/112/413
f 768/112/413 770/112/416 766/112/411
f 768/112/413 771/112/415 770/112/416
f 770/112/416 771/112/415 772/112/417 787/112/418
f 771/112/415 773/112/419 774/112/420 772/112/417
f 769/112/414 773/112/419 771/112/415
f 773/112/419 775/112/421 776/112/422 774/112/420
f 769/112/414 775/112/421 773/112/419
f 775/112/421 762/112/408 760/112/403 776/112/422
f 764/112/409 762/112/408 775/112/421
f 764/112/409 775/112/421 769/112/414
f 774/112/420 776/112/422 777/112/400 778/112/423
f 776/112/422 760/112/403 752/112/398 777/112/400
f 778/112/423 777/112/400 753/112/397 779/112/424
f 780/112/425 778/112/423 779/112/424 782/112/426
f 772/112/417 774/112/420 778/112/423 780/112/425
f 781/112/427 780/112/425 782/112/426 783/112/428
f 787/112/418 772/112/417 780/112/425 781/112/427
f 782/112/426 779/112/424 788/112/375 732/112/374
f 783/112/428 782/112/426 732/112/374 734/112/376
f 784/112/429 783/112/428 734/112/376 736/112/379
f 785/112/430 781/112/427 783/112/428 784/112/429
f 755/112/401 784/112/429 736/112/379 789/112/380
f 757/112/402 785/112/430 784/112/429 755/112/401
f 786/112/431 787/112/418 781/112/427 785/112/430
f 759/112/405 786/112/431 785/112/430 757/112/402
f 763/112/407 766/112/411 786/112/431 759/112/405
f 766/112/411 770/112/416 787/112/418 786/112/431
f 779/112/424 753/112/397 750/112/394 788/112/375
f 788/112/375 750/112/394 748/112/392 731/112/372
f 767/112/412 764/112/409 769/112/414
f 731/112/372 748/112/392 790/112/393 728/112/369
f 728/112/369 790/112/393 791/112/432 726/112/366
f 790/112/393 744/112/387 793/112/388 791/112/432
f 726/112/366 791/112/432 792/112/433 724/112/367
f 791/112/432 793/112/388 794/112/434 792/112/433
f 793/112/388 743/112/385 795/112/435 794/112/434
f 743/112/385 741/112/383 796/112/436 795/112/435
f 741/112/383 739/112/364 722/112/365 796/112/436
