# Blender 5.2.2 LTS
# www.blender.org
mtllib trigger final22.mtl
o Trigger_001_79410003917755.001
v -0.022310 0.014393 -0.154263
v -0.022310 -0.032516 -0.154263
v 0.023164 0.014393 -0.154263
v 0.023164 -0.032516 -0.154263
v 0.016050 0.078473 -0.042823
v -0.015196 0.064341 -0.055505
v 0.016050 0.064341 -0.055505
v -0.015196 0.083003 -0.024705
v -0.015196 0.078473 -0.042823
v 0.016050 0.083003 -0.024705
v 0.016050 0.078473 -0.042823
v -0.015196 0.078473 -0.042823
v -0.015196 0.064341 -0.055505
v -0.015196 0.010934 -0.124181
v 0.016050 -0.000054 -0.124181
v 0.016050 0.010934 -0.124181
v -0.015196 -0.000054 -0.124181
v 0.016050 0.076676 -0.016513
v -0.015196 0.076676 -0.016513
v -0.015196 0.083003 -0.024705
v 0.016050 0.076676 -0.016513
v -0.015196 0.083003 -0.024705
v 0.016050 0.083003 -0.024705
v -0.015196 0.026618 -0.063101
v 0.016050 0.010934 -0.124181
v 0.016050 0.026618 -0.063101
v -0.015196 0.010934 -0.124181
v -0.015196 0.030249 0.055921
v -0.015196 0.037464 -0.022608
v 0.016050 0.030249 0.055921
v 0.016050 0.037464 -0.022608
v 0.020097 0.012445 0.100211
v -0.019243 -0.017829 0.100211
v -0.019243 0.012445 0.100211
v 0.020097 -0.017829 0.100211
v 0.016050 0.026723 0.060284
v -0.015196 0.015649 0.063826
v -0.015196 0.026723 0.060284
v 0.016050 0.015649 0.063826
v -0.015196 0.030249 0.055921
v 0.016050 0.030249 0.055921
v -0.019243 0.012445 0.100211
v -0.022310 -0.017829 0.097145
v -0.022310 0.012445 0.097145
v -0.019243 -0.017829 0.100211
v 0.023164 0.012445 0.097145
v 0.020097 -0.017829 0.100211
v 0.020097 0.012445 0.100211
v 0.023164 -0.017829 0.097145
v -0.022310 0.014393 -0.039051
v -0.022310 0.014393 -0.154263
v 0.023164 0.014393 -0.039051
v 0.023164 0.014393 -0.154263
v 0.020097 0.012445 0.100211
v -0.022310 0.012445 0.097145
v 0.023164 0.012445 0.097145
v -0.019243 0.012445 0.100211
v 0.023164 0.012445 0.039865
v -0.022310 0.012445 0.039865
v -0.019243 0.012445 0.036799
v 0.020097 0.012445 0.036799
v 0.016050 0.064341 -0.055505
v -0.015196 0.064341 -0.055505
v -0.015196 0.026618 -0.063101
v 0.016050 0.026618 -0.063101
v 0.023164 0.003749 -0.039051
v 0.020097 0.003749 0.036799
v -0.022310 0.003749 -0.039051
v 0.023164 0.003749 0.039865
v -0.019243 0.003749 0.036799
v -0.022310 0.003749 -0.039051
v 0.020097 0.003749 0.036799
v -0.022310 0.003749 0.039865
v -0.015196 0.012945 0.033741
v 0.016050 0.012945 0.033741
v 0.016050 0.001357 0.036426
v -0.015196 0.001357 0.036426
v 0.023164 -0.017829 0.029768
v -0.022310 -0.017829 0.029768
v 0.023164 -0.032516 -0.022502
v 0.023164 -0.032516 -0.154263
v 0.023164 0.003749 -0.039051
v 0.023164 0.014393 -0.154263
v 0.023164 0.014393 -0.039051
v 0.023164 -0.017829 0.029768
v 0.023164 -0.032516 -0.022502
v 0.023164 0.003749 -0.039051
v 0.023164 0.003749 0.039865
v 0.023164 0.003749 0.039865
v 0.023164 0.012445 0.097145
v 0.023164 0.012445 0.039865
v 0.023164 -0.017829 0.097145
v 0.023164 -0.017829 0.029768
v -0.022310 0.014393 -0.154263
v -0.022310 0.003749 -0.039051
v -0.022310 -0.032516 -0.154263
v -0.022310 0.014393 -0.039051
v -0.022310 -0.032516 -0.022502
v -0.022310 -0.017829 0.029768
v -0.022310 0.003749 0.039865
v -0.022310 -0.017829 0.097145
v -0.022310 0.012445 0.097145
v -0.022310 0.012445 0.039865
v 0.023164 -0.032516 -0.022502
v -0.022310 -0.032516 -0.022502
v -0.015196 0.012945 0.033741
v -0.015196 0.030249 0.055921
v -0.015196 0.015649 0.063826
v -0.015196 0.026723 0.060284
v -0.015196 0.037464 -0.022608
v -0.015196 0.001357 0.036426
v -0.015196 0.026618 -0.063101
v -0.015196 -0.000054 -0.124181
v -0.015196 0.064341 -0.055505
v -0.015196 0.037464 -0.022608
v -0.015196 0.026618 -0.063101
v -0.015196 -0.000054 -0.124181
v -0.015196 0.010934 -0.124181
v -0.015196 0.066436 -0.026064
v -0.015196 0.078473 -0.042823
v -0.015196 0.072164 -0.023505
v -0.015196 0.083003 -0.024705
v -0.015196 0.072164 -0.023505
v -0.015196 0.078473 -0.042823
v -0.015196 0.076676 -0.016513
v -0.015196 0.074486 -0.017023
v 0.016050 0.066436 -0.026064
v 0.016050 0.064341 -0.055505
v 0.016050 0.037464 -0.022608
v 0.016050 0.078473 -0.042823
v 0.016050 0.072164 -0.023505
v 0.016050 0.026618 -0.063101
v 0.016050 0.083003 -0.024705
v 0.016050 0.076676 -0.016513
v 0.016050 0.074486 -0.017023
v 0.016050 -0.000054 -0.124181
v 0.016050 0.010934 -0.124181
v 0.016050 0.001357 0.036426
v 0.016050 0.012945 0.033741
v 0.016050 0.030249 0.055921
v 0.016050 0.015649 0.063826
v 0.016050 0.026723 0.060284
v 0.016050 0.066436 -0.026064
v -0.015196 0.037464 -0.022608
v -0.015196 0.066436 -0.026064
v 0.016050 0.037464 -0.022608
v -0.019243 0.012445 0.036799
v -0.022310 0.003749 0.039865
v -0.019243 0.003749 0.036799
v -0.022310 0.012445 0.039865
v 0.023164 0.003749 0.039865
v 0.023164 0.012445 0.039865
v 0.020097 0.012445 0.036799
v 0.020097 0.003749 0.036799
v 0.023164 0.014393 -0.039051
v -0.022310 0.003749 -0.039051
v -0.022310 0.014393 -0.039051
v 0.023164 0.003749 -0.039051
v -0.022310 -0.032516 -0.154263
v 0.023164 -0.032516 -0.022502
v 0.023164 -0.032516 -0.154263
v -0.022310 -0.032516 -0.022502
v 0.020097 0.012445 0.036799
v -0.019243 0.003749 0.036799
v 0.020097 0.003749 0.036799
v -0.019243 0.012445 0.036799
v 0.016050 0.076676 -0.016513
v -0.015196 0.074486 -0.017023
v -0.015196 0.076676 -0.016513
v 0.016050 0.074486 -0.017023
v 0.023164 -0.017829 0.097145
v -0.022310 -0.017829 0.029768
v -0.022310 -0.017829 0.097145
v 0.023164 -0.017829 0.029768
v -0.019243 -0.017829 0.100211
v 0.020097 -0.017829 0.100211
v -0.015196 -0.000054 -0.124181
v 0.016050 0.001357 0.036426
v 0.016050 -0.000054 -0.124181
v -0.015196 0.001357 0.036426
v -0.015196 0.072164 -0.023505
v 0.016050 0.072164 -0.023505
v 0.016050 0.066436 -0.026064
v -0.015196 0.072164 -0.023505
v 0.016050 0.066436 -0.026064
v -0.015196 0.066436 -0.026064
v 0.016050 0.012945 0.033741
v -0.015196 0.012945 0.033741
v -0.015196 0.015649 0.063826
v 0.016050 0.015649 0.063826
v 0.016050 0.072164 -0.023505
v -0.015196 0.072164 -0.023505
v -0.015196 0.074486 -0.017023
v 0.016050 0.074486 -0.017023
v -0.016450 -0.001620 0.045046
v -0.016459 0.001845 0.024110
v -0.012380 -0.016423 0.021690
v -0.006709 -0.011247 0.034738
v -0.005111 -0.017677 0.022253
v 0.004546 -0.001717 0.036413
v 0.011514 0.001915 0.017533
v 0.003637 -0.015945 0.017388
v 0.010257 -0.010097 0.005557
v 0.003153 -0.028028 0.003707
v -0.003078 -0.028280 0.007791
v 0.008669 -0.026769 -0.007630
v 0.003440 -0.044928 -0.002177
v 0.007412 -0.045070 -0.011479
v 0.003861 -0.062668 -0.002138
v -0.001422 -0.045122 0.000789
v -0.000334 -0.062779 -0.000012
v -0.005521 -0.045156 -0.000476
v -0.008037 -0.028326 0.006356
v -0.006296 -0.044340 -0.008924
v -0.004276 -0.062774 -0.000830
v -0.005083 -0.062400 -0.007293
v -0.004304 -0.076929 0.010724
v -0.000688 -0.076797 0.011536
v -0.004617 -0.087522 0.025619
v -0.005051 -0.077420 0.005024
v -0.003898 -0.078043 -0.000970
v -0.005296 -0.088900 0.020450
v -0.004286 -0.090444 0.015031
v -0.005249 -0.092113 0.035119
v -0.004689 -0.090214 0.039016
v -0.004822 -0.092187 0.052473
v -0.004442 -0.094160 0.031074
v -0.001313 -0.095060 0.029966
v -0.004337 -0.094350 0.047556
v -0.002145 -0.094866 0.049781
v -0.003591 -0.092795 0.060926
v -0.001518 -0.093051 0.060901
v -0.002830 -0.091054 0.070045
v -0.003744 -0.090661 0.062942
v -0.002649 -0.090097 0.054880
v -0.004504 -0.090450 0.052374
v -0.001779 -0.090910 0.062785
v 0.000029 -0.092776 0.052186
v -0.000590 -0.090880 0.051840
v 0.000671 -0.090650 0.038152
v 0.001853 -0.092886 0.034350
v 0.001904 -0.087838 0.024518
v -0.002083 -0.089939 0.039502
v -0.001452 -0.087248 0.026400
v 0.003366 -0.089716 0.019208
v 0.003149 -0.077039 0.009546
v 0.004822 -0.078118 0.003491
v 0.004594 -0.079063 -0.002268
v 0.006204 -0.063001 -0.009168
v 0.006433 -0.063232 -0.015857
v 0.001454 -0.062621 -0.016448
v 0.008745 -0.045071 -0.020291
v 0.002538 -0.044287 -0.021192
v 0.011021 -0.025330 -0.018325
v 0.003228 -0.024476 -0.019504
v 0.012439 -0.004182 -0.005273
v 0.002568 -0.002163 -0.005941
v 0.012369 0.019921 0.014135
v 0.001764 0.015006 0.006903
v -0.012210 0.020119 0.018731
v -0.008781 -0.003130 -0.001181
v -0.012800 -0.009742 0.010755
v -0.005838 -0.023828 -0.015162
v -0.008520 -0.025988 -0.004082
v -0.004431 -0.043663 -0.017864
v -0.003779 -0.062127 -0.014095
v 0.000458 -0.078740 -0.003020
v -0.000478 -0.091368 0.013259
v 0.003141 -0.091429 0.014149
v 0.001668 -0.094973 0.030695
v 0.000117 -0.094920 0.047543
vn -0.0005 0.0005 -1.0000
vn -0.0005 0.4495 -0.8933
vn -0.0005 0.8561 -0.5168
vn -0.0005 0.8567 -0.5158
vn -0.0000 0.9701 -0.2426
vn -0.0000 0.7914 0.6113
vn -0.0000 0.9686 -0.2487
vn -0.0005 0.9686 -0.2486
vn -0.0007 0.9686 -0.2486
vn -0.0005 0.9270 0.3751
vn -0.0000 0.9958 0.0915
vn -0.0005 -0.0005 1.0000
vn -0.0000 0.5649 0.8251
vn -0.0000 0.3046 0.9525
vn -0.0005 0.9265 0.3762
vn -0.7070 -0.0000 0.7072
vn 0.7070 -0.0000 0.7072
vn 0.7071 0.0005 0.7071
vn 0.7072 0.0004 0.7071
vn 0.7071 0.0003 0.7071
vn -0.0005 1.0000 0.0005
vn -0.0000 0.1974 -0.9803
vn -0.0005 0.4484 -0.8938
vn -0.0000 0.2257 0.9742
vn 1.0000 0.0003 0.0003
vn 1.0000 0.0005 0.0005
vn -1.0000 -0.0005 -0.0005
vn -1.0000 -0.0000 -0.0000
vn -1.0000 0.0005 0.0005
vn 1.0000 -0.0000 -0.0000
vn -0.0000 -0.1495 0.9888
vn -0.0000 0.1184 0.9930
vn -0.7070 -0.0000 -0.7072
vn -0.7071 -0.0006 -0.7071
vn 0.7071 0.0006 -0.7071
vn 0.7070 -0.0000 -0.7072
vn -0.0005 -1.0000 -0.0005
vn -0.0000 -0.2268 0.9739
vn 0.0006 -0.2262 0.9741
vn 0.0005 -0.2263 0.9741
vn -0.0000 -1.0000 0.0088
vn -0.0010 -1.0000 0.0078
vn -0.0007 -1.0000 0.0081
vn -0.0000 -0.1506 0.9886
vn -0.0000 -0.4079 0.9130
vn -0.0005 -0.1506 0.9886
vn -0.0000 -0.9960 0.0895
vn -0.0007 -0.9412 0.3378
vn -0.0000 -0.9414 0.3372
vn -0.9804 -0.0511 -0.1904
vn -0.9809 -0.0776 -0.1785
vn -0.7524 -0.6108 0.2465
vn -0.8539 -0.5017 0.1382
vn 0.1353 -0.8187 0.5581
vn 0.0439 -0.8614 0.5061
vn 0.7053 -0.5629 0.4310
vn 0.7391 -0.5576 0.3778
vn 0.9441 -0.2605 0.2022
vn 0.9653 -0.2149 0.1483
vn 0.7536 -0.3868 0.5314
vn 0.9456 -0.2051 0.2525
vn 0.1632 -0.6283 0.7607
vn 0.1556 -0.1985 0.9677
vn 0.7943 -0.1044 0.5985
vn 0.9647 -0.0900 0.2475
vn 0.8290 0.1671 0.5337
vn 0.9855 -0.0306 0.1667
vn 0.1449 0.3435 0.9279
vn -0.8057 -0.4767 0.3516
vn -0.8578 -0.1880 0.4783
vn -0.8747 0.1474 0.4617
vn -0.9840 -0.0966 -0.1495
vn -0.9922 -0.0932 -0.0825
vn -0.9953 -0.0806 -0.0536
vn -0.9992 -0.0296 -0.0256
vn -0.8275 0.4227 0.3695
vn 0.1152 0.7322 0.6712
vn -0.7971 0.5646 0.2142
vn 0.1023 0.9239 0.3687
vn -0.9980 -0.0621 -0.0124
vn -0.8333 -0.2466 -0.4947
vn -0.8269 -0.3948 -0.4004
vn -0.7894 -0.5524 -0.2679
vn -0.7240 -0.6850 -0.0809
vn -0.9980 -0.0625 0.0126
vn -0.7525 0.6546 0.0725
vn -0.9903 -0.1183 0.0733
vn -0.7436 0.6676 0.0364
vn -0.7050 -0.7083 0.0363
vn -0.1561 -0.8961 -0.4155
vn -0.1336 -0.9851 -0.1087
vn -0.1148 -0.9881 0.1025
vn -0.6891 -0.7022 0.1792
vn 0.6521 -0.7181 0.2431
vn -0.0476 -0.4096 0.9110
vn -0.8106 0.5667 0.1476
vn 0.8007 0.5817 0.1433
vn 0.0944 0.9947 0.0405
vn 0.9914 0.0028 0.1309
vn 0.7344 0.6744 0.0760
vn 0.7489 0.6486 0.1357
vn 0.9942 0.0156 0.1064
vn 0.0923 0.9903 0.1043
vn 0.8020 0.5229 0.2886
vn 0.9945 -0.0176 0.1035
vn 0.8137 0.3897 0.4314
vn 0.9931 0.0091 0.1168
vn 0.8371 -0.4396 -0.3256
vn 0.8746 -0.3045 -0.3773
vn 0.7691 -0.6064 -0.2019
vn 0.9125 -0.1333 -0.3868
vn -0.1877 -0.4270 -0.8846
vn -0.1623 -0.0560 -0.9852
vn -0.1793 -0.7032 -0.6880
vn 0.8977 0.0712 -0.4349
vn -0.1154 0.3418 -0.9327
vn 0.8730 0.2471 -0.4205
vn -0.0946 0.5676 -0.8178
vn 0.7181 0.4090 -0.5631
vn -0.0981 0.6077 -0.7881
vn -0.7591 0.3130 -0.5707
vn -0.7273 0.3650 -0.5812
vn -0.7810 0.1694 -0.6012
vn -0.8304 -0.0596 -0.5540
vn 0.6907 -0.7230 -0.0117
vn 0.6668 -0.7386 0.0994
vt 0.375000 1.000000
vt 0.647540 0.748087
vt 0.875000 0.750000
vt 0.438585 0.750000
vt 0.375000 0.750000
vt 0.438585 1.000000
vt 0.502170 0.750000
vt 0.502170 1.000000
vt 0.625000 0.510188
vt 0.875000 0.696061
vt 0.875000 0.510188
vt 0.642470 0.694578
vt 0.375000 0.961419
vt 0.569000 0.250000
vt 0.375000 0.250000
vt 0.569000 0.500000
vt 0.375000 0.500000
vt 0.625000 0.250000
vt 0.625000 0.500000
vt 0.000000 0.000000
vt 0.354768 0.671106
vt 0.364396 0.589677
vt 0.125000 0.588777
vt 0.125000 0.669388
vt 0.625000 0.239812
vt 0.359097 0.159873
vt 0.651205 0.056163
vt 0.344657 0.078036
vt 0.497366 -0.000408
vt 0.330217 -0.003802
vt 0.413791 -0.002105
vt 0.498965 0.750272
vt 0.422052 0.751404
vt 0.345139 0.752535
vt 0.125000 0.750000
vt 0.125000 0.500000
s 1
usemtl Material.103
f 3/1/1 2/1/1 1/1/1
f 4/1/1 2/1/1 3/1/1
f 7/2/2 6/3/2 5/2/3
f 9/3/4 8/3/5 5/2/4
f 10/2/5 5/2/4 8/3/5
f 13/3/2 12/3/3 11/2/3
f 16/4/1 15/5/1 14/6/1
f 17/1/1 14/6/1 15/5/1
f 20/3/6 19/3/6 18/2/6
f 23/2/6 22/3/6 21/2/6
f 26/7/7 25/4/8 24/8/9
f 27/6/7 24/8/9 25/4/8
f 30/9/10 29/10/11 28/11/10
f 31/12/11 29/10/11 30/9/10
f 34/13/12 33/13/12 32/13/12
f 35/13/12 32/13/12 33/13/12
f 38/14/13 37/15/14 36/16/13
f 39/17/14 36/16/13 37/15/14
f 40/18/15 38/14/13 36/16/13
f 41/19/15 40/18/15 36/16/13
f 44/20/16 43/20/16 42/20/16
f 45/20/16 42/20/16 43/20/16
f 48/13/17 47/13/18 46/1/19
f 49/1/20 46/1/19 47/13/18
f 52/1/21 51/1/21 50/1/21
f 53/1/21 51/1/21 52/1/21
f 56/1/21 55/1/21 54/13/21
f 57/13/21 54/13/21 55/1/21
f 56/1/21 58/1/21 55/1/21
f 59/1/21 55/1/21 58/1/21
f 59/1/21 58/1/21 60/13/21
f 61/13/21 60/13/21 58/1/21
f 64/8/22 63/8/23 62/7/23
f 65/7/22 64/8/22 62/7/23
f 68/1/21 67/13/21 66/1/21
f 69/1/21 66/1/21 67/13/21
f 72/13/21 71/1/21 70/20/21
f 70/20/21 71/1/21 73/20/21
f 76/21/24 75/22/24 74/23/24
f 77/24/24 76/21/24 74/23/24
f 82/1/25 80/1/26 81/1/26
f 83/1/26 82/1/25 81/1/26
f 84/1/26 82/1/25 83/1/26
f 87/1/26 85/20/26 86/1/26
f 85/20/26 87/1/26 88/20/26
f 91/20/26 90/20/26 89/20/26
f 92/20/26 89/20/26 90/20/26
f 89/20/26 92/20/26 93/20/26
f 96/20/27 95/20/28 94/20/27
f 97/20/27 94/20/27 95/20/28
f 95/20/28 96/20/27 98/20/27
f 98/20/27 99/20/28 95/20/28
f 99/20/28 100/20/27 95/20/28
f 100/20/27 99/20/28 101/20/27
f 102/20/27 100/20/27 101/20/27
f 103/20/27 100/20/27 102/20/27
f 108/15/29 107/25/29 106/26/29
f 109/14/29 107/25/29 108/15/29
f 106/26/29 107/25/29 110/27/29
f 106/26/29 110/27/29 111/28/29
f 112/29/29 111/28/29 110/27/29
f 111/28/29 112/29/29 113/30/29
f 116/29/29 115/27/29 114/3/29
f 118/31/29 117/30/29 116/29/29
f 119/27/29 114/3/29 115/27/29
f 114/3/29 119/27/29 120/3/29
f 121/3/29 120/3/29 119/27/29
f 124/3/29 123/3/29 122/3/29
f 122/3/29 123/3/29 125/3/29
f 126/3/29 125/3/29 123/3/29
f 129/12/30 128/32/26 127/2/26
f 130/2/26 127/2/26 128/32/26
f 127/2/26 130/2/26 131/2/26
f 132/32/26 128/32/26 129/12/30
f 130/2/26 133/2/26 131/2/26
f 134/2/26 131/2/26 133/2/26
f 135/2/26 131/2/26 134/2/26
f 137/33/26 132/32/26 136/34/26
f 138/21/26 136/34/26 132/32/26
f 129/12/30 138/21/26 132/32/26
f 138/21/26 129/12/30 139/22/26
f 139/22/26 129/12/30 140/9/26
f 139/22/26 140/9/26 141/17/26
f 142/16/26 141/17/26 140/9/26
f 145/10/31 144/10/32 143/12/31
f 146/12/32 143/12/31 144/10/32
f 149/20/33 148/20/34 147/20/34
f 150/20/33 147/20/34 148/20/34
f 153/13/35 152/1/36 151/1/36
f 151/1/36 154/13/36 153/13/35
f 157/1/12 156/1/12 155/1/12
f 158/1/12 155/1/12 156/1/12
f 161/1/37 160/1/37 159/1/37
f 162/1/37 159/1/37 160/1/37
f 165/13/1 164/13/1 163/13/1
f 166/13/1 163/13/1 164/13/1
f 169/3/38 168/3/38 167/2/39
f 170/2/40 167/2/39 168/3/38
f 173/1/37 172/1/37 171/1/37
f 174/1/37 171/1/37 172/1/37
f 175/13/37 173/1/37 171/1/37
f 176/13/37 175/13/37 171/1/37
f 179/34/41 178/21/42 177/35/43
f 180/24/41 177/35/43 178/21/42
f 183/2/44 182/2/45 181/3/45
f 186/3/44 185/2/46 184/3/45
f 189/36/47 188/23/47 187/22/47
f 190/17/47 189/36/47 187/22/47
f 193/3/48 192/3/49 191/2/49
f 194/2/49 193/3/48 191/2/49
usemtl Material.104
f 196/20/50 262/20/51 197/20/52 195/20/53
f 195/20/53 197/20/52 199/20/54 198/20/55
f 198/20/55 199/20/54 202/20/56 200/20/57
f 200/20/57 202/20/56 203/20/58 201/20/59
f 202/20/56 204/20/60 206/20/61 203/20/58
f 199/20/54 205/20/62 204/20/60 202/20/56
f 205/20/62 210/20/63 207/20/64 204/20/60
f 204/20/60 207/20/64 208/20/65 206/20/61
f 207/20/64 209/20/66 249/20/67 208/20/65
f 210/20/63 211/20/68 209/20/66 207/20/64
f 213/20/69 212/20/70 210/20/63 205/20/62
f 212/20/70 215/20/71 211/20/68 210/20/63
f 264/20/72 214/20/73 212/20/70 213/20/69
f 214/20/73 216/20/74 215/20/71 212/20/70
f 216/20/74 220/20/75 217/20/76 215/20/71
f 215/20/71 217/20/76 218/20/77 211/20/68
f 217/20/76 219/20/78 244/20/79 218/20/77
f 220/20/75 222/20/80 219/20/78 217/20/76
f 266/20/81 221/20/82 220/20/75 216/20/74
f 221/20/82 223/20/83 222/20/80 220/20/75
f 223/20/83 227/20/84 224/20/85 222/20/80
f 222/20/80 224/20/85 225/20/86 219/20/78
f 224/20/85 226/20/87 236/20/88 225/20/86
f 227/20/84 229/20/89 226/20/87 224/20/85
f 268/20/90 228/20/91 227/20/84 223/20/83
f 228/20/91 230/20/92 229/20/89 227/20/84
f 230/20/92 231/20/93 229/20/89
f 229/20/89 231/20/93 226/20/87
f 232/20/94 231/20/93 230/20/92
f 232/20/94 233/20/95 231/20/93
f 231/20/93 233/20/95 234/20/96
f 231/20/93 234/20/96 226/20/87
f 234/20/96 237/20/97 235/20/98
f 236/20/88 234/20/96 235/20/98
f 226/20/87 234/20/96 236/20/88
f 234/20/96 233/20/95 237/20/97
f 237/20/97 232/20/94 238/20/99
f 237/20/97 233/20/95 232/20/94
f 239/20/100 237/20/97 238/20/99
f 235/20/98 237/20/97 239/20/100
f 240/20/101 239/20/100 238/20/99 241/20/102
f 243/20/103 235/20/98 239/20/100 240/20/101
f 242/20/104 240/20/101 241/20/102 245/20/105
f 244/20/79 243/20/103 240/20/101 242/20/104
f 219/20/78 225/20/86 243/20/103 244/20/79
f 225/20/86 236/20/88 235/20/98 243/20/103
f 218/20/77 244/20/79 242/20/104 246/20/106
f 246/20/106 242/20/104 245/20/105 247/20/107
f 209/20/66 246/20/106 247/20/107 249/20/67
f 211/20/68 218/20/77 246/20/106 209/20/66
f 249/20/67 247/20/107 248/20/108 250/20/109
f 247/20/107 245/20/105 269/20/110 248/20/108
f 208/20/65 249/20/67 250/20/109 252/20/111
f 252/20/111 250/20/109 251/20/112 253/20/113
f 250/20/109 248/20/108 267/20/114 251/20/112
f 206/20/61 208/20/65 252/20/111 254/20/115
f 254/20/115 252/20/111 253/20/113 255/20/116
f 256/20/117 254/20/115 255/20/116 257/20/118
f 203/20/58 206/20/61 254/20/115 256/20/117
f 258/20/119 256/20/117 257/20/118 259/20/120
f 201/20/59 203/20/58 256/20/117 258/20/119
f 259/20/120 257/20/118 261/20/121 260/20/122
f 260/20/122 261/20/121 262/20/51 196/20/50
f 261/20/121 263/20/123 264/20/72 262/20/51
f 257/20/118 255/20/116 263/20/123 261/20/121
f 263/20/123 265/20/124 214/20/73 264/20/72
f 255/20/116 253/20/113 265/20/124 263/20/123
f 265/20/124 266/20/81 216/20/74 214/20/73
f 253/20/113 251/20/112 266/20/81 265/20/124
f 251/20/112 267/20/114 221/20/82 266/20/81
f 262/20/51 264/20/72 213/20/69 197/20/52
f 267/20/114 268/20/90 223/20/83 221/20/82
f 248/20/108 269/20/110 268/20/90 267/20/114
f 269/20/110 270/20/125 228/20/91 268/20/90
f 245/20/105 241/20/102 270/20/125 269/20/110
f 270/20/125 271/20/126 230/20/92 228/20/91
f 241/20/102 238/20/99 271/20/126 270/20/125
f 271/20/126 232/20/94 230/20/92
f 238/20/99 232/20/94 271/20/126
f 197/20/52 213/20/69 205/20/62 199/20/54
l 78 79
l 104 105
