# Blender 5.2.1 LTS
# www.blender.org
mtllib Anorexic Right Arm.mtl
o RenderMesh_140242362964055
v 2.747838 -0.098572 0.215912
v 2.737255 -0.085012 0.226406
v 2.741118 -0.100096 0.226668
v 2.735056 -0.111713 0.226123
v 2.740328 -0.112861 0.215912
v 2.737256 -0.085012 0.016428
v 2.747838 -0.098572 0.026922
v 2.741118 -0.100096 0.016165
v 2.743043 -0.084031 0.026922
v 2.563669 0.137428 0.016428
v 2.547191 0.134632 0.007532
v 2.533028 0.147172 0.008926
v 2.525178 0.157231 0.016711
v 2.521361 0.153417 0.011090
v 2.527638 0.159688 0.026922
v 2.545838 0.150143 0.016165
v 2.553087 0.150987 0.026922
v 2.569456 0.138409 0.026922
v 2.493438 0.125514 0.243334
v 2.696110 -0.091984 0.241246
v 2.522528 0.130449 0.241246
v 1.107869 -0.109521 0.243334
v 1.098462 -0.095761 0.241246
v 2.482855 0.139074 0.241246
v 1.090485 -0.084097 0.235302
v 2.547191 0.134632 0.235302
v 2.533028 0.147171 0.233908
v 2.473884 0.150570 0.235302
v 2.467891 0.158251 0.226406
v 2.512410 0.144472 0.238727
v 2.503597 0.153570 0.233908
v 2.500251 0.160054 0.226668
v 2.496981 0.163186 0.215912
v 2.521361 0.153417 0.231744
v 2.525178 0.157231 0.226123
v 2.527638 0.159688 0.215912
v 2.527638 0.159688 0.026922
v 2.553087 0.150987 0.026922
v 2.553087 0.150987 0.215912
v 2.545838 0.150143 0.226668
v 2.569456 0.138409 0.215912
v 2.569456 0.138409 0.026922
v 2.563669 0.137428 0.226406
v 2.547191 0.134632 0.235302
v 2.743043 -0.084031 0.215912
v 2.737255 -0.085012 0.226406
v 2.743043 -0.084031 0.026922
v 2.747838 -0.098572 0.026922
v 2.563669 0.137428 0.016428
v 2.545838 0.150143 0.016165
v 2.533028 0.147172 0.008926
v 2.525178 0.157231 0.016711
v 2.740329 -0.112861 0.026922
v 2.735056 -0.111713 0.016711
v 2.741118 -0.100096 0.016165
v 2.726876 -0.109934 0.011090
v 2.727206 -0.101654 0.008926
v 2.720775 -0.087804 0.007532
v 2.737256 -0.085012 0.016428
v 2.547191 0.134632 0.007532
v 2.545838 0.150143 0.226668
v 2.527638 0.159688 0.215912
v 2.525178 0.157231 0.226123
v 2.533028 0.147171 0.233908
v -1.693999 -0.159735 0.011090
v -1.714600 -0.166713 0.016165
v -1.700382 -0.156760 0.016711
v -1.487657 -0.455908 0.215912
v -1.647294 -0.455908 0.026922
v -0.743832 -0.455908 0.026922
v -0.743832 -0.455908 0.215912
v -0.743832 -0.453038 0.226406
v -0.743832 -0.453038 0.016428
v -0.727898 -0.453038 0.016428
v -1.647294 -0.453038 0.016428
v -0.727898 -0.444864 0.007532
v -0.743832 -0.444864 0.007532
v 0.032777 -0.444855 0.007532
v -1.647294 -0.444864 0.007532
v 0.032967 -0.453029 0.016428
v -1.677417 -0.442947 0.008926
v -0.727898 -0.455908 0.026922
v -0.743832 -0.455908 0.215912
v 0.033034 -0.455899 0.026922
v -0.727898 -0.455908 0.215912
v -1.679027 -0.449574 0.016165
v -1.693999 -0.439972 0.011090
v -1.700382 -0.442947 0.016711
v -1.678252 -0.453038 0.026922
v -1.704496 -0.444865 0.026922
v -1.647294 -0.455908 0.161797
v -1.678252 -0.453038 0.162830
v -1.704496 -0.444865 0.026922
v -1.634285 -0.455908 0.183968
v -1.704496 -0.444865 0.163707
v -1.663445 -0.453038 0.188062
v -1.722032 -0.432632 0.026922
v -1.601750 -0.455908 0.200473
v -1.553059 -0.455908 0.211502
v -1.490706 -0.453038 0.226406
v -1.565138 -0.453038 0.221386
v -1.624069 -0.453038 0.208039
v -1.688167 -0.444865 0.191533
v -1.722032 -0.432632 0.164292
v -1.642991 -0.444865 0.214453
v -1.575378 -0.444865 0.229767
v -1.493290 -0.444864 0.235302
v -1.704686 -0.432632 0.193852
v -0.743832 -0.444864 0.235302
v -1.495018 -0.432632 0.241246
v -0.727898 -0.453038 0.226406
v -0.743832 -0.432632 0.241246
v -0.727898 -0.444864 0.235302
v 0.032967 -0.453029 0.226406
v -1.582221 -0.432632 0.235366
v -1.495624 -0.418203 0.243334
v -1.584623 -0.418203 0.237333
v -1.584623 -0.181504 0.237333
v -1.495624 -0.181504 0.243334
v -1.582221 -0.167075 0.235366
v -1.655633 -0.432632 0.218738
v -1.584623 -0.418203 0.237333
v -1.660073 -0.418203 0.220243
v -1.710487 -0.418203 0.194667
v -1.660073 -0.418203 0.220243
v -1.710487 -0.181504 0.194667
v -1.660073 -0.181504 0.220243
v -1.584623 -0.181504 0.237333
v -1.655633 -0.167075 0.218738
v -1.704686 -0.167075 0.193852
v -1.642991 -0.154842 0.214453
v -1.575378 -0.154842 0.229767
v -1.688167 -0.154842 0.191533
v -1.624069 -0.146669 0.208039
v -1.495018 -0.167075 0.241246
v -1.493290 -0.154842 0.235302
v -1.722032 -0.167075 0.164292
v -1.565138 -0.146669 0.221386
v -1.601750 -0.143799 0.200473
v -1.490706 -0.146669 0.226406
v -1.634285 -0.143799 0.183968
v -1.553059 -0.143799 0.211502
v -1.663446 -0.146669 0.188062
v -1.704496 -0.154842 0.163707
v -1.678252 -0.146669 0.162830
v -1.487657 -0.143799 0.215912
v -1.647294 -0.143799 0.161797
v -1.704496 -0.154843 0.026922
v -1.722032 -0.167075 0.026922
v -1.678252 -0.146669 0.026922
v -1.700382 -0.156760 0.016711
v -1.704496 -0.154843 0.026922
v -1.647294 -0.143799 0.026922
v -1.714600 -0.166713 0.016165
v -1.679027 -0.150133 0.016165
v -1.693999 -0.159735 0.011090
v -1.647294 -0.146669 0.016428
v -1.677417 -0.156760 0.008926
v -1.647294 -0.154842 0.007532
v -1.700382 -0.167464 0.008926
v -1.722032 -0.181504 0.016428
v -1.704496 -0.181504 0.007532
v -1.704496 -0.418203 0.007532
v -1.728189 -0.181504 0.026922
v -1.722032 -0.418203 0.016428
v -1.700382 -0.432243 0.008926
v -1.714600 -0.432994 0.016165
v -1.693999 -0.439972 0.011090
v -1.700382 -0.442947 0.016711
v -1.704496 -0.444865 0.026922
v -1.728189 -0.418203 0.026922
v -1.728189 -0.418203 0.164498
v -1.710487 -0.418203 0.194667
v -1.728189 -0.181504 0.164498
v -1.710487 -0.181504 0.194667
v 0.958672 -0.412957 0.026922
v 0.714585 -0.435006 0.215912
v 0.714585 -0.435006 0.026922
v 0.958672 -0.412957 0.215911
v 0.957268 -0.410160 0.016428
v 0.713672 -0.432164 0.016428
v 0.953268 -0.402196 0.007532
v 0.711073 -0.424074 0.007532
v 1.286615 -0.370938 0.026922
v 1.284744 -0.368202 0.016428
v 0.957268 -0.410160 0.016428
v 1.279415 -0.360408 0.007532
v 0.953268 -0.402196 0.007532
v 1.286615 -0.370938 0.215911
v 1.284744 -0.368202 0.226405
v 2.692563 -0.129651 0.226406
v 2.694668 -0.132348 0.026922
v 2.694668 -0.132348 0.215912
v 2.719847 -0.121342 0.226668
v 2.692564 -0.129651 0.016428
v 1.284744 -0.368202 0.016428
v 2.686569 -0.121970 0.007532
v 1.279415 -0.360408 0.007532
v 2.713474 -0.115371 0.008926
v 2.719847 -0.121342 0.016165
v 2.735056 -0.111713 0.016711
v 2.726876 -0.109934 0.011090
v 2.740329 -0.112861 0.026922
v 2.721657 -0.124721 0.026922
v 2.721657 -0.124721 0.215912
v 2.740329 -0.112861 0.026922
v 2.740328 -0.112861 0.215912
v 2.735056 -0.111713 0.226123
v 2.747838 -0.098572 0.215912
v 2.713472 -0.115371 0.233908
v 2.726876 -0.109934 0.231744
v 2.741118 -0.100096 0.226668
v 2.707687 -0.105761 0.238727
v 2.727206 -0.101654 0.233908
v 2.720775 -0.087805 0.235302
v 2.677598 -0.110474 0.241246
v 2.686569 -0.121970 0.235302
v 2.720775 -0.087805 0.235302
v 2.667016 -0.096914 0.243334
v 1.262032 -0.334984 0.243334
v 0.360627 -0.441402 0.235302
v 0.707183 -0.411966 0.241246
v 0.358956 -0.429183 0.241246
v 0.361744 -0.449565 0.226406
v 0.702593 -0.397683 0.243334
v 0.356983 -0.414771 0.243334
v 0.711073 -0.424074 0.235302
v 0.033034 -0.455899 0.215912
v 0.362137 -0.452432 0.215912
v 0.362137 -0.452432 0.026922
v 0.361744 -0.449565 0.016428
v 0.032967 -0.453029 0.016428
v 0.360627 -0.441402 0.007532
v 0.032777 -0.444855 0.007532
v 0.713673 -0.432164 0.226406
v 0.953269 -0.402196 0.235302
v 0.362137 -0.452432 0.026922
v 0.714585 -0.435006 0.026922
v 0.713672 -0.432164 0.016428
v 0.361744 -0.449565 0.016428
v 0.711073 -0.424074 0.007532
v 0.360627 -0.441402 0.007532
v 0.957268 -0.410160 0.226405
v 0.947283 -0.390277 0.241246
v 1.279415 -0.360408 0.235302
v 1.271439 -0.348744 0.241246
v 2.686569 -0.121970 0.235302
v 0.940221 -0.376217 0.243334
v 1.107869 -0.109521 0.243334
v 0.627398 -0.163664 0.243334
v 0.324664 -0.178619 0.243334
v 0.824507 -0.145802 0.243334
v 0.622807 -0.149380 0.241246
v 0.322692 -0.164206 0.241246
v 0.618917 -0.137271 0.235302
v 0.817446 -0.131743 0.241246
v 0.321019 -0.151987 0.235302
v 0.811460 -0.119823 0.235302
v -0.727898 -0.418203 0.243334
v -0.727898 -0.181504 0.243334
v -0.743832 -0.181504 0.243334
v -0.743832 -0.418203 0.243334
v -1.495624 -0.181504 0.243334
v -1.495624 -0.418203 0.243334
v -0.743832 -0.167075 0.241246
v -0.727898 -0.432632 0.241246
v -0.743832 -0.154842 0.235302
v -0.743832 -0.146669 0.226406
v -0.727898 -0.167075 0.241246
v -0.727898 -0.154842 0.235302
v -0.727898 -0.146669 0.226406
v 0.025815 -0.146678 0.226406
v 0.025747 -0.143808 0.215912
v 0.026005 -0.154852 0.235302
v 0.026291 -0.167084 0.241246
v 0.026628 -0.181513 0.243334
v 0.032154 -0.418193 0.243334
v 0.324664 -0.178619 0.243334
v 0.356983 -0.414771 0.243334
v 0.032490 -0.432622 0.241246
v 0.032777 -0.444856 0.235302
v 0.616317 -0.129180 0.226406
v 0.807461 -0.111859 0.226406
v 1.085156 -0.076303 0.226406
v 0.319901 -0.143822 0.226406
v 0.615404 -0.126338 0.215912
v 0.319510 -0.140956 0.215912
v 0.319510 -0.140956 0.026922
v 0.025747 -0.143808 0.026922
v 0.025815 -0.146678 0.016428
v 0.319901 -0.143822 0.016428
v 0.319510 -0.140956 0.026922
v 0.026005 -0.154852 0.007532
v 0.615404 -0.126338 0.026922
v 0.616317 -0.129180 0.016428
v 0.321019 -0.151987 0.007532
v 0.026291 -0.167084 0.001587
v 0.618917 -0.137271 0.007532
v 0.322691 -0.164206 0.001587
v 0.026628 -0.181513 -0.000500
v -0.727898 -0.181504 -0.000500
v -0.727898 -0.418202 -0.000500
v 0.324664 -0.178619 -0.000500
v 0.032154 -0.418193 -0.000500
v -0.727898 -0.432632 0.001587
v 0.032490 -0.432622 0.001587
v 0.356983 -0.414771 -0.000500
v 0.358955 -0.429183 0.001587
v 0.032777 -0.444855 0.007532
v 0.360627 -0.441402 0.007532
v 0.702593 -0.397682 -0.000500
v 0.627398 -0.163664 -0.000500
v 0.324664 -0.178619 -0.000500
v 0.622807 -0.149380 0.001587
v 0.707182 -0.411966 0.001587
v 0.360627 -0.441402 0.007532
v 0.711073 -0.424074 0.007532
v 0.947283 -0.390277 0.001587
v 0.953268 -0.402196 0.007532
v 0.711073 -0.424074 0.007532
v 0.940221 -0.376217 -0.000500
v 0.627398 -0.163664 -0.000500
v 0.824507 -0.145802 -0.000500
v 0.817446 -0.131742 0.001587
v 0.811460 -0.119823 0.007532
v 0.807461 -0.111859 0.016428
v 0.806055 -0.109062 0.026922
v 0.615404 -0.126338 0.026922
v 0.806055 -0.109062 0.215912
v 1.083285 -0.073566 0.215912
v 1.083285 -0.073565 0.026922
v 0.806055 -0.109062 0.026922
v 1.085156 -0.076303 0.016428
v 2.465786 0.160949 0.026922
v 2.465786 0.160949 0.215912
v 1.090485 -0.084097 0.007532
v 2.467891 0.158251 0.016428
v 2.496981 0.163186 0.026922
v 2.473884 0.150570 0.007532
v 2.500251 0.160054 0.016165
v 2.482855 0.139074 0.001587
v 2.525178 0.157231 0.016711
v 2.521361 0.153417 0.011090
v 2.503597 0.153570 0.008926
v 2.473884 0.150570 0.007532
v 2.512410 0.144473 0.004106
v 2.533028 0.147172 0.008926
v 2.522528 0.130449 0.001587
v 2.547191 0.134632 0.007532
v 2.720775 -0.087804 0.007532
v 2.696111 -0.091984 0.001587
v 2.727206 -0.101654 0.008926
v 2.493438 0.125514 -0.000500
v 1.098462 -0.095761 0.001587
v 0.824507 -0.145802 -0.000500
v 1.107869 -0.109521 -0.000500
v 2.667016 -0.096914 -0.000500
v 1.262032 -0.334984 -0.000500
v 0.947283 -0.390277 0.001587
v 2.677598 -0.110474 0.001587
v 1.271439 -0.348744 0.001587
v 0.953268 -0.402196 0.007532
v 1.279415 -0.360408 0.007532
v 2.686569 -0.121970 0.007532
v 1.279415 -0.360408 0.007532
v 2.713474 -0.115371 0.008926
v 2.707687 -0.105760 0.004106
v 2.726876 -0.109934 0.011090
v -0.727898 -0.143799 0.215912
v -0.743832 -0.143799 0.026922
v -0.743832 -0.143799 0.215912
v -0.727898 -0.143799 0.026922
v -0.743832 -0.146669 0.016428
v -0.743832 -0.143799 0.215912
v -0.743832 -0.154842 0.007532
v -1.647294 -0.154842 0.007532
v -0.727898 -0.146669 0.016428
v 0.025747 -0.143808 0.026922
v -0.727898 -0.143799 0.215912
v -1.647294 -0.167075 0.001587
v -0.727898 -0.154842 0.007532
v -0.727898 -0.167075 0.001587
v -0.743832 -0.167075 0.001587
v -0.743832 -0.181504 -0.000500
v -0.727898 -0.418202 -0.000500
v -0.743832 -0.418203 -0.000500
v -1.647294 -0.181504 -0.000500
v -0.743832 -0.418203 -0.000500
v -0.743832 -0.432632 0.001587
v -0.727898 -0.444864 0.007532
v -0.743832 -0.444864 0.007532
v 0.032777 -0.444855 0.007532
v -1.647294 -0.418203 -0.000500
v -0.743832 -0.432632 0.001587
v -1.647294 -0.444864 0.007532
v -1.678252 -0.181504 0.001587
v -1.647294 -0.432632 0.001587
v -1.677417 -0.442947 0.008926
v -1.678252 -0.418203 0.001587
v -1.679027 -0.432994 0.004106
v -1.693999 -0.439972 0.011090
v -1.700382 -0.432243 0.008926
v -1.704496 -0.418203 0.007532
v -1.704496 -0.181504 0.007532
v -1.700382 -0.167464 0.008926
v -1.679027 -0.166713 0.004106
v -1.677417 -0.156760 0.008926
v -1.647294 -0.154842 0.007532
vn 0.9568 -0.0868 0.2774
vn 0.5945 0.3159 0.7395
vn 0.6489 -0.0791 0.7568
vn 0.5471 -0.5472 0.6334
vn 0.6911 -0.6923 0.2077
vn 0.5945 0.3159 -0.7394
vn 0.9568 -0.0867 -0.2775
vn 0.6488 -0.0790 -0.7568
vn 0.8484 0.4603 -0.2613
vn 0.5059 0.5305 -0.6802
vn 0.2763 0.3082 -0.9103
vn 0.2184 0.4970 -0.8398
vn 0.1881 0.8643 -0.4664
vn 0.2183 0.4970 -0.8398
vn 0.1466 0.6745 -0.7235
vn 0.2105 0.9681 -0.1356
vn 0.3622 0.7304 -0.5790
vn 0.1880 0.8644 -0.4664
vn 0.4477 0.8767 -0.1757
vn 0.6766 0.7013 -0.2244
vn 0.0205 0.0937 0.9954
vn 0.1421 0.0292 0.9894
vn 0.1163 0.1715 0.9783
vn -0.0097 0.0665 0.9977
vn -0.0405 0.2724 0.9613
vn -0.0131 0.2942 0.9556
vn -0.0840 0.5646 0.8211
vn 0.2762 0.3082 0.9103
vn 0.2183 0.4970 0.8398
vn -0.0602 0.5814 0.8114
vn -0.0992 0.8609 0.4991
vn 0.0806 0.3706 0.9253
vn 0.0341 0.6282 0.7773
vn 0.0235 0.8783 0.4775
vn 0.0193 0.9908 0.1340
vn 0.1466 0.6744 0.7237
vn 0.1880 0.8643 0.4664
vn 0.2105 0.9682 0.1356
vn 0.2105 0.9682 -0.1356
vn 0.4477 0.8768 -0.1756
vn 0.4477 0.8768 0.1757
vn 0.3623 0.7304 0.5790
vn 0.6768 0.7013 0.2237
vn 0.5059 0.5306 0.6801
vn 0.2763 0.3082 0.9103
vn 0.8484 0.4603 0.2612
vn 0.8485 0.4603 -0.2612
vn 0.9568 -0.0868 -0.2773
vn 0.5059 0.5306 -0.6801
vn 0.3622 0.7304 -0.5791
vn 0.1880 0.8643 -0.4665
vn 0.9568 -0.0868 -0.2775
vn 0.6911 -0.6923 -0.2077
vn 0.5471 -0.5472 -0.6334
vn 0.6488 -0.0791 -0.7569
vn 0.3701 -0.3708 -0.8518
vn 0.3511 -0.0882 -0.9322
vn 0.3132 0.1497 -0.9378
vn 0.5944 0.3159 -0.7395
vn 0.3622 0.7304 0.5790
vn -0.2643 0.5674 -0.7798
vn -0.5376 0.4962 -0.6817
vn -0.3582 0.7678 -0.5312
vn -0.0047 -0.9900 0.1411
vn -0.0468 -0.9893 -0.1383
vn -0.0002 -0.9910 -0.1338
vn -0.0001 -0.9910 0.1339
vn -0.0000 -0.8689 0.4949
vn -0.0000 -0.8689 -0.4949
vn -0.0434 -0.8694 -0.4922
vn -0.0001 -0.5881 -0.8088
vn 0.0033 -0.5886 -0.8084
vn -0.0357 -0.5882 -0.8079
vn 0.0046 -0.8695 -0.4939
vn -0.1364 -0.5826 -0.8012
vn 0.0052 -0.9910 -0.1341
vn -0.0000 -0.9910 0.1342
vn -0.1699 -0.8483 -0.5014
vn -0.2643 -0.5671 -0.7801
vn -0.3580 -0.7681 -0.5309
vn -0.1868 -0.9721 -0.1422
vn -0.4170 -0.8946 -0.1605
vn -0.0482 -0.9987 0.0140
vn -0.1933 -0.9795 0.0562
vn -0.0467 -0.9973 0.0570
vn -0.4222 -0.8982 0.1223
vn -0.1787 -0.9593 0.2184
vn -0.7292 -0.6446 -0.2294
vn -0.0356 -0.9938 0.1050
vn -0.0192 -0.9904 0.1368
vn -0.0168 -0.8641 0.5031
vn -0.0675 -0.8741 0.4810
vn -0.1303 -0.9139 0.3845
vn -0.3600 -0.8228 0.4399
vn -0.7317 -0.6474 0.2133
vn -0.2317 -0.6920 0.6836
vn -0.1102 -0.6085 0.7859
vn -0.0269 -0.5847 0.8108
vn -0.5420 -0.5176 0.6621
vn -0.0001 -0.5880 0.8088
vn -0.0320 -0.2870 0.9574
vn -0.0000 -0.2884 0.9575
vn 0.0046 -0.8696 0.4937
vn -0.1325 -0.3053 0.9430
vn -0.0333 -0.0713 0.9969
vn -0.1385 -0.0769 0.9874
vn -0.1385 0.0773 0.9873
vn -0.0333 0.0717 0.9969
vn -0.1324 0.3050 0.9431
vn -0.2979 -0.3719 0.8791
vn -0.3195 -0.0959 0.9427
vn -0.6267 -0.1440 0.7658
vn -0.6267 0.1447 0.7657
vn -0.3196 0.0961 0.9427
vn -0.2981 0.3716 0.8793
vn -0.5422 0.5175 0.6620
vn -0.2318 0.6918 0.6839
vn -0.1103 0.6084 0.7860
vn -0.3601 0.8226 0.4400
vn -0.1301 0.9140 0.3842
vn -0.0320 0.2873 0.9573
vn -0.0271 0.5850 0.8106
vn -0.7312 0.6479 0.2133
vn -0.0675 0.8744 0.4806
vn -0.0356 0.9938 0.1050
vn -0.0168 0.8641 0.5031
vn -0.0467 0.9973 0.0571
vn -0.0192 0.9904 0.1368
vn -0.1787 0.9593 0.2184
vn -0.4220 0.8983 0.1226
vn -0.1933 0.9795 0.0562
vn -0.0047 0.9900 0.1411
vn -0.0483 0.9987 0.0140
vn -0.4172 0.8945 -0.1606
vn -0.7292 0.6447 -0.2294
vn -0.1869 0.9720 -0.1421
vn -0.3581 0.7679 -0.5311
vn -0.3582 0.7678 -0.5311
vn -0.4173 0.8945 -0.1606
vn -0.0468 0.9893 -0.1383
vn -0.5377 0.4962 -0.6817
vn -0.1698 0.8485 -0.5012
vn -0.2643 0.5675 -0.7798
vn -0.0435 0.8694 -0.4922
vn -0.1365 0.5823 -0.8014
vn -0.0357 0.5880 -0.8081
vn -0.2643 0.5674 -0.7799
vn -0.3034 0.3265 -0.8952
vn -0.6287 0.1439 -0.7642
vn -0.3201 0.0898 -0.9431
vn -0.3201 -0.0893 -0.9432
vn -0.9378 0.2032 -0.2814
vn -0.6290 -0.1443 -0.7639
vn -0.3033 -0.3269 -0.8951
vn -0.5378 -0.4956 -0.6820
vn -0.2644 -0.5671 -0.7801
vn -0.3581 -0.7681 -0.5309
vn -0.4170 -0.8946 -0.1606
vn -0.9376 -0.2041 -0.2814
vn -0.9410 -0.1995 0.2734
vn -0.6268 -0.1440 0.7657
vn -0.9407 0.1999 0.2741
vn -0.6267 0.1448 0.7657
vn 0.1072 -0.9848 -0.1366
vn 0.0689 -0.9884 0.1351
vn 0.0691 -0.9884 -0.1349
vn 0.1072 -0.9848 0.1366
vn 0.0939 -0.8605 -0.5007
vn 0.0604 -0.8662 -0.4960
vn 0.0630 -0.5794 -0.8126
vn 0.0408 -0.5860 -0.8093
vn 0.1454 -0.9796 -0.1385
vn 0.1267 -0.8526 -0.5070
vn 0.0847 -0.5703 -0.8171
vn 0.1455 -0.9795 0.1390
vn 0.1266 -0.8525 0.5072
vn 0.1896 -0.8319 0.5216
vn 0.2171 -0.9648 -0.1486
vn 0.2171 -0.9648 0.1486
vn 0.3315 -0.7564 0.5639
vn 0.1896 -0.8319 -0.5216
vn 0.1307 -0.5413 -0.8306
vn 0.0848 -0.5703 -0.8171
vn 0.2341 -0.4739 -0.8489
vn 0.3315 -0.7564 -0.5639
vn 0.5470 -0.5473 -0.6334
vn 0.6910 -0.6924 -0.2077
vn 0.3858 -0.9076 -0.1658
vn 0.3858 -0.9076 0.1659
vn 0.6910 -0.6924 0.2076
vn 0.9569 -0.0867 0.2773
vn 0.2341 -0.4739 0.8489
vn 0.3701 -0.3708 0.8518
vn 0.6488 -0.0790 0.7569
vn 0.1804 -0.1811 0.9668
vn 0.3511 -0.0882 0.9322
vn 0.3132 0.1497 0.9378
vn 0.5944 0.3158 0.7395
vn 0.0788 -0.2465 0.9659
vn 0.1307 -0.5412 0.8307
vn 0.0441 -0.0437 0.9981
vn 0.0105 -0.0697 0.9975
vn 0.0177 -0.5898 0.8074
vn 0.0202 -0.2889 0.9572
vn 0.0088 -0.2914 0.9566
vn 0.0260 -0.8692 0.4937
vn 0.0052 -0.0725 0.9974
vn 0.0022 -0.0732 0.9973
vn 0.0407 -0.5859 0.8094
vn 0.0052 -0.9910 0.1341
vn 0.0297 -0.9905 0.1342
vn 0.0297 -0.9905 -0.1340
vn 0.0259 -0.8693 -0.4935
vn 0.0045 -0.8695 -0.4939
vn 0.0176 -0.5901 -0.8071
vn 0.0604 -0.8663 0.4959
vn 0.0632 -0.5791 0.8128
vn 0.0690 -0.9884 -0.1349
vn 0.0940 -0.8606 0.5005
vn 0.0310 -0.2844 0.9582
vn 0.0847 -0.5702 0.8171
vn 0.0414 -0.2788 0.9595
vn 0.1306 -0.5413 0.8306
vn 0.0078 -0.0712 0.9974
vn -0.0048 0.0687 0.9976
vn -0.0021 0.0693 0.9976
vn -0.0074 0.0678 0.9977
vn -0.0196 0.2814 0.9594
vn -0.0083 0.2842 0.9587
vn -0.0405 0.5801 0.8135
vn -0.0303 0.2779 0.9601
vn -0.0172 0.5841 0.8115
vn -0.0627 0.5737 0.8166
vn -0.0001 -0.0717 0.9974
vn -0.0000 0.0714 0.9974
vn -0.0001 -0.0716 0.9974
vn -0.0000 0.2884 0.9575
vn -0.0001 0.5879 0.8089
vn -0.0000 0.8690 0.4949
vn -0.0000 0.5882 0.8087
vn -0.0044 0.8688 0.4951
vn -0.0046 0.9910 0.1338
vn -0.0028 0.5878 0.8090
vn -0.0015 0.2877 0.9577
vn -0.0004 0.0708 0.9975
vn 0.0003 -0.0718 0.9974
vn 0.0016 -0.2890 0.9573
vn 0.0032 -0.5886 0.8084
vn -0.0602 0.8637 0.5004
vn -0.0937 0.8581 0.5049
vn -0.1263 0.8501 0.5113
vn -0.0256 0.8668 0.4979
vn -0.0689 0.9883 0.1363
vn -0.0291 0.9904 0.1355
vn -0.0291 0.9904 -0.1354
vn -0.0047 0.9910 -0.1339
vn -0.0044 0.8689 -0.4949
vn -0.0256 0.8668 -0.4979
vn -0.0028 0.5878 -0.8090
vn -0.0689 0.9883 -0.1363
vn -0.0602 0.8637 -0.5004
vn -0.0172 0.5841 -0.8115
vn -0.0015 0.2877 -0.9577
vn -0.0405 0.5801 -0.8135
vn -0.0083 0.2842 -0.9587
vn -0.0004 0.0707 -0.9975
vn -0.0000 0.0714 -0.9974
vn -0.0001 -0.0716 -0.9974
vn -0.0021 0.0693 -0.9976
vn 0.0003 -0.0718 -0.9974
vn -0.0000 -0.2884 -0.9575
vn 0.0016 -0.2890 -0.9573
vn 0.0022 -0.0731 -0.9973
vn 0.0088 -0.2914 -0.9566
vn 0.0033 -0.5885 -0.8085
vn 0.0176 -0.5900 -0.8072
vn 0.0051 -0.0725 -0.9974
vn -0.0047 0.0686 -0.9976
vn -0.0196 0.2814 -0.9594
vn 0.0202 -0.2889 -0.9571
vn 0.0408 -0.5859 -0.8093
vn 0.0311 -0.2845 -0.9582
vn 0.0630 -0.5793 -0.8127
vn 0.0078 -0.0711 -0.9974
vn -0.0074 0.0679 -0.9977
vn -0.0302 0.2780 -0.9601
vn -0.0627 0.5739 -0.8165
vn -0.0937 0.8581 -0.5049
vn -0.1075 0.9846 -0.1380
vn -0.1075 0.9847 0.1374
vn -0.1455 0.9794 0.1397
vn -0.1455 0.9794 -0.1397
vn -0.1263 0.8501 -0.5113
vn -0.1161 0.9832 -0.1411
vn -0.1161 0.9832 0.1411
vn -0.0841 0.5646 -0.8211
vn -0.0992 0.8609 -0.4991
vn 0.0193 0.9908 -0.1338
vn -0.0602 0.5814 -0.8114
vn 0.0235 0.8783 -0.4775
vn -0.0132 0.2944 -0.9556
vn 0.1466 0.6745 -0.7236
vn 0.0341 0.6282 -0.7773
vn -0.0602 0.5813 -0.8114
vn 0.0806 0.3706 -0.9253
vn 0.2183 0.4970 -0.8399
vn 0.1163 0.1715 -0.9783
vn 0.2762 0.3082 -0.9104
vn 0.3131 0.1497 -0.9378
vn 0.1421 0.0292 -0.9894
vn 0.0205 0.0937 -0.9954
vn -0.0404 0.2721 -0.9614
vn -0.0097 0.0665 -0.9977
vn 0.0441 -0.0437 -0.9981
vn 0.0105 -0.0697 -0.9975
vn 0.0788 -0.2466 -0.9659
vn 0.0414 -0.2788 -0.9595
vn 0.0847 -0.5702 -0.8171
vn 0.1306 -0.5412 -0.8307
vn 0.1804 -0.1811 -0.9668
vn 0.3701 -0.3707 -0.8518
vn -0.0000 0.9910 0.1342
vn -0.0002 0.9910 -0.1338
vn -0.0001 0.9910 0.1339
vn -0.0001 0.9910 -0.1339
vn -0.0000 0.8690 -0.4949
vn -0.0001 0.5878 -0.8090
vn -0.0357 0.5879 -0.8081
vn -0.0346 0.2869 -0.9573
vn -0.0000 0.2884 -0.9575
vn -0.0001 -0.0717 -0.9974
vn -0.0343 0.0732 -0.9967
vn -0.0001 -0.5880 -0.8089
vn -0.0343 -0.0735 -0.9967
vn -0.0357 -0.5882 -0.8080
vn -0.1379 0.0766 -0.9875
vn -0.0346 -0.2869 -0.9573
vn -0.1364 -0.5825 -0.8013
vn -0.1379 -0.0766 -0.9875
vn -0.1377 -0.2953 -0.9455
vn -0.3200 -0.0893 -0.9432
vn -0.3200 0.0899 -0.9431
vn -0.1376 0.2957 -0.9453
vn -0.1365 0.5822 -0.8015
vt 1.000000 0.249715
vt 1.000000 0.271997
vt 1.000000 0.258285
vt 1.000000 0.232354
vt 1.000000 0.221884
vt 1.000000 0.098814
vt 1.000000 0.074864
vt 1.000000 0.065137
vt 1.000000 0.106013
vt 1.000000 0.651186
vt 1.000000 0.659389
vt 1.000000 0.693127
vt 1.000000 0.732354
vt 0.999082 0.750295
vt 1.000000 0.721884
vt 1.000000 0.684862
vt 1.000000 0.675136
vt 1.000000 0.643987
vt 0.993516 0.469795
vt 0.996025 0.280204
vt 0.996000 0.469796
vt 0.875000 0.469773
vt 0.875000 0.481340
vt 0.993508 0.481353
vt 0.875000 0.500000
vt 1.000000 0.469796
vt 1.000000 0.481042
vt 0.993485 0.500000
vt 0.993485 0.517356
vt 0.996058 0.481644
vt 0.995911 0.500000
vt 0.996040 0.517087
vt 0.995978 0.528116
vt 0.999082 0.499705
vt 1.000000 0.517646
vt 1.000000 0.528116
vt 1.000000 0.500285
vt 1.000000 0.491715
vt 1.000000 0.485204
vt 1.000000 0.478003
vt 1.000000 0.264796
vt 1.000000 0.028116
vt 1.000000 0.017646
vt 1.000000 0.038301
vt 1.000000 0.056872
vt 1.000000 0.090611
vt 0.001447 0.733274
vt 0.000000 0.683712
vt 0.000000 0.732354
vt 0.030067 0.223781
vt 0.010241 0.028206
vt 0.125000 0.028116
vt 0.125000 0.221884
vt 0.125000 0.232644
vt 0.125000 0.017356
vt 0.250000 0.017356
vt 0.010251 0.017418
vt 0.250000 0.000000
vt 0.125000 0.000000
vt 0.374958 0.000000
vt 0.010273 0.000000
vt 0.374989 0.017356
vt 0.006447 0.000000
vt 0.250000 0.028116
vt 0.375000 0.028116
vt 0.250000 0.221884
vt 0.006226 0.017134
vt 0.004342 0.000000
vt 0.000000 0.017646
vt 0.006319 0.028181
vt 0.000000 0.028116
vt 0.009585 0.167698
vt 0.005844 0.168222
vt 0.010329 0.192455
vt 0.000010 0.169163
vt 0.006470 0.196284
vt 0.000000 0.076378
vt 0.013899 0.211958
vt 0.021022 0.221744
vt 0.029878 0.234013
vt 0.019624 0.232302
vt 0.010160 0.222193
vt 0.000785 0.200390
vt 0.000003 0.199905
vt 0.003226 0.241169
vt 0.018126 0.247851
vt 0.029536 0.249974
vt 0.000759 0.226248
vt 0.125000 0.250000
vt 0.029533 0.268639
vt 0.250000 0.232644
vt 0.125000 0.268644
vt 0.250000 0.250000
vt 0.375008 0.232644
vt 0.018204 0.266879
vt 0.029533 0.280202
vt 0.018231 0.278647
vt 0.018231 0.471353
vt 0.029533 0.469798
vt 0.018204 0.483121
vt 0.002972 0.261739
vt 0.002883 0.274218
vt 0.000749 0.242361
vt 0.000749 0.507639
vt 0.002883 0.475783
vt 0.002972 0.488261
vt 0.000759 0.523752
vt 0.003226 0.508831
vt 0.018126 0.502149
vt 0.000785 0.549610
vt 0.010160 0.527807
vt 0.029533 0.481361
vt 0.029536 0.500026
vt 0.000003 0.550096
vt 0.019624 0.517698
vt 0.013899 0.538042
vt 0.029878 0.515987
vt 0.010329 0.557545
vt 0.021022 0.528256
vt 0.006470 0.553716
vt 0.000010 0.580837
vt 0.005844 0.581778
vt 0.030067 0.526219
vt 0.009585 0.582302
vt 0.000000 0.721884
vt 0.000000 0.673622
vt 0.006319 0.721819
vt 0.010241 0.721794
vt 0.006226 0.732866
vt 0.010251 0.732582
vt 0.006447 0.750000
vt 0.010273 0.750000
vt 0.000000 0.693133
vt 0.000000 0.649869
vt 0.000000 0.659394
vt 0.000000 0.090607
vt 0.000000 0.642141
vt 0.000000 0.100132
vt 0.000000 0.056868
vt 0.000000 0.066289
vt 0.000000 0.011883
vt 0.000000 0.107859
vt 0.000000 0.218903
vt 0.000000 0.531098
vt 0.750000 0.028116
vt 0.625000 0.221884
vt 0.625000 0.028116
vt 0.750000 0.221884
vt 0.749881 0.017356
vt 0.625132 0.017356
vt 0.749541 0.000000
vt 0.625510 0.000000
vt 0.875000 0.028116
vt 0.874909 0.017356
vt 0.750087 0.017356
vt 0.874649 0.000000
vt 0.750334 0.000000
vt 0.875000 0.221884
vt 0.874964 0.232644
vt 0.993596 0.232644
vt 0.993596 0.028116
vt 0.993596 0.221884
vt 0.996108 0.232913
vt 0.993596 0.017356
vt 0.875020 0.017356
vt 0.993596 0.000000
vt 0.875075 0.000000
vt 0.995981 0.000000
vt 0.996108 0.017087
vt 1.000000 0.011883
vt 0.996047 0.028116
vt 0.996047 0.221884
vt 0.995981 0.250000
vt 0.999098 0.250295
vt 0.996091 0.268356
vt 1.000000 0.268958
vt 1.000000 0.280204
vt 0.993574 0.268646
vt 0.993596 0.250000
vt 0.993566 0.280205
vt 0.875000 0.280226
vt 0.499990 0.250000
vt 0.625000 0.268661
vt 0.500000 0.268660
vt 0.499997 0.232644
vt 0.625000 0.280229
vt 0.500000 0.280228
vt 0.625075 0.250000
vt 0.375000 0.221884
vt 0.500000 0.221884
vt 0.500000 0.028116
vt 0.499904 0.017356
vt 0.375027 0.017356
vt 0.499630 0.000000
vt 0.375105 0.000000
vt 0.625020 0.232644
vt 0.749938 0.250000
vt 0.624907 0.017356
vt 0.500091 0.017356
vt 0.624641 0.000000
vt 0.500351 0.000000
vt 0.749984 0.232644
vt 0.750000 0.268658
vt 0.874862 0.250000
vt 0.875000 0.268659
vt 0.750000 0.280224
vt 0.625000 0.469769
vt 0.500000 0.469770
vt 0.750000 0.469776
vt 0.625000 0.481338
vt 0.500000 0.481339
vt 0.625000 0.500000
vt 0.750000 0.481342
vt 0.500000 0.500000
vt 0.750000 0.500000
vt 0.250000 0.280203
vt 0.250000 0.469798
vt 0.125000 0.469798
vt 0.125000 0.280202
vt 0.125000 0.481356
vt 0.250000 0.268644
vt 0.125000 0.500000
vt 0.125000 0.517356
vt 0.250000 0.481356
vt 0.250000 0.500000
vt 0.250000 0.517356
vt 0.374992 0.517356
vt 0.375000 0.528116
vt 0.375000 0.500000
vt 0.375000 0.481355
vt 0.375000 0.469796
vt 0.375000 0.280204
vt 0.375000 0.268646
vt 0.375032 0.250000
vt 0.624970 0.517356
vt 0.750024 0.517356
vt 0.875044 0.517356
vt 0.500002 0.517356
vt 0.625000 0.528116
vt 0.500000 0.528116
vt 0.500000 0.721884
vt 0.375000 0.721884
vt 0.374993 0.732644
vt 0.500002 0.732644
vt 0.375000 0.750000
vt 0.625000 0.721884
vt 0.624970 0.732644
vt 0.500000 0.750000
vt 0.375000 0.768645
vt 0.625000 0.750000
vt 0.500000 0.768661
vt 0.375000 0.780203
vt 0.250000 0.780202
vt 0.250000 0.969797
vt 0.500000 0.780230
vt 0.375000 0.969796
vt 0.250000 0.981355
vt 0.375000 0.981354
vt 0.500000 0.969772
vt 0.500000 0.981340
vt 0.375105 1.000000
vt 0.499630 1.000000
vt 0.625000 0.969771
vt 0.625000 0.780231
vt 0.625000 0.768662
vt 0.625000 0.981339
vt 0.500351 1.000000
vt 0.624641 1.000000
vt 0.750000 0.981342
vt 0.749541 1.000000
vt 0.625510 1.000000
vt 0.750000 0.969776
vt 0.750000 0.780224
vt 0.750000 0.768658
vt 0.750000 0.750000
vt 0.750024 0.732644
vt 0.750000 0.721884
vt 0.750000 0.528116
vt 0.875000 0.528116
vt 0.875000 0.721884
vt 0.875044 0.732644
vt 0.993485 0.721884
vt 0.993485 0.528116
vt 0.875000 0.750000
vt 0.993485 0.732644
vt 0.995978 0.721884
vt 0.993485 0.750000
vt 0.996040 0.732913
vt 0.993508 0.768646
vt 0.995911 0.750000
vt 0.996058 0.768356
vt 1.000000 0.768958
vt 0.996000 0.780204
vt 1.000000 0.780204
vt 1.000000 0.969796
vt 0.996025 0.969796
vt 1.000000 0.981043
vt 0.993516 0.780205
vt 0.875000 0.768660
vt 0.875000 0.780227
vt 0.993566 0.969795
vt 0.875000 0.969774
vt 0.993574 0.981354
vt 0.875000 0.981341
vt 0.750334 1.000000
vt 0.874649 1.000000
vt 0.993596 1.000000
vt 0.875075 1.000000
vt 0.995981 1.000000
vt 0.996091 0.981644
vt 0.997293 1.000000
vt 0.250000 0.528116
vt 0.125000 0.721884
vt 0.125000 0.528116
vt 0.250000 0.721884
vt 0.125000 0.732644
vt 0.125000 0.750000
vt 0.250000 0.732644
vt 0.010273 0.768644
vt 0.250000 0.750000
vt 0.250000 0.768644
vt 0.125000 0.768644
vt 0.125000 0.780202
vt 0.125000 0.969797
vt 0.010273 0.780202
vt 0.125000 0.981355
vt 0.250000 1.000000
vt 0.125000 1.000000
vt 0.374958 1.000000
vt 0.010273 0.969797
vt 0.010273 1.000000
vt 0.006341 0.780202
vt 0.010273 0.981356
vt 0.006447 1.000000
vt 0.006341 0.969797
vt 0.006243 0.981645
vt 0.000000 0.987235
vt 0.000000 0.981044
vt 0.000000 0.969798
vt 0.000000 0.780202
vt 0.000000 0.768956
vt 0.006243 0.768354
s 1
f 1/1/1 2/2/2 3/3/3
f 4/4/4 1/1/1 3/3/3
f 1/1/1 4/4/4 5/5/5
f 6/6/6 7/7/7 8/8/8
f 7/7/7 6/6/6 9/9/9
f 10/10/10 9/9/9 6/6/6
f 10/10/10 6/6/6 11/11/11
f 10/10/10 11/11/11 12/12/12
f 13/13/13 12/12/14 14/14/15
f 15/15/16 16/16/17 13/13/18
f 16/16/17 15/15/16 17/17/19
f 16/16/17 17/17/19 18/18/20
f 19/19/21 20/20/22 21/21/23
f 22/22/24 19/19/21 23/23/25
f 23/23/25 19/19/21 24/24/26
f 21/21/23 24/24/26 19/19/21
f 23/23/25 24/24/26 25/25/27
f 21/21/23 26/26/28 27/27/29
f 25/25/27 24/24/26 28/28/30
f 29/29/31 25/25/27 28/28/30
f 24/24/26 21/21/23 30/30/32
f 30/30/32 21/21/23 27/27/29
f 31/31/33 28/28/30 24/24/26
f 24/24/26 30/30/32 31/31/33
f 28/28/30 32/32/34 29/29/31
f 32/32/34 28/28/30 31/31/33
f 33/33/35 29/29/31 32/32/34
f 31/31/33 30/30/32 34/34/36
f 30/30/32 27/27/29 34/34/36
f 34/34/36 32/32/34 31/31/33
f 32/32/34 34/34/36 35/35/37
f 27/27/29 35/35/37 34/34/36
f 35/35/37 33/33/35 32/32/34
f 33/33/35 35/35/37 36/36/38
f 37/15/39 33/33/35 36/36/38
f 36/36/38 38/17/40 37/15/39
f 39/37/41 38/17/40 36/36/38
f 36/36/38 40/38/42 39/37/41
f 41/39/43 38/17/40 39/37/41
f 40/38/42 41/39/43 39/37/41
f 38/17/40 41/39/43 42/18/20
f 27/27/29 43/40/44 40/38/42
f 41/39/43 40/38/42 43/40/44
f 43/40/44 27/27/29 44/26/45
f 43/40/44 45/41/46 41/39/43
f 41/39/43 45/41/46 42/18/20
f 45/41/46 43/40/44 46/2/2
f 42/18/20 45/41/46 47/9/47
f 45/41/46 48/7/48 47/9/47
f 42/18/20 47/9/47 49/10/49
f 50/16/50 42/18/20 49/10/49
f 51/12/14 50/16/50 49/10/49
f 51/12/14 52/13/51 50/16/50
f 48/7/52 53/42/53 54/43/54
f 55/8/55 48/7/52 54/43/54
f 55/8/55 54/43/54 56/44/56
f 57/45/57 55/8/55 56/44/56
f 58/46/58 55/8/55 57/45/57
f 55/8/55 58/46/58 59/6/59
f 60/11/11 59/6/59 58/46/58
f 61/38/60 62/36/38 63/35/37
f 63/35/37 64/27/29 61/38/60
f 65/47/61 66/48/62 67/49/63
f 68/50/64 69/51/65 70/52/66
f 68/50/64 70/52/66 71/53/67
f 72/54/68 68/50/64 71/53/67
f 69/51/65 73/55/69 70/52/66
f 74/56/69 70/52/66 73/55/69
f 73/55/69 69/51/65 75/57/70
f 73/55/69 76/58/71 74/56/69
f 76/58/71 73/55/69 77/59/71
f 75/57/70 77/59/71 73/55/69
f 78/60/72 74/56/69 76/58/71
f 77/59/71 75/57/70 79/61/73
f 74/56/69 78/60/72 80/62/74
f 81/63/75 79/61/73 75/57/70
f 70/52/66 74/56/69 82/64/66
f 80/62/74 82/64/66 74/56/69
f 82/64/66 83/53/67 70/52/66
f 82/64/66 80/62/74 84/65/76
f 83/53/67 82/64/66 85/66/77
f 84/65/76 85/66/77 82/64/66
f 85/66/77 72/54/68 83/53/67
f 81/63/75 75/57/70 86/67/78
f 87/68/79 81/63/75 86/67/78
f 86/67/78 88/69/80 87/68/79
f 75/57/70 89/70/81 86/67/78
f 88/69/80 86/67/78 89/70/81
f 89/70/81 90/71/82 88/69/80
f 89/70/81 75/57/70 69/51/65
f 69/51/65 91/72/83 89/70/81
f 69/51/65 68/50/64 91/72/83
f 89/70/81 91/72/83 92/73/84
f 89/70/81 92/73/84 93/71/82
f 68/50/64 94/74/85 91/72/83
f 94/74/85 92/73/84 91/72/83
f 93/71/82 92/73/84 95/75/86
f 92/73/84 94/74/85 96/76/87
f 96/76/87 95/75/86 92/73/84
f 95/75/86 97/77/88 93/71/82
f 98/78/89 96/76/87 94/74/85
f 94/74/85 68/50/64 99/79/90
f 94/74/85 99/79/90 98/78/89
f 100/80/91 99/79/90 68/50/64
f 68/50/64 72/54/68 100/80/91
f 101/81/92 98/78/89 99/79/90
f 99/79/90 100/80/91 101/81/92
f 96/76/87 98/78/89 102/82/93
f 98/78/89 101/81/92 102/82/93
f 95/75/86 96/76/87 103/83/94
f 102/82/93 103/83/94 96/76/87
f 103/83/94 104/84/95 95/75/86
f 97/77/88 95/75/86 104/84/95
f 103/83/94 102/82/93 105/85/96
f 106/86/97 102/82/93 101/81/92
f 102/82/93 106/86/97 105/85/96
f 101/81/92 107/87/98 106/86/97
f 107/87/98 101/81/92 100/80/91
f 104/84/95 103/83/94 108/88/99
f 105/85/96 108/88/99 103/83/94
f 100/80/91 109/89/100 107/87/98
f 109/89/100 100/80/91 72/54/68
f 110/90/101 106/86/97 107/87/98
f 111/91/68 109/89/100 72/54/68
f 72/54/68 85/66/77 111/91/68
f 112/92/102 107/87/98 109/89/100
f 107/87/98 112/92/102 110/90/101
f 109/89/100 111/91/68 113/93/100
f 112/92/102 109/89/100 113/93/100
f 85/66/77 114/94/103 111/91/68
f 106/86/97 110/90/101 115/95/104
f 115/95/104 105/85/96 106/86/97
f 116/96/105 115/95/104 110/90/101
f 115/95/104 116/96/105 117/97/106
f 116/96/105 118/98/107 117/97/106
f 118/98/107 116/96/105 119/99/108
f 118/98/107 119/99/108 120/100/109
f 105/85/96 115/95/104 121/101/110
f 122/97/106 121/101/110 115/95/104
f 121/101/110 108/88/99 105/85/96
f 121/101/110 122/97/106 123/102/111
f 121/101/110 124/103/112 108/88/99
f 124/103/112 121/101/110 125/102/111
f 125/102/111 126/104/113 124/103/112
f 122/97/106 127/105/114 123/102/111
f 126/104/113 125/102/111 127/105/114
f 127/105/114 122/97/106 128/98/107
f 129/106/115 126/104/113 127/105/114
f 127/105/114 128/98/107 129/106/115
f 120/100/109 129/106/115 128/98/107
f 126/104/113 129/106/115 130/107/116
f 129/106/115 120/100/109 131/108/117
f 131/108/117 130/107/116 129/106/115
f 132/109/118 131/108/117 120/100/109
f 130/107/116 131/108/117 133/110/119
f 131/108/117 132/109/118 134/111/120
f 134/111/120 133/110/119 131/108/117
f 120/100/109 135/112/121 132/109/118
f 135/112/121 120/100/109 119/99/108
f 136/113/122 132/109/118 135/112/121
f 133/110/119 137/114/123 130/107/116
f 136/113/122 138/115/124 132/109/118
f 134/111/120 132/109/118 138/115/124
f 134/111/120 138/115/124 139/116/125
f 138/115/124 136/113/122 140/117/126
f 141/118/127 134/111/120 139/116/125
f 139/116/125 138/115/124 142/119/128
f 142/119/128 141/118/127 139/116/125
f 140/117/126 142/119/128 138/115/124
f 133/110/119 134/111/120 143/120/129
f 143/120/129 134/111/120 141/118/127
f 143/120/129 144/121/130 133/110/119
f 137/114/123 133/110/119 144/121/130
f 141/118/127 145/122/131 143/120/129
f 144/121/130 143/120/129 145/122/131
f 141/118/127 142/119/128 146/123/132
f 142/119/128 140/117/126 146/123/132
f 145/122/131 141/118/127 147/124/133
f 141/118/127 146/123/132 147/124/133
f 145/122/131 148/125/134 144/121/130
f 144/121/130 149/126/135 137/114/123
f 149/126/135 144/121/130 148/125/134
f 148/125/134 145/122/131 150/127/136
f 147/124/133 150/127/136 145/122/131
f 148/125/134 150/127/136 151/49/137
f 151/49/138 149/126/135 152/125/139
f 150/127/136 147/124/133 153/128/140
f 146/123/132 153/128/140 147/124/133
f 149/126/135 151/49/138 154/48/141
f 150/127/136 155/129/142 151/49/137
f 151/49/137 155/129/142 156/47/143
f 157/130/144 150/127/136 153/128/140
f 150/127/136 157/130/144 155/129/142
f 155/129/142 158/131/145 156/47/143
f 155/129/142 157/130/144 158/131/145
f 157/130/144 159/132/146 158/131/145
f 154/48/141 156/47/147 160/133/148
f 160/133/148 161/134/149 154/48/141
f 161/134/149 149/126/135 154/48/141
f 161/134/149 160/133/148 162/135/150
f 162/135/150 163/136/151 161/134/149
f 149/126/135 161/134/149 164/137/152
f 161/134/149 163/136/151 165/138/153
f 161/134/149 165/138/153 164/137/152
f 163/136/151 166/139/154 165/138/153
f 164/137/152 137/114/123 149/126/135
f 165/138/153 166/139/154 167/140/155
f 166/139/154 168/141/156 167/140/155
f 167/140/155 168/141/156 169/69/157
f 169/69/157 97/77/88 167/140/155
f 97/77/88 165/138/153 167/140/155
f 97/77/88 169/69/157 170/71/158
f 165/138/153 97/77/88 171/142/159
f 164/137/152 165/138/153 171/142/159
f 104/84/95 171/142/159 97/77/88
f 171/142/159 104/84/95 172/143/160
f 164/137/152 171/142/159 172/143/160
f 108/88/99 172/143/160 104/84/95
f 172/143/160 108/88/99 173/103/161
f 174/144/162 164/137/152 172/143/160
f 173/103/161 174/144/162 172/143/160
f 137/114/123 164/137/152 174/144/162
f 174/144/162 173/103/161 175/104/163
f 174/144/162 130/107/116 137/114/123
f 130/107/116 174/144/162 175/104/163
f 176/145/164 177/146/165 178/147/166
f 177/146/165 176/145/164 179/148/167
f 178/147/166 180/149/168 176/145/164
f 180/149/168 178/147/166 181/150/169
f 181/150/169 182/151/170 180/149/168
f 182/151/170 181/150/169 183/152/171
f 184/153/172 179/148/167 176/145/164
f 176/145/164 185/154/173 184/153/172
f 185/154/173 176/145/164 186/155/168
f 186/155/168 187/156/174 185/154/173
f 187/156/174 186/155/168 188/157/170
f 179/148/167 184/153/172 189/158/175
f 190/159/176 179/148/167 189/158/175
f 189/158/175 191/160/177 190/159/176
f 192/161/178 189/158/175 184/153/172
f 191/160/177 189/158/175 193/162/179
f 189/158/175 192/161/178 193/162/179
f 193/162/179 194/163/180 191/160/177
f 184/153/172 195/164/181 192/161/178
f 195/164/181 184/153/172 196/165/173
f 196/165/173 197/166/182 195/164/181
f 197/166/182 196/165/173 198/167/183
f 199/168/184 195/164/181 197/166/182
f 200/169/185 192/161/178 195/164/181
f 195/164/181 199/168/184 200/169/185
f 199/168/184 201/43/186 200/169/185
f 201/43/186 199/168/184 202/170/56
f 203/42/187 200/169/185 201/43/186
f 200/169/185 203/42/187 204/171/188
f 192/161/178 200/169/185 204/171/188
f 204/171/188 193/162/179 192/161/178
f 193/162/179 204/171/188 205/172/189
f 205/172/189 194/163/180 193/162/179
f 206/42/187 205/172/189 204/171/188
f 205/172/189 206/42/187 207/5/190
f 207/5/190 194/163/180 205/172/189
f 48/7/48 207/5/190 206/42/187
f 194/163/180 207/5/190 208/4/4
f 207/5/190 48/7/48 209/1/191
f 208/4/4 210/173/192 194/163/180
f 194/163/180 210/173/192 191/160/177
f 210/173/192 208/4/4 211/174/193
f 212/3/194 211/174/193 208/4/4
f 48/7/48 45/41/46 209/1/191
f 210/173/192 211/174/193 213/175/195
f 211/174/193 212/3/194 214/176/196
f 214/176/196 213/175/195 211/174/193
f 212/3/194 215/177/197 214/176/196
f 215/177/197 212/3/194 46/2/198
f 46/2/2 209/1/191 45/41/46
f 216/178/199 210/173/192 213/175/195
f 217/179/200 210/173/192 216/178/199
f 20/20/22 213/175/195 214/176/196
f 20/20/22 216/178/199 213/175/195
f 20/20/22 214/176/196 218/177/197
f 46/2/2 26/26/28 218/177/197
f 216/178/199 20/20/22 219/180/201
f 220/181/202 216/178/199 219/180/201
f 220/181/202 219/180/201 22/22/24
f 21/21/23 218/177/197 26/26/28
f 218/177/197 21/21/23 20/20/22
f 26/26/28 46/2/2 43/40/44
f 22/22/24 219/180/201 19/19/21
f 20/20/22 19/19/21 219/180/201
f 221/182/203 222/183/204 223/184/205
f 221/182/203 114/94/103 224/185/206
f 225/186/207 223/184/205 222/183/204
f 223/184/205 225/186/207 226/187/208
f 222/183/204 221/182/203 227/188/209
f 224/185/206 227/188/209 221/182/203
f 228/189/210 224/185/206 114/94/103
f 114/94/103 85/66/77 228/189/210
f 85/66/77 84/65/76 228/189/210
f 224/185/206 228/189/210 229/190/211
f 84/65/76 229/190/211 228/189/210
f 229/190/211 84/65/76 230/191/212
f 84/65/76 231/192/213 230/191/212
f 231/192/213 84/65/76 232/193/214
f 232/193/214 233/194/215 231/192/213
f 233/194/215 232/193/214 234/195/72
f 229/190/211 235/196/216 224/185/206
f 227/188/209 224/185/206 235/196/216
f 235/196/216 229/190/211 177/146/165
f 235/196/216 236/197/217 227/188/209
f 227/188/209 236/197/217 222/183/204
f 237/191/212 177/146/165 229/190/211
f 177/146/165 237/191/212 238/147/218
f 237/191/212 239/198/169 238/147/218
f 239/198/169 237/191/212 240/199/213
f 240/199/213 241/200/171 239/198/169
f 241/200/171 240/199/213 242/201/215
f 177/146/165 243/202/219 235/196/216
f 236/197/217 235/196/216 243/202/219
f 243/202/219 177/146/165 179/148/167
f 244/203/220 222/183/204 236/197/217
f 222/183/204 244/203/220 225/186/207
f 243/202/219 245/204/221 236/197/217
f 236/197/217 246/205/222 244/203/220
f 246/205/222 236/197/217 245/204/221
f 245/204/221 243/202/219 190/159/176
f 179/148/167 190/159/176 243/202/219
f 245/204/221 247/179/223 246/205/222
f 190/159/176 247/179/223 245/204/221
f 246/205/222 247/179/223 216/178/199
f 247/179/223 190/159/176 191/160/177
f 220/181/202 244/203/220 246/205/222
f 246/205/222 216/178/199 220/181/202
f 244/203/220 220/181/202 248/206/224
f 248/206/224 225/186/207 244/203/220
f 249/22/24 248/206/224 220/181/202
f 191/160/177 210/173/192 247/179/223
f 250/207/225 225/186/207 248/206/224
f 250/207/225 226/187/208 225/186/207
f 226/187/208 250/207/225 251/208/226
f 248/206/224 249/22/24 252/209/227
f 250/207/225 248/206/224 252/209/227
f 23/23/25 252/209/227 249/22/24
f 253/210/228 251/208/226 250/207/225
f 250/207/225 252/209/227 253/210/228
f 251/208/226 253/210/228 254/211/229
f 255/212/230 254/211/229 253/210/228
f 256/213/231 253/210/228 252/209/227
f 253/210/228 256/213/231 255/212/230
f 252/209/227 23/23/25 256/213/231
f 254/211/229 255/212/230 257/214/232
f 25/25/27 256/213/231 23/23/25
f 258/215/233 255/212/230 256/213/231
f 256/213/231 25/25/27 258/215/233
f 259/216/234 260/217/235 261/218/235
f 261/218/235 262/219/236 259/216/234
f 261/218/235 263/99/108 262/219/236
f 263/99/108 261/218/235 135/112/121
f 263/99/108 264/96/105 262/219/236
f 110/90/101 262/219/236 264/96/105
f 262/219/236 110/90/101 112/92/102
f 265/220/237 135/112/121 261/218/235
f 265/220/237 261/218/235 260/217/235
f 135/112/121 265/220/237 136/113/122
f 262/219/236 112/92/102 266/221/102
f 266/221/102 259/216/234 262/219/236
f 266/221/102 112/92/102 113/93/100
f 267/222/238 136/113/122 265/220/237
f 267/222/238 140/117/126 136/113/122
f 140/117/126 267/222/238 268/223/239
f 267/222/238 265/220/237 269/224/237
f 260/217/235 269/224/237 265/220/237
f 270/225/240 268/223/239 267/222/238
f 270/225/240 267/222/238 269/224/237
f 268/223/239 270/225/240 271/226/239
f 270/225/240 272/227/241 271/226/239
f 273/228/242 271/226/239 272/227/241
f 269/224/237 274/229/243 270/225/240
f 272/227/241 270/225/240 274/229/243
f 260/217/235 275/230/244 269/224/237
f 274/229/243 269/224/237 275/230/244
f 275/230/244 260/217/235 276/231/245
f 259/216/234 276/231/245 260/217/235
f 275/230/244 257/214/232 274/229/243
f 276/231/245 259/216/234 277/232/246
f 266/221/102 277/232/246 259/216/234
f 276/231/245 254/211/229 275/230/244
f 257/214/232 275/230/244 254/211/229
f 277/232/246 278/208/226 276/231/245
f 254/211/229 276/231/245 278/208/226
f 278/208/226 277/232/246 279/187/208
f 277/232/246 266/221/102 280/233/247
f 280/233/247 279/187/208 277/232/246
f 113/93/100 280/233/247 266/221/102
f 279/187/208 280/233/247 223/184/205
f 280/233/247 113/93/100 281/234/248
f 281/234/248 223/184/205 280/233/247
f 111/91/68 281/234/248 113/93/100
f 281/234/248 111/91/68 114/94/103
f 223/184/205 281/234/248 221/182/203
f 114/94/103 221/182/203 281/234/248
f 282/235/249 257/214/232 255/212/230
f 283/236/250 255/212/230 258/215/233
f 255/212/230 283/236/250 282/235/249
f 258/215/233 284/237/251 283/236/250
f 284/237/251 258/215/233 25/25/27
f 257/214/232 282/235/249 285/238/252
f 285/238/252 274/229/243 257/214/232
f 274/229/243 285/238/252 272/227/241
f 286/239/253 285/238/252 282/235/249
f 287/240/254 272/227/241 285/238/252
f 285/238/252 286/239/253 287/240/254
f 272/227/241 287/240/254 273/228/242
f 288/241/255 273/228/242 287/240/254
f 273/228/242 288/241/255 289/242/256
f 288/241/255 290/243/257 289/242/256
f 290/243/257 288/241/255 291/244/258
f 286/239/253 292/241/255 287/240/254
f 291/244/258 293/245/259 290/243/257
f 292/241/255 286/239/253 294/246/260
f 294/246/260 291/244/258 292/241/255
f 291/244/258 294/246/260 295/247/261
f 293/245/259 291/244/258 296/248/262
f 295/247/261 296/248/262 291/244/258
f 296/248/262 297/249/263 293/245/259
f 296/248/262 295/247/261 298/250/264
f 297/249/263 296/248/262 299/251/265
f 298/250/264 299/251/265 296/248/262
f 299/251/265 300/252/266 297/249/263
f 301/253/267 297/249/263 300/252/266
f 300/252/266 302/254/268 301/253/267
f 300/252/266 299/251/265 303/255/269
f 302/254/268 300/252/266 304/256/270
f 303/255/269 304/256/270 300/252/266
f 304/256/270 305/257/271 302/254/268
f 305/257/271 304/256/270 306/258/272
f 304/256/270 303/255/269 307/259/273
f 307/259/273 306/258/272 304/256/270
f 306/258/272 307/259/273 308/260/274
f 308/260/274 309/261/275 306/258/272
f 309/261/275 308/260/274 310/262/276
f 311/263/277 308/260/274 307/259/273
f 307/259/273 312/264/278 311/263/277
f 312/264/278 307/259/273 313/255/269
f 313/255/269 314/265/279 312/264/278
f 314/265/279 313/255/269 299/251/265
f 299/251/265 298/250/264 314/265/279
f 308/260/274 311/263/277 315/266/280
f 315/266/280 316/267/276 308/260/274
f 316/267/276 315/266/280 317/268/281
f 311/263/277 318/269/282 315/266/280
f 319/270/283 315/266/280 318/269/282
f 315/266/280 319/270/283 320/271/281
f 318/269/282 311/263/277 321/272/284
f 322/264/278 321/272/284 311/263/277
f 321/272/284 322/264/278 323/273/285
f 314/265/279 323/273/285 322/264/278
f 323/273/285 314/265/279 324/274/286
f 298/250/264 324/274/286 314/265/279
f 324/274/286 298/250/264 325/275/287
f 298/250/264 326/276/288 325/275/287
f 326/276/288 298/250/264 295/247/261
f 295/247/261 327/277/289 326/276/288
f 327/277/289 295/247/261 328/246/260
f 286/239/253 327/277/289 328/246/260
f 327/277/289 286/239/253 329/278/290
f 282/235/249 329/278/290 286/239/253
f 329/278/290 282/235/249 283/236/250
f 283/236/250 330/279/291 329/278/290
f 330/279/291 283/236/250 284/237/251
f 331/280/292 329/278/290 330/279/291
f 329/278/290 331/280/292 332/277/289
f 331/280/292 326/276/288 332/277/289
f 326/276/288 331/280/292 333/281/293
f 333/281/293 325/275/287 326/276/288
f 330/279/291 334/282/294 331/280/292
f 334/282/294 333/281/293 331/280/292
f 284/237/251 335/283/295 330/279/291
f 334/282/294 330/279/291 335/283/295
f 325/275/287 333/281/293 336/284/296
f 336/284/296 324/274/286 325/275/287
f 333/281/293 334/282/294 337/285/297
f 337/285/297 336/284/296 333/281/293
f 335/283/295 338/286/298 334/282/294
f 338/286/298 337/285/297 334/282/294
f 335/283/295 284/237/251 29/29/31
f 25/25/27 29/29/31 284/237/251
f 29/29/31 33/33/35 335/283/295
f 33/33/35 338/286/298 335/283/295
f 336/284/296 337/285/297 339/287/299
f 337/285/297 338/286/298 340/288/300
f 340/288/300 339/287/299 337/285/297
f 341/289/301 336/284/296 339/287/299
f 338/286/298 342/13/18 340/288/300
f 37/15/39 342/13/18 338/286/298
f 33/33/35 37/15/39 338/286/298
f 342/13/18 343/14/302 340/288/300
f 339/287/299 340/288/300 344/290/303
f 340/288/300 343/14/302 344/290/303
f 344/290/303 341/289/301 345/287/304
f 343/14/302 346/291/305 344/290/303
f 341/289/301 344/290/303 346/291/305
f 346/291/305 343/14/302 347/292/306
f 347/292/306 348/293/307 346/291/305
f 348/293/307 341/289/301 346/291/305
f 348/293/307 347/292/306 349/294/308
f 349/294/308 350/295/309 348/293/307
f 348/293/307 350/295/309 351/296/310
f 350/295/309 352/297/57 351/296/310
f 341/289/301 348/293/307 353/298/311
f 348/293/307 351/296/310 353/298/311
f 353/298/311 354/299/312 341/289/301
f 336/284/296 341/289/301 354/299/312
f 324/274/286 336/284/296 354/299/312
f 354/299/312 355/273/285 324/274/286
f 355/273/285 354/299/312 356/300/313
f 354/299/312 353/298/311 356/300/313
f 356/300/313 321/272/284 355/273/285
f 353/298/311 351/296/310 357/301/314
f 357/301/314 356/300/313 353/298/311
f 321/272/284 356/300/313 358/302/315
f 356/300/313 357/301/314 358/302/315
f 358/302/315 359/269/282 321/272/284
f 351/296/310 360/303/316 357/301/314
f 360/303/316 358/302/315 357/301/314
f 359/269/282 358/302/315 361/304/317
f 358/302/315 360/303/316 361/304/317
f 361/304/317 362/305/283 359/269/282
f 362/305/283 361/304/317 363/306/318
f 364/307/319 361/304/317 360/303/316
f 361/304/317 364/307/319 365/308/318
f 364/307/319 360/303/316 366/309/184
f 360/303/316 351/296/310 367/310/320
f 360/303/316 367/310/320 366/309/184
f 367/310/320 351/296/310 352/297/57
f 366/309/184 367/310/320 368/311/321
f 367/310/320 352/297/57 368/311/321
f 369/312/322 370/313/323 371/314/324
f 371/314/324 271/226/239 369/312/322
f 370/313/323 369/312/322 372/315/325
f 271/226/239 371/314/324 268/223/239
f 372/315/325 373/316/326 370/313/323
f 373/316/326 153/128/140 370/313/323
f 146/123/132 370/313/323 153/128/140
f 370/313/323 146/123/132 374/314/324
f 146/123/132 268/223/239 374/314/324
f 153/128/140 373/316/326 157/130/144
f 268/223/239 146/123/132 140/117/126
f 375/317/327 157/130/144 373/316/326
f 157/130/144 375/317/327 376/132/328
f 373/316/326 372/315/325 377/318/326
f 377/318/326 375/317/327 373/316/326
f 378/242/256 377/318/326 372/315/325
f 379/312/322 378/242/256 372/315/325
f 378/242/256 379/312/322 273/228/242
f 271/226/239 273/228/242 379/312/322
f 377/318/326 378/242/256 290/243/257
f 375/317/327 380/319/329 376/132/328
f 375/317/327 377/318/326 381/320/327
f 290/243/257 381/320/327 377/318/326
f 382/321/330 375/317/327 381/320/327
f 381/320/327 290/243/257 293/245/259
f 293/245/259 382/321/330 381/320/327
f 375/317/327 382/321/330 383/322/330
f 380/319/329 375/317/327 383/322/330
f 382/321/330 293/245/259 297/249/263
f 301/253/267 383/322/330 382/321/330
f 297/249/263 301/253/267 382/321/330
f 383/322/330 301/253/267 384/323/267
f 385/254/331 384/323/267 301/253/267
f 384/323/267 385/254/331 386/324/268
f 305/257/271 386/324/268 385/254/331
f 387/325/332 383/322/330 384/323/267
f 383/322/330 387/325/332 380/319/329
f 388/324/268 387/325/332 384/323/267
f 386/324/268 305/257/271 389/326/271
f 390/327/333 389/326/271 305/257/271
f 389/326/271 390/327/333 391/328/333
f 306/258/272 390/327/333 305/257/271
f 390/327/333 306/258/272 392/329/275
f 387/325/332 388/324/268 393/330/334
f 394/326/271 393/330/334 388/324/268
f 395/331/335 394/326/271 391/328/333
f 387/325/332 393/330/334 396/332/336
f 396/332/336 380/319/329 387/325/332
f 394/326/271 395/331/335 397/333/337
f 393/330/334 394/326/271 397/333/337
f 397/333/337 395/331/335 398/334/338
f 397/333/337 399/335/339 393/330/334
f 396/332/336 393/330/334 399/335/339
f 400/336/340 397/333/337 398/334/338
f 399/335/339 397/333/337 400/336/340
f 400/336/340 398/334/338 401/337/79
f 402/338/154 400/336/340 401/337/79
f 399/335/339 400/336/340 402/338/154
f 403/339/341 399/335/339 402/338/154
f 404/340/342 399/335/339 403/339/341
f 396/332/336 399/335/339 404/340/342
f 396/332/336 404/340/342 405/341/148
f 405/341/148 406/342/343 396/332/336
f 380/319/329 396/332/336 406/342/343
f 406/342/343 405/341/148 156/47/147
f 156/47/147 407/131/344 406/342/343
f 407/131/344 380/319/329 406/342/343
f 407/131/344 408/132/328 380/319/329
