# Blender 5.2.1 LTS
# www.blender.org
mtllib Anorexic Left Arm.mtl
o RenderMesh_111525819308010
v 2.196528 -0.334540 0.091753
v 2.217278 -0.347646 0.102258
v 2.199685 -0.349678 0.091681
v 2.212971 -0.333051 0.102123
v 2.037390 -0.109665 0.094652
v 2.053831 -0.108175 0.105022
v 2.020659 -0.096699 0.094944
v 2.012663 -0.112703 0.086488
v 2.001088 -0.099877 0.088289
v 2.002086 -0.089262 0.096345
v 1.992578 -0.093331 0.090912
v 2.258440 -0.097624 0.308404
v 2.237691 -0.084517 0.297898
v 2.242260 -0.084627 0.309230
v 2.214102 -0.075422 0.298938
v 2.252788 -0.097338 0.297409
v 2.038737 -0.095355 0.105511
v 2.417578 -0.322499 0.305504
v 2.411927 -0.322214 0.294510
v 2.416231 -0.336809 0.294645
v 2.212971 -0.333051 0.102123
v 2.217278 -0.347646 0.102258
v 2.053831 -0.108175 0.105022
v 2.037390 -0.109665 0.094652
v 2.020659 -0.096699 0.094944
v 2.015151 -0.086262 0.106554
v 2.002086 -0.089262 0.096345
v 2.185610 -0.071438 0.300371
v 2.171799 -0.337577 0.083587
v 2.012663 -0.112703 0.086488
v 2.196528 -0.334540 0.091753
v 2.199685 -0.349678 0.091681
v 2.179103 -0.351429 0.085044
v 2.194494 -0.361152 0.092837
v 2.180983 -0.359567 0.087476
v 2.210135 -0.361795 0.102999
v 1.986665 -0.082281 0.107990
v 1.978351 -0.086077 0.096958
v 1.992578 -0.093331 0.090912
v 1.973775 -0.093020 0.089590
v 1.976804 -0.102521 0.084479
v 2.001088 -0.099877 0.088289
v 1.944631 -0.095623 0.089726
v 1.948501 -0.087347 0.098883
v 1.983416 -0.116829 0.081774
v 2.012663 -0.112703 0.086488
v 1.946597 -0.107585 0.083525
v 0.550851 -0.325072 0.170710
v 2.142546 -0.341700 0.078868
v 2.171799 -0.337577 0.083587
v 1.954101 -0.121413 0.081224
v 0.552653 -0.337067 0.164512
v 2.214102 -0.075422 0.298938
v 2.038737 -0.095355 0.105511
v 2.015151 -0.086262 0.106554
v -2.162356 -0.651288 0.056862
v -2.126302 -0.663112 0.032391
v -2.144998 -0.663651 0.058681
v -2.174347 -0.654504 0.193669
v -2.156937 -0.666854 0.194906
v -2.143600 -0.373715 0.065620
v -2.124905 -0.373176 0.039331
v -2.161077 -0.385810 0.063216
v -2.155540 -0.376918 0.201845
v -2.173069 -0.389026 0.200024
v -2.094540 -0.399351 0.012548
v -2.095680 -0.635979 0.006885
v -2.146994 -0.399603 0.033626
v -2.090179 -0.384992 0.014780
v -2.148134 -0.636231 0.027963
v -2.141217 -0.385237 0.035288
v -2.077901 -0.372950 0.020442
v -2.124905 -0.373176 0.039331
v -2.091459 -0.650470 0.008426
v -2.142496 -0.650715 0.028934
v -2.079297 -0.662886 0.013502
v -2.126302 -0.663112 0.032391
v -1.928706 -0.399942 0.003885
v -1.929846 -0.636571 -0.001778
v -2.017888 -0.399470 0.002105
v -2.015597 -0.385108 0.004618
v -1.928213 -0.385570 0.006363
v -2.009210 -0.373057 0.011084
v -1.926950 -0.373493 0.012726
v -2.019028 -0.636098 -0.003558
v -2.016876 -0.650586 -0.001737
v -1.929493 -0.651049 0.000008
v -2.010607 -0.662993 0.004144
v -1.928350 -0.663429 0.005786
v -2.094540 -0.399351 0.012548
v -2.095680 -0.635979 0.006885
v -2.090179 -0.384992 0.014780
v -2.091459 -0.650470 0.008426
v -2.015597 -0.385108 0.004618
v -2.077901 -0.372950 0.020442
v -2.009210 -0.373057 0.011084
v -2.016876 -0.650586 -0.001737
v -2.079297 -0.662886 0.013502
v -2.010607 -0.662993 0.004144
v 0.237302 -0.400207 0.417348
v 0.309746 -0.634694 0.415658
v 0.580768 -0.611711 0.417917
v 0.470828 -0.380342 0.419255
v 0.932104 -0.568493 0.409676
v 0.938870 -0.582444 0.407409
v 0.585993 -0.625851 0.415686
v 0.313230 -0.648983 0.413411
v 0.587452 -0.637889 0.409496
v 0.940671 -0.594440 0.401210
v 2.379369 -0.358079 0.318021
v 0.584926 -0.645990 0.400288
v 0.937235 -0.602653 0.392024
v -0.068391 -0.665614 0.397161
v -0.419139 -0.667209 0.372601
v -0.067885 -0.677711 0.390944
v 0.314307 -0.661054 0.407214
v -0.068455 -0.685687 0.381784
v 0.312813 -0.669070 0.398015
v -0.070010 -0.688329 0.371078
v 0.308977 -0.671812 0.387211
v 0.224176 -0.669916 0.193303
v -0.104734 -0.684248 0.179219
v 0.218581 -0.666964 0.182539
v -0.107040 -0.681153 0.168594
v 0.212078 -0.658768 0.173454
v -0.109743 -0.672792 0.159671
v 0.308977 -0.671812 0.387211
v 0.578798 -0.648922 0.389466
v 0.224176 -0.669916 0.193303
v 0.444566 -0.651156 0.195074
v 0.435769 -0.648472 0.184284
v 0.218581 -0.666964 0.182539
v 0.425643 -0.640581 0.175169
v 0.726247 -0.603605 0.168118
v 0.435769 -0.648472 0.184284
v 0.739575 -0.611101 0.177157
v 0.444566 -0.651156 0.195074
v 0.751201 -0.613437 0.187882
v 0.929083 -0.605834 0.381249
v 0.578798 -0.648922 0.389466
v 2.139606 -0.371150 0.086166
v 0.739575 -0.611101 0.177157
v 2.154466 -0.378405 0.095122
v 2.166178 -0.364908 0.086079
v 0.751201 -0.613437 0.187882
v 2.179664 -0.370557 0.093285
v 2.180983 -0.359567 0.087476
v 2.194494 -0.361152 0.092837
v 2.210135 -0.361795 0.102999
v 2.192638 -0.373342 0.104233
v 2.167445 -0.380531 0.105770
v 2.366381 -0.369683 0.298147
v 0.929083 -0.605834 0.381249
v 2.391582 -0.362500 0.296613
v 2.409087 -0.350955 0.295384
v 2.210135 -0.361795 0.102999
v 2.375500 -0.366355 0.308865
v 2.401256 -0.358480 0.307568
v 2.414942 -0.349141 0.306011
v 2.409087 -0.350955 0.295384
v 2.403012 -0.352000 0.315099
v 2.413265 -0.346911 0.312093
v 2.402804 -0.342036 0.320046
v 2.421285 -0.337606 0.305968
v 2.409087 -0.350955 0.295384
v 2.415942 -0.338525 0.314066
v 2.411574 -0.324513 0.315449
v 2.394832 -0.327951 0.322831
v 2.411574 -0.324513 0.315449
v 2.369899 -0.332289 0.326524
v 2.252439 -0.099640 0.318351
v 2.235703 -0.103080 0.325735
v 2.210775 -0.107421 0.329431
v 2.223786 -0.089061 0.323312
v 2.252439 -0.099640 0.318351
v 2.377402 -0.346117 0.324223
v 0.932104 -0.568493 0.409676
v 0.788979 -0.341206 0.411792
v 2.237927 -0.086974 0.317313
v 2.198875 -0.093832 0.327483
v 2.210609 -0.080113 0.318610
v 2.184393 -0.082551 0.321582
v 2.224861 -0.080674 0.315528
v 2.199944 -0.074000 0.311239
v 2.184393 -0.082551 0.321582
v 2.169532 -0.075296 0.312626
v 2.222536 -0.077251 0.309518
v 2.252439 -0.099640 0.318351
v -2.102108 -0.655611 0.225415
v -1.144420 -0.662231 0.309202
v -2.102220 -0.641235 0.227839
v -2.130610 -0.671280 0.207274
v -2.130530 -0.665880 0.215549
v -2.147652 -0.662321 0.211661
v -2.154382 -0.665514 0.205067
v -2.101647 -0.667702 0.219202
v -2.156937 -0.666854 0.194906
v -2.130833 -0.675206 0.196996
v -2.118969 -0.672023 0.061645
v -2.144998 -0.663651 0.058681
v -2.102017 -0.671534 0.037807
v -1.143959 -0.674321 0.302989
v -2.100910 -0.675665 0.210145
v -2.100007 -0.678288 0.199626
v -1.143223 -0.682284 0.293932
v -1.120241 -0.674485 0.305064
v -2.088234 -0.675130 0.065304
v -1.142320 -0.684908 0.283413
v -1.924483 -0.674962 0.025323
v -1.120814 -0.648018 0.313700
v -1.144533 -0.647854 0.311626
v -1.120701 -0.662395 0.311276
v -1.143393 -0.411228 0.317289
v -0.419430 -0.652831 0.375010
v -1.119674 -0.411392 0.319365
v -1.119422 -0.396917 0.317630
v -0.423792 -0.416185 0.380216
v -0.424033 -0.401708 0.378440
v -0.424184 -0.389336 0.372751
v -0.105725 -0.388119 0.395119
v -0.108428 -0.379758 0.386195
v -0.103033 -0.400474 0.400984
v -0.423792 -0.416185 0.380216
v -0.100765 -0.414940 0.402898
v -0.069891 -0.651239 0.399491
v 0.309746 -0.634694 0.415658
v 0.237302 -0.400207 0.417348
v 0.231941 -0.385876 0.415307
v -1.922969 -0.362946 0.032792
v -2.098505 -0.366272 0.207094
v -1.140817 -0.372891 0.290881
v -1.141747 -0.376006 0.301264
v -1.124320 -0.368466 0.102665
v -1.117099 -0.373055 0.292957
v -1.100601 -0.368630 0.104740
v -1.123417 -0.371089 0.092145
v -1.099698 -0.371253 0.094220
v -1.118028 -0.376170 0.303338
v -0.424149 -0.377834 0.353555
v -0.421824 -0.373348 0.164178
v -1.100601 -0.368630 0.104740
v -0.424226 -0.380953 0.364012
v -0.421641 -0.375968 0.153594
v -1.122680 -0.379052 0.083090
v -0.421382 -0.383930 0.144496
v -1.118844 -0.384549 0.312003
v -0.147012 -0.375225 0.173007
v -0.421824 -0.373348 0.164178
v -1.098962 -0.379216 0.085165
v -1.142563 -0.384385 0.309928
v -2.100250 -0.377766 0.226141
v -1.143141 -0.396753 0.315556
v -2.099434 -0.369387 0.217477
v -2.100828 -0.390134 0.231769
v -2.129357 -0.368928 0.204328
v -2.086731 -0.363114 0.072772
v -1.988518 -0.362598 0.031484
v -2.101080 -0.404608 0.233502
v -1.144533 -0.647854 0.311626
v -2.131737 -0.404346 0.228726
v -2.132218 -0.389495 0.226502
v -2.130146 -0.379443 0.222082
v -2.100250 -0.377766 0.226141
v -2.153075 -0.389985 0.219824
v -2.146490 -0.382252 0.218410
v -2.100250 -0.377766 0.226141
v -2.131086 -0.372637 0.214891
v -2.152343 -0.379102 0.212328
v -2.166602 -0.388967 0.211394
v -2.155540 -0.376918 0.201845
v -2.174054 -0.403697 0.210129
v -2.173069 -0.389026 0.200024
v -2.117494 -0.365745 0.068976
v -2.143600 -0.373715 0.065620
v -2.071836 -0.362684 0.051826
v -2.100542 -0.365256 0.045138
v -2.124905 -0.373176 0.039331
v -2.037984 -0.362521 0.038223
v -2.059573 -0.365060 0.028675
v -2.124905 -0.373176 0.039331
v -2.077901 -0.372950 0.020442
v -2.161077 -0.385810 0.063216
v -2.141217 -0.385237 0.035288
v -2.167262 -0.400187 0.062129
v -2.146994 -0.399603 0.033626
v -2.148134 -0.636231 0.027963
v -2.168402 -0.636815 0.056466
v -2.142496 -0.650715 0.028934
v -2.162356 -0.651288 0.056862
v -2.126302 -0.663112 0.032391
v -2.179271 -0.403409 0.199142
v -2.167262 -0.400187 0.062129
v -2.180411 -0.640037 0.193478
v -2.168402 -0.636815 0.056466
v -2.175193 -0.640325 0.204466
v -2.174347 -0.654504 0.193669
v -2.166313 -0.654295 0.204544
v -2.158501 -0.640653 0.214855
v -2.157362 -0.404026 0.220518
v -2.132877 -0.640973 0.223062
v -2.155056 -0.654212 0.213673
v -2.158501 -0.640653 0.214855
v -2.131593 -0.654827 0.219802
v -2.073339 -0.674701 0.044358
v -1.990021 -0.674615 0.024016
v -2.039488 -0.674538 0.030756
v -2.061048 -0.671338 0.021344
v -2.126302 -0.663112 0.032391
v -2.079297 -0.662886 0.013502
v -2.001177 -0.671431 0.013187
v -2.079297 -0.662886 0.013502
v -2.010607 -0.662993 0.004144
v -1.928350 -0.663429 0.005786
v -2.010607 -0.662993 0.004144
v -1.926591 -0.671826 0.014676
v -1.124077 -0.668988 0.076151
v -1.928350 -0.663429 0.005786
v -1.124893 -0.677367 0.084815
v -1.100358 -0.669152 0.078226
v -1.125824 -0.680482 0.095198
v -1.101174 -0.677531 0.086891
v -0.416037 -0.673893 0.138118
v -0.415996 -0.682277 0.146857
v -1.102105 -0.680646 0.097272
v -0.416072 -0.685396 0.157314
v -1.118601 -0.685072 0.285487
v -0.418398 -0.689881 0.346689
v -1.119504 -0.682448 0.296008
v -0.109743 -0.672792 0.159671
v -0.415996 -0.682277 0.146857
v -0.107040 -0.681153 0.168594
v -0.416072 -0.685396 0.157314
v -0.104734 -0.684248 0.179219
v -0.070010 -0.688329 0.371078
v -0.418580 -0.687260 0.357274
v -0.418841 -0.679299 0.366372
v 2.155821 -0.355496 0.081212
v 2.179103 -0.351429 0.085044
v 2.180983 -0.359567 0.087476
v 2.166178 -0.364908 0.086079
v 2.139606 -0.371150 0.086166
v 2.125124 -0.359870 0.080264
v 0.726247 -0.603605 0.168118
v 0.713241 -0.592088 0.162138
v 2.113225 -0.346281 0.078317
v 0.702542 -0.578305 0.160129
v 0.559418 -0.351018 0.162244
v 0.425643 -0.640581 0.175169
v 0.713241 -0.592088 0.162138
v 0.415730 -0.628685 0.169117
v 0.702542 -0.578305 0.160129
v 0.297596 -0.383224 0.168386
v 0.407538 -0.614593 0.167049
v 0.292371 -0.369084 0.170617
v 0.212078 -0.658768 0.173454
v 0.415730 -0.628685 0.169117
v 0.205659 -0.646577 0.167433
v -0.109743 -0.672792 0.159671
v 0.205659 -0.646577 0.167433
v -0.112433 -0.660438 0.153806
v 0.200297 -0.632245 0.165391
v -0.114702 -0.645971 0.151892
v 0.127854 -0.397764 0.167081
v 0.297596 -0.383224 0.168386
v 0.124371 -0.383473 0.169329
v -0.145577 -0.409678 0.155299
v 0.127854 -0.397764 0.167081
v -0.147077 -0.395301 0.157629
v 0.123294 -0.371400 0.175527
v -0.147581 -0.383202 0.163846
v 0.290913 -0.357046 0.176807
v 0.554288 -0.316859 0.179897
v 0.293438 -0.348945 0.186015
v 1.957618 -0.084019 0.109601
v 0.562441 -0.313678 0.190672
v 2.156556 -0.073171 0.301978
v 0.740321 -0.306074 0.384039
v 0.299567 -0.346013 0.196839
v 0.740321 -0.306074 0.384039
v 0.433799 -0.343779 0.391229
v 0.751947 -0.308410 0.394763
v 0.442596 -0.346463 0.402019
v 0.765276 -0.315907 0.403803
v 0.452721 -0.354354 0.411135
v 0.778280 -0.327423 0.409782
v 0.462635 -0.366250 0.417187
v 0.225522 -0.373685 0.409285
v 0.219020 -0.365489 0.400202
v 0.433799 -0.343779 0.391229
v 0.213424 -0.362537 0.389438
v 0.128626 -0.360642 0.195535
v 0.299567 -0.346013 0.196839
v -0.110734 -0.376663 0.375572
v 0.124788 -0.363383 0.184728
v -0.424149 -0.377834 0.353555
v 0.128626 -0.360642 0.195535
v -0.145456 -0.372583 0.183713
v -0.421083 -0.396019 0.138268
v -0.420791 -0.410396 0.135859
v -1.098501 -0.391305 0.078953
v -1.098388 -0.405681 0.076529
v -1.099529 -0.642310 0.070864
v -0.416430 -0.647044 0.130653
v -1.099780 -0.656784 0.072599
v -0.416189 -0.661521 0.132429
v -0.416189 -0.661521 0.132429
v -0.112433 -0.660438 0.153806
v -1.100358 -0.669152 0.078226
v -0.416037 -0.673893 0.138118
v -0.109743 -0.672792 0.159671
v -1.124077 -0.668988 0.076151
v -1.099780 -0.656784 0.072599
v -1.123499 -0.656620 0.070523
v -1.928350 -0.663429 0.005786
v -1.099529 -0.642310 0.070864
v -1.929493 -0.651049 0.000008
v -1.123247 -0.642146 0.068790
v -1.929846 -0.636571 -0.001778
v -1.122108 -0.405517 0.074453
v -1.928213 -0.385570 0.006363
v -1.122221 -0.391141 0.076878
v -1.926950 -0.373493 0.012726
v -1.925108 -0.365548 0.022006
v -1.999702 -0.365153 0.020518
v -1.926950 -0.373493 0.012726
v -2.009210 -0.373057 0.011084
v -2.077901 -0.372950 0.020442
v -2.009210 -0.373057 0.011084
vn 0.3871 0.1860 -0.9031
vn 0.6045 -0.0809 -0.7925
vn 0.4092 -0.0807 -0.9088
vn 0.5683 0.2801 -0.7737
vn 0.3517 0.3570 -0.8653
vn 0.5039 0.4917 -0.7101
vn 0.3517 0.3570 -0.8654
vn 0.2799 0.5630 -0.7776
vn 0.1976 0.2270 -0.9536
vn 0.1614 0.4039 -0.9004
vn 0.1623 0.7641 -0.6244
vn 0.1112 0.5941 -0.7967
vn 0.7232 0.6857 0.0827
vn 0.4527 0.8201 -0.3500
vn 0.4831 0.8662 0.1273
vn 0.2329 0.9589 -0.1620
vn 0.6295 0.6037 -0.4891
vn 0.3843 0.7162 -0.5826
vn 0.8997 0.4328 0.0577
vn 0.7379 0.3630 -0.5690
vn 0.7964 -0.0941 -0.5974
vn 0.5685 0.2801 -0.7736
vn 0.5039 0.4916 -0.7102
vn 0.2799 0.5631 -0.7775
vn 0.2066 0.8975 -0.3895
vn 0.1623 0.7642 -0.6243
vn 0.0402 0.9986 0.0355
vn 0.3516 0.3570 -0.8654
vn 0.2194 0.0923 -0.9712
vn 0.1976 0.2269 -0.9537
vn 0.3870 0.1859 -0.9031
vn 0.4093 -0.0807 -0.9088
vn 0.2432 -0.0968 -0.9651
vn 0.3786 -0.4263 -0.8216
vn 0.2598 -0.3192 -0.9114
vn 0.6044 -0.0810 -0.7925
vn 0.5173 -0.5472 -0.6580
vn 0.0261 0.9767 -0.2131
vn 0.0115 0.8526 -0.5224
vn 0.1112 0.5941 -0.7966
vn 0.0041 0.6043 -0.7968
vn 0.0392 0.3356 -0.9412
vn 0.1613 0.4038 -0.9005
vn -0.1017 0.6074 -0.7879
vn -0.1199 0.8905 -0.4389
vn 0.0679 0.1365 -0.9883
vn 0.1975 0.2270 -0.9537
vn -0.0612 0.2908 -0.9548
vn -0.1188 0.6080 -0.7850
vn 0.0889 0.0005 -0.9960
vn 0.2194 0.0923 -0.9713
vn -0.0293 0.0729 -0.9969
vn -0.0793 0.2841 -0.9555
vn 0.2330 0.9589 -0.1621
vn 0.3843 0.7163 -0.5825
vn 0.2067 0.8975 -0.3896
vn -0.7137 -0.6374 -0.2904
vn -0.3243 -0.8097 -0.4891
vn -0.4137 -0.8923 -0.1807
vn -0.7476 -0.6375 0.1862
vn -0.4136 -0.8924 -0.1805
vn -0.4341 -0.8911 0.1321
vn -0.4054 0.9037 -0.1377
vn -0.3163 0.8353 -0.4496
vn -0.7074 0.6575 -0.2595
vn -0.4250 0.8935 0.1449
vn -0.4055 0.9037 -0.1376
vn -0.7431 0.6447 0.1793
vn -0.2359 0.1207 -0.9643
vn -0.2368 -0.0720 -0.9689
vn -0.5567 0.1670 -0.8138
vn -0.2187 0.3939 -0.8928
vn -0.5581 -0.1223 -0.8207
vn -0.4796 0.5355 -0.6952
vn -0.1681 0.7096 -0.6843
vn -0.3162 0.8353 -0.4498
vn -0.2222 -0.3494 -0.9102
vn -0.4843 -0.4978 -0.7195
vn -0.1748 -0.6743 -0.7175
vn -0.3241 -0.8097 -0.4892
vn 0.0541 0.0953 -0.9940
vn 0.0535 -0.0480 -0.9974
vn -0.0514 0.1013 -0.9935
vn -0.0482 0.3277 -0.9436
vn 0.0530 0.3097 -0.9494
vn -0.0385 0.6274 -0.7777
vn 0.0467 0.6037 -0.7959
vn -0.0521 -0.0531 -0.9972
vn -0.0511 -0.2823 -0.9580
vn 0.0502 -0.2643 -0.9631
vn -0.0444 -0.5891 -0.8068
vn 0.0411 -0.5658 -0.8235
vn -0.2358 0.1207 -0.9643
vn -0.2367 -0.0720 -0.9689
vn -0.2186 0.3939 -0.8928
vn -0.2222 -0.3493 -0.9103
vn -0.0482 0.3277 -0.9435
vn -0.1681 0.7095 -0.6844
vn -0.0386 0.6275 -0.7776
vn -0.0512 -0.2823 -0.9580
vn -0.0445 -0.5891 -0.8068
vn -0.0292 0.0551 0.9981
vn -0.0199 -0.0884 0.9959
vn 0.0152 -0.0758 0.9970
vn 0.0002 0.0677 0.9977
vn 0.0487 -0.0593 0.9971
vn 0.0796 -0.2873 0.9545
vn 0.0378 -0.2989 0.9535
vn -0.0048 -0.3076 0.9515
vn 0.0687 -0.6078 0.7911
vn 0.1186 -0.6074 0.7855
vn 0.1926 -0.6052 0.7724
vn 0.0952 -0.8869 0.4520
vn 0.1449 -0.8914 0.4294
vn -0.0459 -0.3125 0.9488
vn -0.0748 -0.3108 0.9475
vn -0.0302 -0.6078 0.7935
vn 0.0184 -0.6078 0.7939
vn -0.0057 -0.8801 0.4748
vn 0.0443 -0.8827 0.4679
vn 0.0174 -0.9936 0.1115
vn 0.0610 -0.9932 0.0990
vn 0.0674 -0.9838 -0.1664
vn 0.0321 -0.9873 -0.1555
vn 0.0679 -0.8563 -0.5120
vn 0.0491 -0.8602 -0.5076
vn 0.0581 -0.5764 -0.8151
vn 0.0596 -0.5754 -0.8157
vn 0.0611 -0.9932 0.0989
vn 0.1033 -0.9917 0.0770
vn 0.0674 -0.9837 -0.1664
vn 0.0998 -0.9775 -0.1860
vn 0.0843 -0.8486 -0.5223
vn 0.0537 -0.5780 -0.8143
vn 0.0506 -0.5806 -0.8126
vn 0.0986 -0.8400 -0.5335
vn 0.1301 -0.9686 -0.2117
vn 0.1436 -0.9885 0.0472
vn 0.0809 -0.5425 -0.8361
vn 0.1461 -0.7970 -0.5860
vn 0.1667 -0.4423 -0.8812
vn 0.1301 -0.9686 -0.2118
vn 0.2554 -0.6676 -0.6993
vn 0.2598 -0.3194 -0.9113
vn 0.3785 -0.4265 -0.8215
vn 0.5173 -0.5473 -0.6579
vn 0.3341 -0.8304 -0.4459
vn 0.1931 -0.9384 -0.2864
vn 0.2172 -0.9759 -0.0225
vn 0.1436 -0.9885 0.0471
vn 0.3835 -0.9051 -0.1836
vn 0.6327 -0.6403 -0.4354
vn 0.5174 -0.5473 -0.6579
vn 0.2266 -0.8992 0.3743
vn 0.4107 -0.8726 0.2643
vn 0.7224 -0.6885 0.0639
vn 0.6327 -0.6404 -0.4354
vn 0.3482 -0.5878 0.7302
vn 0.5926 -0.5211 0.6142
vn 0.2964 -0.2124 0.9312
vn 0.9916 -0.1230 0.0390
vn 0.6328 -0.6403 -0.4354
vn 0.6202 -0.1229 0.7748
vn 0.5510 0.2396 0.7994
vn 0.2447 0.0588 0.9678
vn 0.5509 0.2397 0.7994
vn 0.1059 -0.0255 0.9940
vn 0.4699 0.4515 0.7585
vn 0.2079 0.2328 0.9501
vn 0.0793 0.1282 0.9886
vn 0.1561 0.4557 0.8763
vn 0.4698 0.4516 0.7585
vn 0.1439 -0.2605 0.9547
vn 0.0279 0.0847 0.9960
vn 0.3506 0.6576 0.6668
vn 0.0409 0.3384 0.9401
vn 0.0901 0.7054 0.7030
vn -0.0134 0.6126 0.7903
vn 0.2276 0.8024 0.5517
vn 0.0622 0.9259 0.3727
vn -0.0134 0.6126 0.7902
vn -0.0634 0.8634 0.5005
vn 0.2477 0.9496 0.1921
vn 0.4699 0.4516 0.7584
vn -0.1249 -0.3073 0.9434
vn -0.0850 -0.3108 0.9467
vn -0.1244 -0.1027 0.9869
vn -0.2097 -0.8698 0.4466
vn -0.2077 -0.6005 0.7722
vn -0.3342 -0.5835 0.7402
vn -0.4072 -0.7795 0.4760
vn -0.1159 -0.6062 0.7869
vn -0.4341 -0.8911 0.1322
vn -0.2033 -0.9710 0.1257
vn -0.1921 -0.9766 -0.0967
vn -0.1636 -0.9527 -0.2561
vn -0.0734 -0.6069 0.7914
vn -0.0968 -0.8812 0.4628
vn -0.0681 -0.9904 0.1203
vn -0.0473 -0.8805 0.4716
vn -0.0515 -0.9978 -0.0424
vn -0.0165 -0.9938 0.1099
vn 0.0029 -0.9864 -0.1646
vn -0.0874 -0.0951 0.9916
vn -0.0848 -0.3106 0.9467
vn -0.0867 0.0484 0.9951
vn -0.0782 -0.0953 0.9924
vn -0.0823 0.2658 0.9605
vn -0.0783 0.0473 0.9958
vn -0.0754 0.2642 0.9615
vn -0.0639 0.5670 0.8212
vn -0.0599 0.5640 0.8236
vn -0.0496 0.8519 0.5213
vn -0.0606 0.2622 0.9631
vn -0.0573 0.0483 0.9972
vn -0.0537 -0.0952 0.9940
vn -0.0200 -0.0884 0.9959
vn -0.0420 0.2682 0.9624
vn 0.0124 0.9930 -0.1172
vn -0.0541 0.9861 0.1574
vn -0.0070 0.9876 0.1567
vn -0.0391 0.8574 0.5132
vn 0.0164 0.9938 -0.1101
vn -0.0072 0.9876 0.1569
vn 0.0165 0.9938 -0.1099
vn 0.0472 0.8804 -0.4719
vn -0.0108 0.9872 0.1593
vn 0.0107 0.9941 -0.1079
vn 0.0164 0.9938 -0.1100
vn -0.0395 0.8550 0.5171
vn 0.0389 0.8815 -0.4706
vn 0.0734 0.6070 -0.7913
vn 0.0639 0.6082 -0.7912
vn -0.0677 0.5691 0.8195
vn 0.0064 0.8832 -0.4689
vn 0.0733 0.6069 -0.7914
vn -0.0680 0.5692 0.8194
vn -0.1034 0.5691 0.8157
vn -0.0820 0.8578 0.5074
vn -0.1165 0.2650 0.9572
vn -0.1938 0.9698 0.1482
vn -0.0418 0.9991 0.0054
vn -0.0025 0.9935 -0.1142
vn -0.1209 0.0500 0.9914
vn -0.2232 0.0544 0.9732
vn -0.2185 0.2739 0.9366
vn -0.2029 0.5643 0.8002
vn -0.1034 0.5690 0.8158
vn -0.3785 0.3079 0.8729
vn -0.3288 0.5506 0.7673
vn -0.2093 0.8372 0.5053
vn -0.3994 0.7581 0.5156
vn -0.5925 0.4830 0.6447
vn -0.4250 0.8935 0.1450
vn -0.6923 0.1303 0.7097
vn -0.7431 0.6447 0.1794
vn -0.1827 0.9819 -0.0498
vn -0.4053 0.9037 -0.1377
vn -0.0368 0.9986 -0.0370
vn -0.1545 0.9655 -0.2097
vn -0.3162 0.8354 -0.4496
vn -0.0215 0.9962 -0.0839
vn -0.0919 0.9235 -0.3724
vn -0.1681 0.7096 -0.6842
vn -0.7074 0.6575 -0.2593
vn -0.4055 0.9037 -0.1377
vn -0.4797 0.5355 -0.6950
vn -0.9128 0.2126 -0.3487
vn -0.5568 0.1670 -0.8137
vn -0.5582 -0.1223 -0.8206
vn -0.9148 -0.1866 -0.3582
vn -0.4843 -0.4979 -0.7194
vn -0.7138 -0.6373 -0.2905
vn -0.9578 0.2031 0.2034
vn -0.9129 0.2126 -0.3484
vn -0.9517 -0.2199 0.2142
vn -0.9149 -0.1866 -0.3581
vn -0.7138 -0.6374 -0.2904
vn -0.6935 -0.1799 0.6976
vn -0.7477 -0.6374 0.1862
vn -0.6156 -0.5004 0.6088
vn -0.4008 -0.1265 0.9074
vn -0.3241 -0.8098 -0.4890
vn -0.4005 0.0699 0.9136
vn -0.2230 -0.1107 0.9685
vn -0.3822 -0.3438 0.8577
vn -0.4007 -0.1266 0.9074
vn -0.2156 -0.3040 0.9280
vn -0.0464 -0.9953 -0.0848
vn -0.0119 -0.9867 -0.1620
vn -0.0311 -0.9908 -0.1315
vn -0.1006 -0.9037 -0.4161
vn -0.3242 -0.8097 -0.4891
vn -0.1748 -0.6743 -0.7174
vn -0.0296 -0.8622 -0.5057
vn -0.0445 -0.5892 -0.8067
vn 0.0411 -0.5659 -0.8234
vn -0.0444 -0.5892 -0.8067
vn 0.0230 -0.8519 -0.5232
vn 0.0676 -0.5689 -0.8196
vn 0.0389 -0.8572 -0.5135
vn 0.0677 -0.5689 -0.8196
vn 0.0069 -0.9875 -0.1574
vn 0.0637 -0.5721 -0.8177
vn 0.0390 -0.8591 -0.5103
vn 0.0068 -0.9875 -0.1574
vn 0.0106 -0.9879 -0.1545
vn -0.0101 -0.9936 0.1125
vn -0.0475 -0.8806 0.4715
vn 0.0390 -0.8590 -0.5105
vn 0.0637 -0.5722 -0.8177
vn 0.0491 -0.8602 -0.5075
vn 0.0173 -0.9936 0.1115
vn -0.0383 -0.8794 0.4746
vn -0.0632 -0.6062 0.7928
vn 0.1205 -0.1904 -0.9743
vn 0.2431 -0.0968 -0.9652
vn 0.2597 -0.3193 -0.9114
vn 0.1667 -0.4423 -0.8813
vn 0.0809 -0.5425 -0.8362
vn 0.0286 -0.2718 -0.9619
vn 0.0505 -0.5805 -0.8127
vn 0.0047 -0.3020 -0.9533
vn -0.0062 -0.0712 -0.9974
vn -0.0275 -0.0884 -0.9957
vn -0.0483 0.0565 -0.9972
vn 0.0537 -0.5779 -0.8143
vn 0.0229 -0.2886 -0.9572
vn -0.0153 0.0731 -0.9972
vn 0.0001 -0.0716 -0.9974
vn -0.0380 0.2956 -0.9545
vn 0.0581 -0.5763 -0.8152
vn 0.0537 -0.5779 -0.8144
vn 0.0423 -0.2793 -0.9593
vn 0.0596 -0.5752 -0.8158
vn 0.0424 -0.2793 -0.9593
vn 0.0609 -0.2725 -0.9602
vn 0.0296 -0.0593 -0.9978
vn 0.0577 -0.0522 -0.9970
vn 0.0200 0.0849 -0.9962
vn -0.0151 0.0731 -0.9972
vn 0.0050 0.3038 -0.9527
vn 0.0544 0.0918 -0.9943
vn 0.0471 0.3079 -0.9502
vn -0.0189 0.6091 -0.7929
vn 0.0312 0.6076 -0.7936
vn -0.0693 0.6084 -0.7906
vn -0.1452 0.8950 -0.4218
vn -0.0960 0.8906 -0.4446
vn -0.1128 0.9905 -0.0786
vn -0.1429 0.9889 -0.0407
vn -0.0966 0.9786 0.1816
vn -0.1297 0.9670 0.2192
vn -0.1036 0.9921 -0.0706
vn -0.0999 0.9760 0.1934
vn -0.0972 0.8323 0.5457
vn -0.0834 0.8408 0.5349
vn -0.0488 0.5711 0.8194
vn -0.0528 0.5678 0.8214
vn -0.0035 0.2932 0.9560
vn -0.0218 0.2792 0.9600
vn -0.0573 0.5648 0.8232
vn -0.0678 0.8468 0.5275
vn -0.0998 0.9760 0.1934
vn -0.0674 0.9823 0.1748
vn -0.0616 0.9939 -0.0914
vn -0.1035 0.9921 -0.0707
vn -0.0321 0.9861 0.1628
vn -0.0454 0.8868 -0.4600
vn -0.0109 0.9872 0.1591
vn -0.0168 0.9943 -0.1054
vn 0.0756 0.3109 -0.9474
vn 0.0787 0.0949 -0.9924
vn 0.0851 0.3108 -0.9467
vn 0.0873 0.0948 -0.9917
vn 0.0868 -0.0484 -0.9951
vn 0.0786 -0.0487 -0.9957
vn 0.0822 -0.2659 -0.9605
vn 0.0754 -0.2681 -0.9604
vn 0.0755 -0.2681 -0.9604
vn 0.0610 -0.2725 -0.9602
vn 0.0637 -0.5720 -0.8178
vn 0.0596 -0.5753 -0.8158
vn 0.0821 -0.2659 -0.9605
vn 0.0867 -0.0484 -0.9951
vn 0.0503 -0.2643 -0.9631
vn 0.0866 -0.0481 -0.9951
vn 0.0542 0.0953 -0.9940
vn 0.0874 0.0951 -0.9916
vn 0.0850 0.3108 -0.9467
vn 0.0467 0.6037 -0.7958
vn 0.0313 0.8757 -0.4818
vn -0.0212 0.8857 -0.4638
vn -0.0385 0.6276 -0.7776
vn -0.0386 0.6276 -0.7776
vt 1.000000 0.098813
vt 1.000000 0.074863
vt 1.000000 0.065135
vt 1.000000 0.106013
vt 1.000000 0.651185
vt 1.000000 0.643987
vt 1.000000 0.684860
vt 1.000000 0.659387
vt 1.000000 0.693124
vt 1.000000 0.732351
vt 0.999146 0.750294
vt 1.000000 0.478004
vt 1.000000 0.500286
vt 1.000000 0.491717
vt 1.000000 0.528116
vt 1.000000 0.485204
vt 1.000000 0.675135
vt 1.000000 0.271996
vt 1.000000 0.264796
vt 1.000000 0.249714
vt 1.000000 0.721882
vt 0.996308 0.528119
vt 1.000000 0.090606
vt 1.000000 0.056867
vt 1.000000 0.017647
vt 1.000000 0.038294
vt 1.000000 0.028116
vt 0.996284 0.721883
vt 0.996337 0.732914
vt 0.996199 0.750000
vt 0.996334 0.768354
vt 1.000000 0.768959
vt 0.993944 0.750000
vt 0.993968 0.732643
vt 0.996279 0.780203
vt 1.000000 0.780204
vt 0.993963 0.768645
vt 0.875000 0.750000
vt 0.996298 0.969795
vt 1.000000 0.969798
vt 0.993969 0.780204
vt 0.875047 0.768653
vt 0.000000 0.124673
vt 0.001006 0.051504
vt 0.000014 0.080837
vt 0.000000 0.248199
vt 0.000000 0.221884
vt 0.000014 0.669163
vt 0.001006 0.698496
vt 0.000000 0.625327
vt 0.000000 0.528116
vt 0.000000 0.501801
vt 0.000000 0.659394
vt 0.000000 0.090606
vt 0.000000 0.621553
vt 0.000000 0.693540
vt 0.000000 0.128448
vt 0.000000 0.652140
vt 0.000000 0.747408
vt 0.000000 0.702694
vt 0.000000 0.056460
vt 0.000000 0.097860
vt 0.000000 0.002592
vt 0.000000 0.047306
vt 0.027892 0.780202
vt 0.027892 0.969798
vt 0.017218 0.780202
vt 0.017362 0.768644
vt 0.027821 0.768644
vt 0.017772 0.750000
vt 0.027618 0.750000
vt 0.017218 0.969798
vt 0.017362 0.981356
vt 0.027821 0.981356
vt 0.017772 1.000000
vt 0.027617 1.000000
vt 0.000000 0.780202
vt 0.000000 0.969798
vt 0.000232 0.768644
vt 0.000232 0.981356
vt 0.016986 0.768644
vt 0.000894 0.750000
vt 0.016324 0.750000
vt 0.016986 0.981356
vt 0.000894 1.000000
vt 0.016324 1.000000
vt 0.625000 0.469772
vt 0.625000 0.280227
vt 0.750000 0.280221
vt 0.750000 0.469779
vt 0.875000 0.280221
vt 0.874966 0.268653
vt 0.749984 0.268652
vt 0.625018 0.268655
vt 0.749892 0.250000
vt 0.874768 0.250000
vt 0.994135 0.250000
vt 0.749987 0.232632
vt 0.874971 0.232631
vt 0.499997 0.268655
vt 0.375015 0.268645
vt 0.499982 0.250000
vt 0.625119 0.250000
vt 0.499997 0.232632
vt 0.625015 0.232628
vt 0.500000 0.221861
vt 0.625000 0.221852
vt 0.625000 0.028151
vt 0.500000 0.028140
vt 0.624906 0.017383
vt 0.500094 0.017375
vt 0.625000 0.000000
vt 0.500003 0.000000
vt 0.750000 0.221859
vt 0.750000 0.028141
vt 0.749882 0.017375
vt 0.625136 0.017382
vt 0.750000 0.000000
vt 0.875000 0.000000
vt 0.750081 0.017375
vt 0.874919 0.017375
vt 0.875000 0.028141
vt 0.875000 0.221859
vt 0.994030 0.000000
vt 0.875016 0.017374
vt 0.994052 0.017359
vt 0.996253 0.000000
vt 0.996388 0.017090
vt 1.000000 0.011883
vt 0.996336 0.028119
vt 0.994059 0.028119
vt 0.994107 0.221881
vt 0.996359 0.221883
vt 1.000000 0.221881
vt 0.994114 0.232642
vt 0.996420 0.232913
vt 1.000000 0.232350
vt 0.996318 0.250000
vt 0.999173 0.250294
vt 0.996423 0.268354
vt 1.000000 0.258284
vt 1.000000 0.268959
vt 1.000000 0.280205
vt 0.996363 0.280203
vt 0.994113 0.280204
vt 1.000000 0.469798
vt 0.996346 0.469795
vt 0.994077 0.469796
vt 0.996399 0.481642
vt 0.994119 0.268645
vt 0.875000 0.469779
vt 1.000000 0.481045
vt 0.994071 0.481353
vt 0.996268 0.500000
vt 0.994054 0.500000
vt 0.999162 0.499707
vt 0.996370 0.517090
vt 0.994032 0.517359
vt 1.000000 0.517647
vt 0.009702 0.268645
vt 0.125000 0.268645
vt 0.009702 0.280203
vt 0.006120 0.232264
vt 0.006211 0.250000
vt 0.001374 0.250296
vt 0.000000 0.231999
vt 0.009702 0.250000
vt 0.005989 0.221884
vt 0.005989 0.082539
vt 0.007765 0.056669
vt 0.125000 0.250000
vt 0.009702 0.232643
vt 0.009702 0.221884
vt 0.125000 0.232643
vt 0.250001 0.250000
vt 0.009702 0.083599
vt 0.125000 0.221884
vt 0.028848 0.028116
vt 0.250000 0.280203
vt 0.125000 0.280203
vt 0.250000 0.268645
vt 0.125000 0.469798
vt 0.375000 0.280205
vt 0.250000 0.469798
vt 0.250000 0.481355
vt 0.375000 0.469796
vt 0.375017 0.481354
vt 0.375036 0.500000
vt 0.500000 0.500000
vt 0.500003 0.517374
vt 0.499998 0.481336
vt 0.500000 0.469772
vt 0.500000 0.280226
vt 0.625000 0.280226
vt 0.625022 0.481335
vt 0.028849 0.721885
vt 0.009702 0.528116
vt 0.125000 0.528116
vt 0.125000 0.517356
vt 0.125000 0.721885
vt 0.250000 0.528116
vt 0.250000 0.721885
vt 0.125000 0.732644
vt 0.250000 0.732644
vt 0.250000 0.517356
vt 0.375000 0.528125
vt 0.375000 0.721876
vt 0.374994 0.517363
vt 0.374992 0.732640
vt 0.125000 0.750000
vt 0.375000 0.750000
vt 0.250000 0.500000
vt 0.500002 0.732632
vt 0.250001 0.750000
vt 0.125000 0.500000
vt 0.009702 0.500000
vt 0.125000 0.481356
vt 0.009702 0.517356
vt 0.009702 0.481356
vt 0.005989 0.528116
vt 0.009702 0.666401
vt 0.021004 0.717363
vt 0.009702 0.469798
vt 0.005989 0.469798
vt 0.005896 0.481645
vt 0.006089 0.500000
vt 0.000000 0.481044
vt 0.001367 0.499706
vt 0.005896 0.517087
vt 0.000000 0.517646
vt 0.000000 0.492870
vt 0.000000 0.479323
vt 0.005989 0.667461
vt 0.011262 0.689133
vt 0.007765 0.693331
vt 0.015164 0.706055
vt 0.012487 0.713813
vt 0.002437 0.701465
vt 0.007855 0.724964
vt 0.000000 0.651285
vt 0.000000 0.598094
vt 0.000000 0.151906
vt 0.000000 0.098715
vt 0.000000 0.487050
vt 0.000000 0.262950
vt 0.000000 0.270677
vt 0.000000 0.257443
vt 0.000000 0.280203
vt 0.000000 0.469798
vt 0.005989 0.280203
vt 0.000000 0.269337
vt 0.006120 0.269052
vt 0.011262 0.060867
vt 0.021004 0.032637
vt 0.015164 0.043945
vt 0.012487 0.036188
vt 0.002437 0.048535
vt 0.007855 0.025036
vt 0.019555 0.022502
vt 0.008639 0.022764
vt 0.016748 0.007063
vt 0.027617 0.000158
vt 0.017772 0.005833
vt 0.028482 0.017356
vt 0.125000 0.000000
vt 0.028172 0.000000
vt 0.125000 0.017356
vt 0.250000 0.000000
vt 0.125000 0.028116
vt 0.250000 0.017356
vt 0.375000 0.000000
vt 0.374988 0.017362
vt 0.250000 0.028116
vt 0.375000 0.028125
vt 0.250000 0.221883
vt 0.375000 0.221874
vt 0.250000 0.232643
vt 0.499996 0.000000
vt 0.375029 0.017364
vt 0.499901 0.017374
vt 0.375007 0.232638
vt 0.375088 0.250000
vt 0.996358 0.981642
vt 1.000000 0.981044
vt 0.997477 1.000000
vt 0.996253 1.000000
vt 0.994030 1.000000
vt 0.994013 0.981353
vt 0.875000 1.000000
vt 0.874981 0.981341
vt 0.994007 0.969796
vt 0.875000 0.969779
vt 0.875000 0.780221
vt 0.750000 1.000000
vt 0.875104 0.981340
vt 0.749896 0.981340
vt 0.750000 0.780221
vt 0.750000 0.969779
vt 0.750033 0.768652
vt 0.625000 1.000000
vt 0.750151 0.981340
vt 0.624817 0.981335
vt 0.500003 1.000000
vt 0.625124 0.981335
vt 0.499900 0.981335
vt 0.625000 0.969772
vt 0.500000 0.969771
vt 0.625000 0.780231
vt 0.624960 0.768657
vt 0.500000 0.780231
vt 0.500002 0.768658
vt 0.625000 0.750000
vt 0.500000 0.750000
vt 0.750000 0.750000
vt 0.875039 0.732631
vt 0.750028 0.732631
vt 0.993975 0.721882
vt 0.875000 0.721859
vt 0.994025 0.528119
vt 0.875000 0.528141
vt 0.750000 0.721859
vt 0.750000 0.528141
vt 0.875034 0.517375
vt 0.750018 0.517375
vt 0.874975 0.500000
vt 0.749987 0.500000
vt 0.874963 0.481341
vt 0.749980 0.481340
vt 0.625016 0.500000
vt 0.624978 0.517382
vt 0.625000 0.528150
vt 0.625000 0.721846
vt 0.500000 0.528139
vt 0.624967 0.732624
vt 0.500000 0.721859
vt 0.374980 0.768644
vt 0.375000 0.780203
vt 0.250000 0.768644
vt 0.250000 0.780202
vt 0.250000 0.969798
vt 0.375000 0.969796
vt 0.250000 0.981356
vt 0.374936 0.981354
vt 0.375029 0.981354
vt 0.500108 0.981336
vt 0.250000 1.000000
vt 0.375000 1.000000
vt 0.499996 1.000000
vt 0.125000 1.000000
vt 0.125000 0.981356
vt 0.028172 1.000000
vt 0.027965 0.981356
vt 0.125000 0.969798
vt 0.125000 0.780202
vt 0.027965 0.768644
vt 0.125000 0.768644
vt 0.028172 0.750000
vt 0.028483 0.732644
vt 0.019555 0.727498
vt 0.027618 0.749842
vt 0.017772 0.744167
vt 0.008639 0.727236
vt 0.016748 0.742937
s 1
f 1/1/1 2/2/2 3/3/3
f 2/2/2 1/1/1 4/4/4
f 1/1/1 5/5/5 4/4/4
f 6/6/6 5/5/7 7/7/8
f 8/8/9 7/7/8 5/5/7
f 7/7/8 8/8/9 9/9/10
f 9/9/10 10/10/11 7/7/8
f 10/10/11 9/9/10 11/11/12
f 12/12/13 13/13/14 14/14/15
f 15/15/16 14/14/15 13/13/14
f 13/13/14 12/12/13 16/16/17
f 17/17/18 15/15/16 13/13/14
f 16/16/17 17/17/18 13/13/14
f 12/12/13 18/18/19 16/16/17
f 19/19/20 16/16/17 18/18/19
f 18/18/19 20/20/21 19/19/20
f 20/20/21 21/4/22 19/19/20
f 21/4/22 20/20/21 22/2/2
f 16/16/17 19/19/20 23/6/23
f 23/6/23 19/19/20 21/4/22
f 17/17/18 16/16/17 23/6/23
f 23/6/23 21/4/22 24/5/7
f 25/7/24 17/17/18 23/6/23
f 25/7/24 26/21/25 17/17/18
f 26/21/25 25/7/24 27/10/26
f 26/21/25 28/22/27 15/15/16
f 24/5/28 29/23/29 30/8/30
f 29/23/29 24/5/28 31/1/31
f 32/3/32 29/23/29 31/1/31
f 29/23/29 32/3/32 33/24/33
f 34/25/34 33/24/33 32/3/32
f 33/24/33 34/25/34 35/26/35
f 32/3/32 22/2/36 34/25/34
f 22/2/36 36/27/37 34/25/34
f 28/22/27 26/21/25 37/28/38
f 27/10/26 37/28/38 26/21/25
f 37/28/38 27/10/26 38/29/39
f 39/11/40 38/29/39 27/10/26
f 38/29/39 39/11/40 40/30/41
f 39/11/40 41/31/42 40/30/41
f 41/31/42 39/11/40 42/32/43
f 43/33/44 38/29/39 40/30/41
f 41/31/42 43/33/44 40/30/41
f 44/34/45 37/28/38 38/29/39
f 38/29/39 43/33/44 44/34/45
f 42/32/43 45/35/46 41/31/42
f 45/35/46 42/32/43 46/36/47
f 43/33/44 41/31/42 47/37/48
f 45/35/46 47/37/48 41/31/42
f 43/33/44 48/38/49 44/34/45
f 47/37/48 48/38/49 43/33/44
f 46/36/47 49/39/50 45/35/46
f 49/39/50 46/36/47 50/40/51
f 47/37/48 45/35/46 51/41/52
f 45/35/46 49/39/50 51/41/52
f 48/38/49 47/37/48 52/42/53
f 51/41/52 52/42/53 47/37/48
f 53/15/54 54/17/55 55/21/56
f 56/43/57 57/44/58 58/45/59
f 59/46/60 58/45/61 60/47/62
f 61/48/63 62/49/64 63/50/65
f 64/51/66 61/48/67 65/52/68
f 66/53/69 67/54/70 68/55/71
f 66/53/69 68/55/71 69/56/72
f 68/55/71 67/54/70 70/57/73
f 71/58/74 69/56/72 68/55/71
f 69/56/72 71/58/74 72/59/75
f 73/60/76 72/59/75 71/58/74
f 74/61/77 70/57/73 67/54/70
f 70/57/73 74/61/77 75/62/78
f 76/63/79 75/62/78 74/61/77
f 75/62/78 76/63/79 77/64/80
f 78/65/81 79/66/82 80/67/83
f 81/68/84 78/65/81 80/67/83
f 78/65/81 81/68/84 82/69/85
f 83/70/86 82/69/85 81/68/84
f 82/69/85 83/70/86 84/71/87
f 80/67/83 79/66/82 85/72/88
f 79/66/82 86/73/89 85/72/88
f 86/73/89 79/66/82 87/74/90
f 87/74/90 88/75/91 86/73/89
f 88/75/91 87/74/90 89/76/92
f 80/67/83 85/72/88 90/77/93
f 90/77/93 85/72/88 91/78/94
f 92/79/95 80/67/83 90/77/93
f 85/72/88 93/80/96 91/78/94
f 80/67/83 92/79/95 94/81/97
f 95/82/98 94/81/97 92/79/95
f 94/81/97 95/82/98 96/83/99
f 93/80/96 85/72/88 97/84/100
f 93/80/96 97/84/100 98/85/79
f 98/85/79 97/84/100 99/86/101
f 100/87/102 101/88/103 102/89/104
f 100/87/102 102/89/104 103/90/105
f 103/90/105 102/89/104 104/91/106
f 104/91/106 102/89/104 105/92/107
f 102/89/104 101/88/103 106/93/108
f 106/93/108 105/92/107 102/89/104
f 107/94/109 106/93/108 101/88/103
f 106/93/108 107/94/109 108/95/110
f 105/92/107 106/93/108 109/96/111
f 108/95/110 109/96/111 106/93/108
f 109/96/111 110/97/112 105/92/107
f 111/98/113 109/96/111 108/95/110
f 112/99/114 110/97/112 109/96/111
f 109/96/111 111/98/113 112/99/114
f 113/100/115 114/101/116 115/102/117
f 115/102/117 116/103/118 113/100/115
f 107/94/109 113/100/115 116/103/118
f 117/104/119 116/103/118 115/102/117
f 116/103/118 117/104/119 118/105/120
f 119/106/121 118/105/120 117/104/119
f 118/105/120 119/106/121 120/107/122
f 119/106/121 121/108/123 120/107/122
f 121/108/123 119/106/121 122/109/124
f 122/109/124 123/110/125 121/108/123
f 123/110/125 122/109/124 124/111/126
f 124/111/126 125/112/127 123/110/125
f 125/112/127 124/111/126 126/113/128
f 118/105/120 108/95/110 116/103/118
f 116/103/118 108/95/110 107/94/109
f 108/95/110 118/105/120 111/98/113
f 127/107/129 111/98/113 118/105/120
f 111/98/113 127/107/129 128/114/130
f 129/108/131 128/114/130 127/107/129
f 128/114/130 129/108/131 130/115/132
f 129/108/131 131/116/133 130/115/132
f 131/116/133 129/108/131 132/117/125
f 132/117/125 133/118/134 131/116/133
f 133/118/134 132/117/125 125/112/127
f 134/119/135 135/120/133 133/118/134
f 135/120/133 134/119/135 136/121/136
f 136/121/136 137/115/132 135/120/133
f 137/115/132 136/121/136 138/122/137
f 139/123/138 137/115/132 138/122/137
f 137/115/132 139/123/138 140/114/130
f 112/99/114 140/114/130 139/123/138
f 140/114/130 112/99/114 111/98/113
f 134/119/135 141/124/139 142/125/136
f 142/125/136 141/124/139 143/126/140
f 141/124/139 144/127/141 143/126/140
f 143/126/140 145/122/142 142/125/136
f 143/126/140 144/127/141 146/128/143
f 144/127/141 147/129/144 146/128/143
f 148/25/145 146/128/143 147/129/144
f 149/27/146 146/128/143 148/25/145
f 146/128/143 149/27/146 150/130/147
f 146/128/143 151/131/148 143/126/140
f 145/122/142 143/126/140 151/131/148
f 151/131/148 146/128/143 150/130/147
f 152/132/149 145/122/142 151/131/148
f 145/122/142 152/132/149 153/123/150
f 150/130/147 154/133/151 151/131/148
f 152/132/149 151/131/148 154/133/151
f 150/130/147 155/134/152 154/133/151
f 155/134/152 150/130/147 156/27/153
f 156/27/153 20/20/21 155/134/152
f 20/20/21 156/27/153 22/2/2
f 157/135/154 153/123/150 152/132/149
f 153/123/150 157/135/154 112/99/114
f 152/132/149 154/133/151 158/136/155
f 157/135/154 152/132/149 158/136/155
f 154/133/151 159/137/156 158/136/155
f 159/137/156 154/133/151 160/134/157
f 157/135/154 158/136/155 161/138/158
f 110/97/112 112/99/114 157/135/154
f 110/97/112 157/135/154 161/138/158
f 158/136/155 162/139/159 161/138/158
f 162/139/159 158/136/155 159/137/156
f 162/139/159 163/140/160 161/138/158
f 163/140/160 110/97/112 161/138/158
f 164/141/161 162/139/159 159/137/156
f 165/134/162 164/141/161 159/137/156
f 164/141/161 165/134/162 20/20/21
f 162/139/159 164/141/161 166/142/163
f 163/140/160 162/139/159 166/142/163
f 164/141/161 167/143/164 166/142/163
f 167/143/164 164/141/161 18/18/19
f 20/20/21 18/18/19 164/141/161
f 168/144/165 163/140/160 166/142/163
f 169/143/166 168/144/165 166/142/163
f 170/145/167 163/140/160 168/144/165
f 18/18/19 171/146/168 169/143/166
f 172/147/169 169/143/166 171/146/168
f 169/143/166 172/147/169 168/144/165
f 171/146/168 18/18/19 12/12/13
f 173/148/170 168/144/165 172/147/169
f 168/144/165 173/148/170 170/145/167
f 173/148/170 172/147/169 174/149/171
f 175/146/172 174/149/171 172/147/169
f 170/145/167 176/150/173 163/140/160
f 110/97/112 163/140/160 176/150/173
f 170/145/167 177/91/106 176/150/173
f 105/92/107 176/150/173 177/91/106
f 176/150/173 105/92/107 110/97/112
f 177/91/106 170/145/167 178/151/174
f 178/151/174 170/145/167 173/148/170
f 174/149/171 175/146/172 179/152/175
f 180/153/176 178/151/174 173/148/170
f 180/153/176 173/148/170 174/149/171
f 180/153/176 174/149/171 181/154/177
f 182/155/178 180/153/176 181/154/177
f 174/149/171 183/156/179 181/154/177
f 174/149/171 179/152/175 183/156/179
f 184/157/180 181/154/177 183/156/179
f 184/157/180 185/155/181 181/154/177
f 185/155/181 184/157/180 186/158/182
f 183/156/179 187/159/183 184/157/180
f 179/152/175 187/159/183 183/156/179
f 187/159/183 28/22/27 184/157/180
f 28/22/27 186/158/182 184/157/180
f 187/159/183 179/152/175 14/14/15
f 179/152/175 12/12/13 14/14/15
f 12/12/13 179/152/175 188/146/184
f 14/14/15 15/15/16 187/159/183
f 28/22/27 187/159/183 15/15/16
f 189/160/185 190/161/186 191/162/187
f 192/163/188 193/164/189 194/165/190
f 195/166/191 192/163/188 194/165/190
f 189/160/185 193/164/189 196/167/192
f 197/47/193 198/168/194 195/166/191
f 198/168/194 192/163/188 195/166/191
f 197/47/193 199/169/195 198/168/194
f 199/169/195 197/47/193 200/45/61
f 200/45/61 201/170/196 199/169/195
f 196/167/192 202/171/197 189/160/185
f 190/161/186 189/160/185 202/171/197
f 203/172/198 196/167/192 193/164/189
f 192/163/188 203/172/198 193/164/189
f 203/172/198 202/171/197 196/167/192
f 204/173/199 203/172/198 192/163/188
f 198/168/194 204/173/199 192/163/188
f 202/171/197 203/172/198 205/174/200
f 204/173/199 205/174/200 203/172/198
f 190/161/186 202/171/197 206/175/197
f 205/174/200 206/175/197 202/171/197
f 198/168/194 207/176/201 204/173/199
f 207/176/201 198/168/194 199/169/195
f 205/174/200 204/173/199 208/177/202
f 209/178/203 204/173/199 207/176/201
f 209/178/203 208/177/202 204/173/199
f 210/179/204 211/180/204 212/181/205
f 213/182/206 211/180/204 210/179/204
f 214/183/207 212/181/205 114/101/116
f 212/181/205 214/183/207 210/179/204
f 210/179/204 215/184/206 213/182/206
f 216/185/208 213/182/206 215/184/206
f 217/186/209 210/179/204 214/183/207
f 210/179/204 217/186/209 215/184/206
f 218/187/210 215/184/206 217/186/209
f 215/184/206 218/187/210 216/185/208
f 219/188/211 216/185/208 218/187/210
f 218/187/210 220/189/212 219/188/211
f 221/190/213 219/188/211 220/189/212
f 220/189/212 218/187/210 222/191/214
f 223/186/209 222/191/214 218/187/210
f 214/183/207 224/192/215 223/186/209
f 222/191/214 223/186/209 224/192/215
f 224/192/215 214/183/207 225/193/216
f 114/101/116 225/193/216 214/183/207
f 224/192/215 225/193/216 226/194/217
f 224/192/215 226/194/217 227/87/102
f 228/195/218 224/192/215 227/87/102
f 224/192/215 228/195/218 222/191/214
f 226/194/217 225/193/216 107/94/109
f 225/193/216 114/101/116 113/100/115
f 113/100/115 107/94/109 225/193/216
f 229/196/219 230/197/220 231/198/221
f 230/197/220 232/199/222 231/198/221
f 229/196/219 231/198/221 233/200/223
f 234/201/224 233/200/223 231/198/221
f 233/200/223 234/201/224 235/202/225
f 235/202/225 236/203/226 233/200/223
f 236/203/226 229/196/219 233/200/223
f 236/203/226 235/202/225 237/204/226
f 231/198/221 238/205/222 234/201/224
f 238/205/222 231/198/221 232/199/222
f 238/205/222 239/206/227 234/201/224
f 240/207/228 234/201/224 239/206/227
f 234/201/224 240/207/228 241/202/229
f 239/206/227 238/205/222 242/208/230
f 243/209/231 241/202/229 240/207/228
f 241/202/229 243/209/231 237/204/226
f 237/204/226 244/210/232 236/203/226
f 245/211/233 237/204/226 243/209/231
f 246/212/234 242/208/230 238/205/222
f 232/199/222 246/212/234 238/205/222
f 247/213/235 245/211/233 243/209/231
f 248/207/228 247/213/235 243/209/231
f 237/204/226 245/211/233 249/214/236
f 244/210/232 237/204/226 249/214/236
f 246/212/234 232/199/222 250/215/237
f 232/199/222 251/216/238 250/215/237
f 252/217/208 246/212/234 250/215/237
f 250/215/237 251/216/238 252/217/208
f 251/216/238 232/199/222 253/218/239
f 232/199/222 230/197/220 253/218/239
f 254/219/240 252/217/208 251/216/238
f 255/220/241 253/218/239 230/197/220
f 246/212/234 252/217/208 216/185/208
f 230/197/220 256/221/242 255/220/241
f 229/196/219 256/221/242 230/197/220
f 256/221/242 229/196/219 257/222/243
f 216/185/208 219/188/211 246/212/234
f 242/208/230 246/212/234 219/188/211
f 213/182/206 216/185/208 252/217/208
f 219/188/211 221/190/213 242/208/230
f 252/217/208 258/223/244 213/182/206
f 258/223/244 252/217/208 254/219/240
f 213/182/206 258/223/244 259/180/204
f 191/162/187 259/180/204 258/223/244
f 254/219/240 260/224/245 258/223/244
f 260/224/245 191/162/187 258/223/244
f 259/180/204 191/162/187 190/161/186
f 260/224/245 254/219/240 261/225/246
f 254/219/240 262/226/247 261/225/246
f 262/226/247 254/219/240 263/216/248
f 264/227/249 260/224/245 261/225/246
f 265/228/250 261/225/246 262/226/247
f 261/225/246 265/228/250 264/227/249
f 262/226/247 266/216/238 253/218/239
f 262/226/247 253/218/239 267/229/251
f 265/228/250 262/226/247 267/229/251
f 253/218/239 255/220/241 267/229/251
f 267/229/251 268/230/252 265/228/250
f 268/230/252 267/229/251 255/220/241
f 269/231/253 264/227/249 265/228/250
f 265/228/250 268/230/252 269/231/253
f 255/220/241 270/51/254 268/230/252
f 264/227/249 269/231/253 271/232/255
f 268/230/252 272/52/256 269/231/253
f 268/230/252 270/51/254 272/52/256
f 272/52/256 271/232/255 269/231/253
f 255/220/241 273/233/257 270/51/254
f 255/220/241 256/221/242 273/233/257
f 270/51/254 273/233/257 274/48/258
f 275/234/259 273/233/257 256/221/242
f 257/222/243 275/234/259 256/221/242
f 276/235/260 274/48/258 273/233/257
f 273/233/257 275/234/259 276/235/260
f 274/48/258 276/235/260 277/49/261
f 278/236/262 276/235/260 275/234/259
f 275/234/259 257/222/243 278/236/262
f 276/235/260 278/236/262 279/237/263
f 257/222/243 279/237/263 278/236/262
f 279/237/263 280/238/261 276/235/260
f 280/238/261 279/237/263 281/239/264
f 282/50/265 272/52/256 274/48/266
f 283/240/267 282/50/65 277/49/64
f 282/50/65 283/240/267 284/241/268
f 285/55/269 284/241/268 283/240/267
f 285/55/269 286/57/270 284/241/268
f 284/241/268 286/57/270 287/242/271
f 288/243/272 287/242/271 286/57/270
f 287/242/271 288/243/272 289/43/273
f 290/44/58 289/43/273 288/243/272
f 272/52/256 282/50/265 291/244/274
f 292/241/275 291/244/274 282/50/265
f 271/232/255 272/52/256 291/244/274
f 291/244/274 292/241/275 293/245/276
f 292/241/275 294/242/277 293/245/276
f 289/43/278 293/245/276 294/242/277
f 295/246/279 291/244/274 293/245/276
f 291/244/274 295/246/279 271/232/255
f 293/245/276 289/43/278 296/46/280
f 200/45/61 296/46/280 289/43/278
f 295/246/279 293/245/276 297/247/281
f 293/245/276 296/46/280 297/247/281
f 298/248/282 271/232/255 295/246/279
f 201/170/196 200/45/61 290/44/283
f 271/232/255 298/248/282 299/249/284
f 271/232/255 299/249/284 264/227/249
f 260/224/245 264/227/249 299/249/284
f 300/250/285 299/249/284 298/248/282
f 299/249/284 300/250/285 260/224/245
f 298/248/282 295/246/279 301/251/286
f 295/246/279 297/247/281 301/251/286
f 302/248/287 301/251/286 300/250/285
f 191/162/187 260/224/245 300/250/285
f 300/250/285 301/251/286 303/252/288
f 303/252/288 191/162/187 300/250/285
f 301/251/286 297/247/281 194/165/190
f 301/251/286 194/165/190 303/252/288
f 297/247/281 195/166/191 194/165/190
f 297/247/281 296/46/280 195/166/191
f 296/46/280 197/47/193 195/166/191
f 191/162/187 303/252/288 189/160/185
f 303/252/288 194/165/190 193/164/189
f 303/252/288 193/164/189 189/160/185
f 199/169/195 304/253/289 207/176/201
f 304/253/289 199/169/195 201/170/196
f 305/254/290 207/176/201 304/253/289
f 207/176/201 305/254/290 209/178/203
f 201/170/196 306/255/291 304/253/289
f 305/254/290 304/253/289 306/255/291
f 306/255/291 201/170/196 307/256/292
f 307/256/292 305/254/290 306/255/291
f 308/257/293 307/256/292 201/170/196
f 307/256/292 308/257/293 309/258/294
f 305/254/290 307/256/292 310/259/295
f 311/260/79 310/259/295 307/256/292
f 310/259/295 311/260/79 312/261/296
f 313/262/297 310/259/295 314/263/298
f 310/259/295 313/262/297 315/264/299
f 315/264/299 305/254/290 310/259/295
f 305/254/290 315/264/299 209/178/203
f 316/265/300 315/264/299 317/266/297
f 315/264/299 316/265/300 318/267/301
f 318/267/301 209/178/203 315/264/299
f 319/268/302 318/267/301 316/265/300
f 209/178/203 318/267/301 320/269/303
f 318/267/301 319/268/302 321/270/301
f 321/270/301 320/269/303 318/267/301
f 322/271/304 321/270/301 319/268/302
f 208/177/202 209/178/203 320/269/303
f 321/270/301 322/271/304 323/272/305
f 323/272/305 324/273/306 321/270/301
f 320/269/303 321/270/301 324/273/306
f 324/273/306 323/272/305 325/274/307
f 326/275/202 320/269/303 324/273/306
f 325/274/307 326/275/202 324/273/306
f 320/269/303 326/275/202 208/177/202
f 326/275/202 325/274/307 327/276/308
f 328/277/309 208/177/202 326/275/202
f 327/276/308 328/277/309 326/275/202
f 208/177/202 328/277/309 205/174/200
f 206/175/197 205/174/200 328/277/309
f 329/278/128 330/279/310 322/271/311
f 330/279/310 329/278/128 331/280/312
f 331/280/312 332/274/307 330/279/310
f 332/274/307 331/280/312 333/109/124
f 333/109/124 327/276/308 332/274/307
f 327/276/308 333/109/124 334/106/313
f 117/104/119 327/276/308 334/106/313
f 328/277/309 327/276/308 335/281/314
f 335/281/314 206/175/197 328/277/309
f 327/276/308 117/104/119 335/281/314
f 206/175/197 335/281/314 336/282/315
f 206/175/197 336/282/315 212/181/205
f 212/181/205 190/161/186 206/175/197
f 335/281/314 115/102/117 336/282/315
f 115/102/117 335/281/314 117/104/119
f 211/180/204 190/161/186 212/181/205
f 336/282/315 115/102/117 114/101/116
f 114/101/116 212/181/205 336/282/315
f 50/40/51 337/283/316 49/39/50
f 337/283/316 50/40/51 338/284/317
f 337/283/316 338/284/317 339/285/318
f 340/286/319 337/283/316 339/285/318
f 341/287/320 337/283/316 340/286/319
f 337/283/316 341/287/320 342/288/321
f 342/288/321 49/39/50 337/283/316
f 343/289/322 342/288/321 341/287/320
f 344/290/323 342/288/321 343/289/322
f 49/39/50 342/288/321 345/291/324
f 344/290/323 345/291/324 342/288/321
f 51/41/52 49/39/50 345/291/324
f 345/291/324 344/290/323 346/292/325
f 347/293/326 345/291/324 346/292/325
f 345/291/324 347/293/326 51/41/52
f 52/42/53 51/41/52 347/293/326
f 348/294/327 349/295/323 343/289/322
f 349/295/323 348/294/327 350/296/328
f 350/296/328 351/292/325 349/295/323
f 351/292/325 352/297/329 347/293/326
f 351/292/325 350/296/328 353/298/330
f 352/297/329 351/292/325 353/298/330
f 354/299/331 347/293/326 352/297/329
f 347/293/326 354/299/331 52/42/53
f 355/300/332 356/301/328 348/294/333
f 356/301/328 355/300/332 357/302/334
f 357/302/334 353/298/330 356/301/328
f 358/303/335 359/304/336 355/300/332
f 359/304/336 358/303/335 360/305/337
f 360/305/337 361/306/338 359/304/336
f 353/298/330 357/302/334 361/306/338
f 361/306/338 360/305/337 362/307/339
f 363/308/340 353/298/330 361/306/338
f 353/298/330 363/308/340 364/297/341
f 365/309/342 364/297/341 363/308/340
f 364/297/341 365/309/342 354/299/331
f 366/310/343 361/306/338 362/307/339
f 361/306/338 366/310/343 367/308/340
f 367/308/340 368/311/344 365/309/342
f 368/311/344 367/308/340 366/310/343
f 369/312/345 354/299/331 365/309/342
f 370/313/346 365/309/342 368/311/344
f 365/309/342 370/313/346 369/312/345
f 368/311/344 245/211/233 370/313/346
f 354/299/331 369/312/345 371/314/347
f 371/314/347 52/42/53 354/299/331
f 52/42/53 371/314/347 48/38/49
f 48/38/49 371/314/347 372/315/348
f 44/34/45 48/38/49 372/315/348
f 371/314/347 369/312/345 373/316/349
f 372/315/348 371/314/347 373/316/349
f 44/34/45 372/315/348 374/317/350
f 37/28/38 44/34/45 374/317/350
f 374/317/350 28/22/27 37/28/38
f 374/317/350 372/315/348 375/318/351
f 372/315/348 373/316/349 375/318/351
f 28/22/27 374/317/350 376/319/352
f 374/317/350 375/318/351 376/319/352
f 186/158/182 28/22/27 376/319/352
f 376/319/352 375/318/351 377/320/353
f 375/318/351 373/316/349 378/321/354
f 378/321/354 379/320/353 375/318/351
f 379/320/353 378/321/354 380/322/355
f 381/323/356 376/319/352 377/320/353
f 376/319/352 381/323/356 186/158/182
f 382/324/357 379/320/353 380/322/355
f 379/320/353 382/324/357 381/323/356
f 383/325/358 186/158/182 381/323/356
f 186/158/182 383/325/358 182/155/178
f 384/326/359 381/323/356 382/324/357
f 381/323/356 384/326/359 383/325/358
f 385/327/360 182/155/178 383/325/358
f 182/155/178 385/327/360 180/153/176
f 178/151/174 180/153/176 385/327/360
f 383/325/358 386/328/361 385/327/360
f 386/328/361 383/325/358 384/326/359
f 385/327/360 103/90/105 178/151/174
f 103/90/105 385/327/360 386/328/361
f 103/90/105 104/91/106 178/151/174
f 384/326/359 228/195/218 386/328/361
f 386/328/361 100/87/102 103/90/105
f 100/87/102 386/328/361 228/195/218
f 228/195/218 384/326/359 387/329/362
f 382/324/357 387/329/362 384/326/359
f 387/329/362 222/191/214 228/195/218
f 222/191/214 387/329/362 220/189/212
f 387/329/362 382/324/357 388/330/363
f 388/330/363 220/189/212 387/329/362
f 389/322/364 388/330/363 382/324/357
f 220/189/212 388/330/363 221/190/213
f 388/330/363 389/322/364 390/331/365
f 390/331/365 221/190/213 388/330/363
f 389/322/364 391/332/366 390/331/365
f 391/332/366 389/322/364 392/321/367
f 221/190/213 390/331/365 393/333/368
f 392/321/367 394/334/369 391/332/366
f 393/333/368 242/208/230 221/190/213
f 373/316/349 394/334/369 392/321/367
f 373/316/349 369/312/345 394/334/369
f 242/208/230 393/333/368 395/206/370
f 369/312/345 370/313/346 394/334/369
f 396/332/366 393/333/368 390/331/365
f 397/335/371 395/206/370 393/333/368
f 393/333/368 396/332/366 397/335/371
f 395/206/370 397/335/371 248/207/228
f 247/213/235 248/207/228 397/335/371
f 396/332/366 247/213/235 397/335/371
f 394/334/369 247/213/235 396/332/366
f 394/334/369 370/313/346 247/213/235
f 245/211/233 247/213/235 370/313/346
f 245/211/233 368/311/344 398/336/372
f 398/336/372 249/214/236 245/211/233
f 368/311/344 399/337/373 398/336/372
f 399/337/373 368/311/344 366/310/343
f 249/214/236 398/336/372 400/338/374
f 400/338/374 244/210/232 249/214/236
f 401/339/375 398/336/372 399/337/373
f 398/336/372 401/339/375 400/338/374
f 399/337/373 402/340/376 401/339/375
f 366/310/343 403/341/377 399/337/373
f 402/340/376 399/337/373 403/341/377
f 403/341/377 366/310/343 362/307/339
f 403/341/377 404/342/378 402/340/376
f 362/307/339 405/343/379 403/341/377
f 404/342/378 403/341/377 406/344/380
f 405/343/379 362/307/339 407/345/381
f 406/344/380 408/346/300 404/342/378
f 407/345/381 409/347/304 405/343/379
f 408/346/300 406/344/380 409/347/382
f 409/347/304 407/345/381 410/348/383
f 411/349/300 412/342/384 408/346/300
f 412/342/384 411/349/300 413/350/384
f 414/351/92 413/350/384 411/349/300
f 413/350/384 415/340/385 412/342/384
f 413/350/384 414/351/92 416/352/386
f 416/352/386 417/353/387 413/350/384
f 415/340/385 413/350/384 417/353/387
f 417/353/387 416/352/386 418/66/82
f 78/65/388 417/353/387 418/66/82
f 419/354/389 415/340/385 417/353/387
f 417/353/387 78/65/388 419/354/389
f 415/340/385 419/354/389 401/339/375
f 420/355/85 419/354/389 78/65/388
f 421/356/390 401/339/375 419/354/389
f 419/354/389 420/355/85 421/356/390
f 401/339/375 421/356/390 400/338/374
f 422/357/391 421/356/390 420/355/85
f 244/210/232 400/338/374 421/356/390
f 421/356/390 422/357/391 244/210/232
f 423/358/392 244/210/232 422/357/391
f 244/210/232 423/358/392 236/203/226
f 229/196/219 236/203/226 423/358/392
f 423/358/392 257/222/243 229/196/219
f 257/222/243 423/358/392 424/359/393
f 425/360/391 424/359/393 423/358/392
f 424/359/393 425/360/391 426/361/394
f 424/359/393 279/237/263 257/222/243
f 424/359/393 427/362/264 279/237/263
f 428/363/395 427/362/264 424/359/393
