# Blender 5.2.0 LTS
# www.blender.org
mtllib leftArmFinal6.mtl
o Monster_Left_Arm_29350945
v -1.434901 -0.180289 0.952812
v -1.374199 -0.196150 0.864952
v -1.403563 -0.084579 0.862416
v -1.449582 -0.124503 0.951544
v -1.514708 -0.054308 0.855523
v -1.502595 -0.108253 0.967505
v -1.596488 -0.135609 0.851166
v -1.540926 -0.147789 0.984734
v -1.567125 -0.247180 0.853702
v -1.526243 -0.203574 0.986003
v -1.473231 -0.219825 0.970041
v -1.455980 -0.277451 0.860595
v -1.434901 -0.180289 0.952812
v -1.374199 -0.196150 0.864952
v -1.451449 -0.151968 1.077593
v -1.736514 -0.251398 0.919772
v -1.670297 -0.267853 0.836106
v -1.697260 -0.155706 0.832502
v -1.749996 -0.195325 0.917971
v -1.807072 -0.123191 0.818332
v -1.803649 -0.178138 0.930431
v -1.889923 -0.202822 0.807767
v -1.843818 -0.217023 0.944693
v -1.862960 -0.314969 0.811371
v -1.830337 -0.273096 0.946495
v -1.776685 -0.290283 0.934035
v -1.753147 -0.347484 0.825541
v -1.736514 -0.251398 0.919772
v -1.670297 -0.267853 0.836106
v -1.760962 -0.223617 1.043371
v -2.035981 -0.290197 0.887087
v -1.959748 -0.305081 0.812104
v -1.983762 -0.192235 0.809690
v -2.047988 -0.233775 0.885880
v -2.090112 -0.156438 0.782763
v -2.102454 -0.215732 0.891981
v -2.172448 -0.233488 0.758248
v -2.144911 -0.254113 0.899289
v -2.148434 -0.346334 0.760662
v -2.132905 -0.310537 0.900496
v -2.078439 -0.328578 0.894395
v -2.042084 -0.382131 0.787590
v -2.035981 -0.290197 0.887087
v -1.959748 -0.305081 0.812104
v -2.075797 -0.266592 1.007518
v -1.703924 -0.520614 0.765149
v -2.196447 -0.598646 0.770276
v -1.866337 -0.657462 0.386785
v -1.655451 -0.655599 0.532522
v -1.648071 -0.545514 0.280878
v -1.646199 -0.622707 0.391066
v -1.838217 -0.567288 0.249740
v -1.777374 -0.450373 0.181404
v -1.686107 -0.254844 0.157616
v -1.774499 -0.199177 0.106161
v -1.747276 0.046142 0.234943
v -1.893113 0.179364 0.130382
v -1.766258 0.133048 0.322361
v -1.747276 0.046142 0.234943
v -1.893113 0.179364 0.130382
v -2.020691 0.236938 0.189542
v -1.803129 0.071042 0.719214
v -1.795747 0.181127 0.467560
v -2.110428 0.251082 0.359053
v -2.390898 0.047713 0.703478
v -1.803129 0.071042 0.719214
v -2.390898 0.047713 0.703478
v -2.360734 -0.170446 0.783017
v -1.785396 -0.098610 0.833077
v -1.735224 -0.370490 0.838120
v -2.267659 -0.438408 0.801529
v -2.196447 -0.598646 0.770276
v -1.703924 -0.520614 0.765149
v -1.984615 -0.437543 0.274527
v -1.933065 -0.353117 0.185781
v -2.068353 -0.199068 0.221940
v -2.157610 -0.002469 0.184604
v -2.073770 0.003025 0.113827
v -1.917081 -0.181579 0.128028
v -2.734582 -0.254520 0.259762
v -2.767376 -0.259994 0.332078
v -2.726593 -0.069058 0.298904
v -2.702193 -0.056725 0.246702
v -2.630318 -0.488048 0.272814
v -2.555947 -0.610247 0.271130
v -2.590300 -0.589709 0.310172
v -2.666772 -0.478979 0.328215
v -0.972149 0.175182 0.297649
v -1.184506 0.129470 0.286803
v -1.189919 0.221004 0.355926
v -0.964324 0.263866 0.344101
v -0.937627 0.024616 0.285138
v -1.121334 -0.116182 0.245484
v -0.862366 -0.101770 0.361810
v -1.035789 -0.336259 0.357134
v -0.805448 -0.154321 0.425738
v -0.993348 -0.392891 0.446041
v -0.752833 -0.162713 0.517749
v -0.694561 -0.050313 0.652960
v -0.953874 -0.278791 0.762418
v -0.962339 -0.417394 0.572910
v -0.693459 0.048432 0.692154
v -0.977515 -0.145582 0.818394
v -0.729414 0.195743 0.685129
v -0.796952 0.295977 0.611579
v -1.100893 0.218435 0.702999
v -1.039147 0.078886 0.805032
v -0.897635 0.327013 0.459226
v -1.170257 0.285790 0.488879
v -2.233032 -0.676366 0.525816
v -2.384655 -0.614816 0.697486
v -2.301868 -0.564814 0.389357
v -2.365082 -0.426617 0.382086
v -2.055290 -0.325286 0.345502
v -1.991930 -0.456865 0.365604
v -2.421599 0.106324 0.464959
v -2.524183 0.002461 0.660226
v -2.524183 0.002461 0.660226
v -2.541543 -0.220263 0.706194
v -2.384655 -0.614816 0.697486
v -2.456685 -0.465924 0.718533
v -2.452211 0.016539 0.352874
v -2.140914 0.033097 0.319999
v -2.129936 -0.128542 0.329485
v -2.436657 -0.254443 0.372379
v -1.306406 0.103361 0.384344
v -1.305962 0.032226 0.312078
v -1.445193 0.074045 0.272257
v -1.457221 0.159828 0.357580
v -1.253688 -0.203856 0.253777
v -1.375653 -0.219406 0.202209
v -1.169983 -0.427694 0.367036
v -1.310761 -0.457253 0.328337
v -1.132085 -0.482020 0.455776
v -1.287588 -0.516129 0.433461
v -1.100655 -0.375884 0.778576
v -1.298827 -0.401276 0.811314
v -1.274961 -0.546013 0.582241
v -1.104555 -0.505815 0.585239
v -1.131743 -0.224234 0.834344
v -1.331444 -0.254841 0.881791
v -1.241439 0.100253 0.721677
v -1.433265 0.130021 0.755232
v -1.388050 -0.025594 0.873050
v -1.189058 -0.017613 0.822275
v -1.300889 0.158192 0.505889
v -1.469057 0.218782 0.501325
v -2.301868 -0.564814 0.389357
v -1.991930 -0.456865 0.365604
v -2.380057 -0.682487 0.485787
v -2.535450 -0.656745 0.543974
v -2.140914 0.033097 0.319999
v -2.452211 0.016539 0.352874
v -2.184493 0.224894 0.014099
v -2.101918 0.202923 -0.015633
v -2.118318 0.092727 0.028557
v -2.175753 0.062251 0.058646
v -2.535450 -0.656745 0.543974
v -2.613556 -0.487798 0.562565
v -2.704112 -0.250937 0.567328
v -2.681882 -0.040287 0.508316
v -2.428482 -0.577295 0.320936
v -2.243608 0.190523 0.099418
v -2.237353 0.070333 0.139722
v -2.110428 0.251082 0.359053
v -2.101918 0.202923 -0.015633
v -2.184493 0.224894 0.014099
v -0.993348 -0.392891 0.446041
v -0.805448 -0.154321 0.425738
v -1.132085 -0.482020 0.455776
v -1.287588 -0.516129 0.433461
v -1.646199 -0.622707 0.391066
v -1.838217 -0.567288 0.249740
v -1.984615 -0.437543 0.274527
v -2.243608 0.190523 0.099418
v -0.888037 0.348434 0.275993
v -0.774361 0.407790 0.314325
v -2.595287 0.017839 0.361902
v -2.681882 -0.040287 0.508316
v -2.428482 -0.577295 0.320936
v -2.483223 -0.449689 0.320697
v -2.547970 -0.033456 0.292799
v -2.558322 -0.254405 0.313626
v -2.507869 -0.578942 0.252053
v -2.577505 -0.467830 0.243363
v -2.635577 -0.081449 0.218181
v -2.673780 -0.256106 0.222982
v -2.547970 -0.033456 0.292799
v -0.925226 0.238740 0.264719
v -0.911638 0.093623 0.271841
v -0.818954 -0.001898 0.304404
v -0.748802 -0.043385 0.330754
v -0.644970 -0.051044 0.366977
v -0.493616 0.067630 0.418894
v -0.429746 0.237750 0.437019
v -0.487920 0.396051 0.414583
v -0.610499 0.432577 0.370906
v -0.748802 -0.043385 0.330754
v -0.925226 0.238740 0.264719
v -0.888037 0.348434 0.275993
v -0.677339 0.187920 0.351847
v -0.911638 0.093623 0.271841
v -0.818954 -0.001898 0.304404
v -0.748802 -0.043385 0.330754
v -0.493616 0.067630 0.418894
v -0.644970 -0.051044 0.366977
v -0.487920 0.396051 0.414583
v -0.429746 0.237750 0.437019
v -0.610499 0.432577 0.370906
v -0.774361 0.407790 0.314325
v -1.795747 0.181127 0.467560
v -1.803129 0.071042 0.719214
v -1.785396 -0.098610 0.833077
v -1.735224 -0.370490 0.838120
v -1.703924 -0.520614 0.765149
v -1.655451 -0.655599 0.532522
v -1.646199 -0.622707 0.391066
v -1.646199 -0.622707 0.391066
v -1.648071 -0.545514 0.280878
v -1.686107 -0.254844 0.157616
v -1.747276 0.046142 0.234943
v -1.766258 0.133048 0.322361
vn 0.8898 -0.2212 0.3993
vn 0.7839 -0.2195 0.5808
vn 0.5686 0.6005 0.5623
vn 0.6615 0.6468 0.3796
vn -0.2392 0.8493 0.4707
vn -0.1733 0.8963 0.4082
vn -0.8811 0.2400 0.4076
vn -0.8052 0.2709 0.5274
vn -0.6537 -0.6247 0.4271
vn -0.5740 -0.6095 0.5468
vn 0.2854 -0.8476 0.4473
vn 0.2038 -0.8359 0.5096
vn 0.8897 -0.2213 0.3993
vn 0.3163 0.1046 0.9429
vn 0.8560 -0.2413 0.4572
vn 0.7385 -0.2381 0.6308
vn 0.5398 0.5858 0.6045
vn 0.6463 0.6309 0.4293
vn -0.2545 0.8505 0.4602
vn -0.1833 0.8967 0.4028
vn -0.9021 0.2543 0.3486
vn -0.8341 0.2834 0.4732
vn -0.6932 -0.6146 0.3766
vn -0.6213 -0.6020 0.5016
vn 0.2384 -0.8559 0.4588
vn 0.1520 -0.8434 0.5153
vn 0.8560 -0.2414 0.4572
vn 0.2529 0.0921 0.9631
vn 0.7845 -0.2796 0.5535
vn 0.6449 -0.2808 0.7108
vn 0.4681 0.5479 0.6933
vn 0.5975 0.5974 0.5349
vn -0.2956 0.8380 0.4586
vn -0.2164 0.8849 0.4125
vn -0.9346 0.2634 0.2390
vn -0.8829 0.2859 0.3724
vn -0.7486 -0.6109 0.2577
vn -0.6933 -0.6053 0.3912
vn 0.1586 -0.8785 0.4506
vn 0.0671 -0.8663 0.4950
vn 0.6448 -0.2809 0.7108
vn 0.1269 0.0482 0.9907
vn 0.0754 -0.7137 0.6964
vn -0.0450 -0.6830 0.7290
vn -0.1639 -0.9301 -0.3286
vn 0.0611 -0.9788 0.1957
vn 0.2517 -0.6328 -0.7323
vn 0.2321 -0.8931 -0.3853
vn -0.2510 -0.6516 -0.7158
vn 0.0536 -0.4012 -0.9144
vn 0.3190 -0.0753 -0.9448
vn 0.2496 -0.0057 -0.9683
vn 0.4571 0.4757 -0.7515
vn 0.5266 0.5780 -0.6234
vn 0.3059 0.8643 -0.3992
vn 0.5266 0.5779 -0.6235
vn 0.1559 0.9807 -0.1183
vn -0.1158 0.7431 0.6591
vn 0.0640 0.9913 0.1148
vn -0.3059 0.9488 0.0787
vn -0.2645 0.6671 0.6965
vn -0.1158 0.7430 0.6592
vn -0.2646 0.6670 0.6965
vn -0.2491 0.1512 0.9566
vn -0.1275 0.2838 0.9504
vn -0.0219 -0.2174 0.9758
vn -0.2177 -0.1409 0.9658
vn -0.0450 -0.6829 0.7291
vn 0.0754 -0.7136 0.6965
vn -0.7001 -0.5339 -0.4742
vn -0.4061 -0.3793 -0.8314
vn -0.7311 -0.3963 -0.5554
vn -0.7568 -0.6194 -0.2088
vn -0.0962 -0.4911 -0.8657
vn -0.2548 -0.2000 -0.9461
vn -0.7608 -0.1217 -0.6375
vn -0.9896 -0.1266 -0.0689
vn -0.8640 0.4909 -0.1117
vn -0.5397 0.5752 -0.6146
vn -0.6329 -0.3614 -0.6847
vn -0.2799 -0.7345 -0.6182
vn -0.7677 -0.6185 -0.1676
vn -0.8741 -0.4707 -0.1198
vn -0.3342 0.2077 -0.9193
vn -0.2721 0.3791 -0.8845
vn -0.4355 0.7062 -0.5583
vn -0.5310 0.6924 -0.4884
vn 0.1053 -0.1507 -0.9830
vn 0.1123 -0.0867 -0.9899
vn 0.2959 -0.4653 -0.8342
vn 0.4063 -0.4820 -0.7763
vn 0.4866 -0.6514 -0.5821
vn 0.5640 -0.6866 -0.4588
vn 0.7231 -0.6905 -0.0185
vn 0.7222 -0.4729 0.5047
vn 0.5464 -0.4857 0.6823
vn 0.6515 -0.7534 0.0887
vn 0.5910 -0.0613 0.8043
vn 0.3139 -0.0983 0.9444
vn 0.3493 0.4047 0.8451
vn 0.0083 0.8116 0.5842
vn -0.2506 0.7498 0.6124
vn 0.0399 0.3636 0.9307
vn -0.2974 0.9438 0.1440
vn -0.4314 0.9019 0.0236
vn 0.0793 -0.9814 -0.1751
vn -0.3057 -0.6900 0.6561
vn 0.2457 -0.4419 -0.8628
vn 0.1859 0.0313 -0.9821
vn -0.5682 -0.3107 -0.7620
vn -0.5036 -0.5041 -0.7016
vn -0.3479 0.9233 -0.1627
vn -0.5416 0.5746 0.6135
vn -0.5416 0.5746 0.6136
vn -0.5587 0.0266 0.8289
vn -0.3057 -0.6899 0.6562
vn -0.5168 -0.2394 0.8219
vn 0.0482 0.5033 -0.8628
vn -0.8914 0.0497 -0.4506
vn -0.6182 -0.2518 -0.7446
vn 0.2095 -0.0186 -0.9776
vn -0.1626 0.7948 -0.5847
vn 0.0114 0.4324 -0.9016
vn 0.2084 0.5207 -0.8279
vn 0.1684 0.8324 -0.5279
vn 0.2281 -0.1046 -0.9680
vn 0.2743 -0.0479 -0.9604
vn 0.3109 -0.5997 -0.7374
vn 0.3080 -0.6002 -0.7382
vn 0.3584 -0.8408 -0.4057
vn 0.2866 -0.8801 -0.3785
vn 0.3245 -0.5915 0.7381
vn 0.1651 -0.6109 0.7743
vn 0.2389 -0.9525 0.1888
vn 0.3793 -0.9124 0.1538
vn 0.2072 -0.1351 0.9689
vn 0.1058 -0.1638 0.9808
vn -0.1252 0.7779 0.6157
vn 0.0221 0.8149 0.5792
vn 0.0388 0.3535 0.9346
vn 0.0627 0.3416 0.9378
vn -0.2027 0.9792 0.0125
vn 0.0879 0.9961 -0.0086
vn -0.5036 -0.5042 -0.7016
vn 0.0712 -0.9805 -0.1830
vn -0.5522 -0.7818 0.2896
vn 0.0481 0.5033 -0.8628
vn -0.4966 0.6066 -0.6209
vn 0.1775 0.3336 -0.9259
vn 0.1312 -0.4540 -0.8813
vn -0.4594 -0.5759 -0.6762
vn -0.8070 -0.3713 0.4593
vn -0.8472 -0.0594 0.5280
vn -0.7605 0.5571 0.3335
vn 0.5262 -0.3193 -0.7881
vn -0.9008 0.4177 -0.1190
vn -0.9297 -0.3677 -0.0204
vn -0.3059 0.9488 0.0788
vn 0.1776 0.3335 -0.9259
vn 0.4866 -0.6515 -0.5821
vn 0.3584 -0.8409 -0.4056
vn 0.2866 -0.8801 -0.3784
vn -0.2511 -0.6517 -0.7157
vn -0.7001 -0.5340 -0.4741
vn -0.3376 0.5995 -0.7257
vn -0.0212 0.8055 -0.5923
vn -0.3036 0.9088 -0.2861
vn -0.7605 0.5572 0.3335
vn 0.5263 -0.3193 -0.7881
vn 0.5177 0.2024 -0.8313
vn 0.3458 0.4422 -0.8276
vn 0.5436 0.0266 -0.8389
vn 0.3605 -0.3252 -0.8743
vn 0.1060 -0.0135 -0.9943
vn 0.1866 0.2972 -0.9364
vn -0.0389 -0.0842 -0.9957
vn -0.3218 0.1513 -0.9347
vn -0.0413 -0.0645 -0.9971
vn 0.1822 -0.2643 -0.9471
vn 0.2346 -0.3883 -0.8912
vn 0.5573 -0.5663 -0.6072
vn 0.8411 -0.4299 -0.3282
vn 0.9890 0.0679 -0.1311
vn 0.7214 0.6714 -0.1698
vn 0.2459 0.8675 -0.4324
vn 0.2347 -0.3882 -0.8912
vn -0.3218 0.1513 -0.9346
vn -0.3377 0.5995 -0.7256
vn 0.3300 -0.0157 -0.9439
vn -0.0412 -0.0644 -0.9971
vn 0.1822 -0.2642 -0.9471
vn 0.5573 -0.5664 -0.6071
vn 0.9890 0.0678 -0.1311
vn -0.0211 0.8055 -0.5922
vn 0.0639 0.9913 0.1148
vn 0.0612 -0.9788 0.1957
vn 0.3189 -0.0753 -0.9448
vn 0.4570 0.4758 -0.7515
vn 0.3058 0.8643 -0.3992
vt 0.592508 0.132673
vt 0.557927 0.063511
vt 0.580981 0.063511
vt 0.604035 0.132673
vt 0.604035 0.063511
vt 0.615562 0.132673
vt 0.627088 0.063511
vt 0.627088 0.132673
vt 0.650142 0.063511
vt 0.638615 0.132673
vt 0.650142 0.132673
vt 0.673196 0.063511
vt 0.661669 0.132673
vt 0.696250 0.063511
vt 0.627088 0.201834
vt 0.838279 0.234950
vt 0.846402 0.255673
vt 0.834048 0.258166
vt 0.832523 0.241449
vt 0.816707 0.273232
vt 0.817030 0.266755
vt 0.822852 0.273710
vt 0.820157 0.278786
vt 0.815507 0.288040
vt 0.817422 0.290238
vt 0.813138 0.301657
vt 0.815594 0.309544
vt 0.825230 0.347852
vt 0.821991 0.347829
vt 0.822985 0.338802
vt 0.826588 0.335327
vt 0.834538 0.358998
vt 0.829123 0.350381
vt 0.832545 0.332796
vt 0.843758 0.338292
vt 0.873795 0.311493
vt 0.859887 0.312355
vt 0.860077 0.301596
vt 0.874020 0.302020
vt 0.874532 0.289366
vt 0.860854 0.287875
vt 0.861255 0.279493
vt 0.874784 0.281368
vt 0.826146 0.282643
vt 0.822874 0.286176
vt 0.825728 0.295880
vt 0.825380 0.306987
vt 0.822352 0.306785
vt 0.820615 0.293989
vt 0.842771 0.302563
vt 0.844519 0.302861
vt 0.843250 0.311327
vt 0.841745 0.311075
vt 0.842645 0.289847
vt 0.842158 0.283905
vt 0.843506 0.284635
vt 0.844265 0.291265
vt 0.502448 0.875029
vt 0.478749 0.875029
vt 0.478964 0.838975
vt 0.501147 0.838975
vt 0.502912 0.918363
vt 0.474350 0.918363
vt 0.506555 0.970373
vt 0.477170 0.970373
vt 0.509816 0.998989
vt 0.480462 0.998989
vt 0.502942 0.560552
vt 0.513258 0.625008
vt 0.487517 0.625008
vt 0.480496 0.560552
vt 0.513523 0.661381
vt 0.487503 0.661381
vt 0.513817 0.712099
vt 0.502541 0.748937
vt 0.482399 0.748937
vt 0.487372 0.712099
vt 0.502030 0.794037
vt 0.480022 0.794037
vt 0.841660 0.265300
vt 0.847816 0.264866
vt 0.834329 0.281506
vt 0.834598 0.289188
vt 0.829599 0.288931
vt 0.829317 0.281550
vt 0.839125 0.328885
vt 0.845434 0.331842
vt 0.855892 0.313054
vt 0.855240 0.301520
vt 0.856012 0.279882
vt 0.855922 0.287950
vt 0.833782 0.311877
vt 0.829118 0.307839
vt 0.829766 0.299676
vt 0.834881 0.298187
vt 0.465522 0.838975
vt 0.464389 0.875029
vt 0.451788 0.875029
vt 0.452582 0.838975
vt 0.457043 0.918363
vt 0.446639 0.918363
vt 0.459364 0.970373
vt 0.448266 0.970373
vt 0.462675 0.998989
vt 0.450586 0.998989
vt 0.471920 0.625008
vt 0.457066 0.625008
vt 0.453544 0.560552
vt 0.466895 0.560552
vt 0.471736 0.661381
vt 0.456937 0.661381
vt 0.470195 0.748937
vt 0.455857 0.748937
vt 0.456664 0.712099
vt 0.471347 0.712099
vt 0.466687 0.794037
vt 0.453398 0.794037
vt 0.838881 0.273478
vt 0.834322 0.269534
vt 0.843320 0.272325
vt 0.847194 0.275215
vt 0.832835 0.322295
vt 0.837841 0.321924
vt 0.822683 0.320783
vt 0.820498 0.318476
vt 0.821949 0.313374
vt 0.823538 0.312735
vt 0.850121 0.280358
vt 0.850534 0.289399
vt 0.850397 0.301425
vt 0.849745 0.313866
vt 0.840093 0.279852
vt 0.825345 0.319367
vt 0.825955 0.312967
vt 0.831227 0.318117
vt 0.823482 0.325695
vt 0.825484 0.323346
vt 0.480442 0.499927
vt 0.503509 0.499927
vt 0.466465 0.499927
vt 0.453242 0.499927
vt 0.829658 0.245561
vt 0.830015 0.257842
vt 0.831319 0.267985
vt 0.828324 0.323635
vt 0.547135 0.838975
vt 0.547135 0.794037
vt 0.841237 0.318752
vt 0.846099 0.321493
vt 0.837883 0.282999
vt 0.837909 0.289478
vt 0.836636 0.311630
vt 0.837948 0.299768
vt 0.840697 0.283979
vt 0.840950 0.289607
vt 0.839900 0.310582
vt 0.841186 0.301669
vt 0.838831 0.316367
vt 0.547135 0.875029
vt 0.547135 0.918363
vt 0.547135 0.970373
vt 0.547135 0.998989
vt 0.547135 0.560552
vt 0.547135 0.625008
vt 0.547135 0.661381
vt 0.547135 0.712099
vt 0.547135 0.748937
vt 0.547135 0.499927
vt 0.195447 0.089518
vt 0.207259 0.089518
vt 0.226548 0.152485
vt 0.195447 0.159103
vt 0.195447 0.215118
vt 0.210857 0.215118
vt 0.257879 0.215118
vt 0.223122 0.215118
vt 0.257879 0.089518
vt 0.257879 0.158047
vt 0.242084 0.089518
vt 0.221312 0.089518
vt 0.422262 0.794037
vt 0.422262 0.748937
vt 0.422262 0.712099
vt 0.422262 0.661381
vt 0.422262 0.625008
vt 0.422262 0.560552
vt 0.422262 0.499927
vt 0.422262 0.998989
vt 0.422262 0.970373
vt 0.422262 0.918363
vt 0.422262 0.875029
vt 0.422262 0.838975
s 1
f 1/1/1 2/2/2 3/3/3
f 3/3/3 4/4/4 1/1/1
f 4/4/4 3/3/3 5/5/5
f 5/5/5 6/6/6 4/4/4
f 6/6/6 5/5/5 7/7/7
f 7/7/7 8/8/8 6/6/6
f 8/8/8 7/7/7 9/9/9
f 9/9/9 10/10/10 8/8/8
f 11/11/11 10/10/10 9/9/9
f 9/9/9 12/12/12 11/11/11
f 13/13/13 11/11/11 12/12/12
f 12/12/12 14/14/2 13/13/13
f 1/1/1 4/4/4 15/15/14
f 4/4/4 6/6/6 15/15/14
f 6/6/6 8/8/8 15/15/14
f 8/8/8 10/10/10 15/15/14
f 10/10/10 11/11/11 15/15/14
f 11/11/11 13/13/13 15/15/14
f 16/1/15 17/2/16 18/3/17
f 18/3/17 19/4/18 16/1/15
f 19/4/18 18/3/17 20/5/19
f 20/5/19 21/6/20 19/4/18
f 21/6/20 20/5/19 22/7/21
f 22/7/21 23/8/22 21/6/20
f 23/8/22 22/7/21 24/9/23
f 24/9/23 25/10/24 23/8/22
f 26/11/25 25/10/24 24/9/23
f 24/9/23 27/12/26 26/11/25
f 28/13/27 26/11/25 27/12/26
f 27/12/26 29/14/16 28/13/27
f 16/1/15 19/4/18 30/15/28
f 19/4/18 21/6/20 30/15/28
f 21/6/20 23/8/22 30/15/28
f 23/8/22 25/10/24 30/15/28
f 25/10/24 26/11/25 30/15/28
f 26/11/25 28/13/27 30/15/28
f 31/1/29 32/2/30 33/3/31
f 33/3/31 34/4/32 31/1/29
f 34/4/32 33/3/31 35/5/33
f 35/5/33 36/6/34 34/4/32
f 36/6/34 35/5/33 37/7/35
f 37/7/35 38/8/36 36/6/34
f 38/8/36 37/7/35 39/9/37
f 39/9/37 40/10/38 38/8/36
f 41/11/39 40/10/38 39/9/37
f 39/9/37 42/12/40 41/11/39
f 43/13/29 41/11/39 42/12/40
f 42/12/40 44/14/41 43/13/29
f 31/1/29 34/4/32 45/15/42
f 34/4/32 36/6/34 45/15/42
f 36/6/34 38/8/36 45/15/42
f 38/8/36 40/10/38 45/15/42
f 40/10/38 41/11/39 45/15/42
f 41/11/39 43/13/29 45/15/42
f 46/16/43 47/17/44 48/18/45
f 48/18/45 49/19/46 46/16/43
f 50/20/47 51/21/48 52/22/49
f 52/22/49 53/23/50 50/20/47
f 54/24/51 50/20/47 53/23/50
f 53/23/50 55/25/52 54/24/51
f 56/26/53 54/24/51 55/25/52
f 55/25/52 57/27/54 56/26/53
f 58/28/55 59/29/53 60/30/56
f 60/30/56 61/31/57 58/28/55
f 62/32/58 63/33/59 64/34/60
f 64/34/60 65/35/61 62/32/58
f 66/36/62 67/37/63 68/38/64
f 68/38/64 69/39/65 66/36/62
f 70/40/66 71/41/67 72/42/68
f 72/42/68 73/43/69 70/40/66
f 53/23/50 52/22/49 74/44/70
f 74/44/70 75/45/71 53/23/50
f 76/46/72 77/47/73 78/48/74
f 78/48/74 79/49/75 76/46/72
f 80/50/76 81/51/77 82/52/78
f 82/52/78 83/53/79 80/50/76
f 84/54/80 85/55/81 86/56/82
f 86/56/82 87/57/83 84/54/80
f 88/58/84 89/59/85 90/60/86
f 90/60/86 91/61/87 88/58/84
f 92/62/88 93/63/89 89/59/85
f 89/59/85 88/58/84 92/62/88
f 93/63/89 92/62/88 94/64/90
f 94/64/90 95/65/91 93/63/89
f 96/66/92 97/67/93 95/65/91
f 95/65/91 94/64/90 96/66/92
f 98/68/94 99/69/95 100/70/96
f 100/70/96 101/71/97 98/68/94
f 99/69/95 102/72/98 103/73/99
f 103/73/99 100/70/96 99/69/95
f 104/74/100 105/75/101 106/76/102
f 106/76/102 107/77/103 104/74/100
f 108/78/104 109/79/105 106/76/102
f 106/76/102 105/75/101 108/78/104
f 110/80/106 48/18/45 47/17/44
f 47/17/44 111/81/107 110/80/106
f 112/82/108 113/83/109 114/84/110
f 114/84/110 115/85/111 112/82/108
f 116/86/112 117/87/113 65/35/61
f 65/35/61 64/34/60 116/86/112
f 118/88/114 119/89/115 68/38/64
f 68/38/64 67/37/63 118/88/114
f 120/90/116 72/42/68 71/41/67
f 71/41/67 121/91/117 120/90/116
f 122/92/118 123/93/119 124/94/120
f 124/94/120 125/95/121 122/92/118
f 126/96/122 127/97/123 128/98/124
f 128/98/124 129/99/125 126/96/122
f 127/97/123 130/100/126 131/101/127
f 131/101/127 128/98/124 127/97/123
f 130/100/126 132/102/128 133/103/129
f 133/103/129 131/101/127 130/100/126
f 132/102/128 134/104/130 135/105/131
f 135/105/131 133/103/129 132/102/128
f 136/106/132 137/107/133 138/108/134
f 138/108/134 139/109/135 136/106/132
f 140/110/136 141/111/137 137/107/133
f 137/107/133 136/106/132 140/110/136
f 142/112/138 143/113/139 144/114/140
f 144/114/140 145/115/141 142/112/138
f 146/116/142 147/117/143 143/113/139
f 143/113/139 142/112/138 146/116/142
f 110/80/106 148/118/108 149/119/144
f 149/119/144 48/18/45 110/80/106
f 85/55/81 150/120/145 151/121/146
f 151/121/146 86/56/82 85/55/81
f 116/86/112 64/34/60 152/122/119
f 152/122/119 153/123/147 116/86/112
f 76/46/72 79/49/75 75/45/71
f 75/45/71 74/44/70 76/46/72
f 57/27/54 55/25/52 79/49/75
f 79/49/75 78/48/74 57/27/54
f 55/25/52 53/23/50 75/45/71
f 75/45/71 79/49/75 55/25/52
f 154/124/148 155/125/149 156/126/150
f 156/126/150 157/127/151 154/124/148
f 86/56/82 158/128/146 159/129/152
f 159/129/152 87/57/83 86/56/82
f 81/51/77 160/130/153 161/131/154
f 161/131/154 82/52/78 81/51/77
f 148/118/108 110/80/106 150/120/145
f 150/120/145 162/132/155 148/118/108
f 155/125/149 57/27/54 78/48/74
f 78/48/74 156/126/150 155/125/149
f 157/127/151 156/126/150 78/48/74
f 78/48/74 77/47/73 157/127/151
f 163/133/156 164/134/157 123/93/119
f 123/93/119 165/135/158 163/133/156
f 166/136/159 167/137/148 61/31/57
f 61/31/57 60/30/56 166/136/159
f 98/68/94 101/71/97 168/138/93
f 168/138/93 169/139/160 98/68/94
f 170/140/161 139/109/135 138/108/134
f 138/108/134 171/141/162 170/140/161
f 172/142/48 49/19/46 48/18/45
f 48/18/45 173/143/163 172/142/48
f 173/143/163 48/18/45 149/119/144
f 149/119/144 174/144/164 173/143/163
f 74/44/70 115/85/111 114/84/110
f 114/84/110 76/46/72 74/44/70
f 124/94/120 123/93/119 77/47/73
f 77/47/73 76/46/72 124/94/120
f 164/134/157 157/127/151 77/47/73
f 77/47/73 123/93/119 164/134/157
f 163/133/156 154/124/148 157/127/151
f 157/127/151 164/134/157 163/133/156
f 175/145/156 64/34/60 61/31/57
f 61/31/57 167/137/148 175/145/156
f 63/33/59 58/28/55 61/31/57
f 61/31/57 64/34/60 63/33/59
f 146/116/142 126/96/122 129/99/125
f 129/99/125 147/117/143 146/116/142
f 109/79/105 108/78/104 91/61/87
f 91/61/87 90/60/86 109/79/105
f 176/146/165 91/61/87 108/78/104
f 108/78/104 177/147/166 176/146/165
f 116/86/112 178/148/167 179/149/168
f 179/149/168 117/87/113 116/86/112
f 161/131/154 160/130/153 119/89/115
f 119/89/115 118/88/114 161/131/154
f 158/128/146 120/90/116 121/91/117
f 121/91/117 159/129/152 158/128/146
f 150/120/145 110/80/106 111/81/107
f 111/81/107 151/121/146 150/120/145
f 180/150/169 181/151/170 113/83/109
f 113/83/109 112/82/108 180/150/169
f 182/152/171 122/92/118 125/95/121
f 125/95/121 183/153/172 182/152/171
f 184/154/173 185/155/174 181/151/170
f 181/151/170 180/150/169 184/154/173
f 186/156/175 182/152/171 183/153/172
f 183/153/172 187/157/176 186/156/175
f 178/148/167 83/53/79 82/52/78
f 82/52/78 179/149/168 178/148/167
f 153/123/147 188/158/171 178/148/167
f 178/148/167 116/86/112 153/123/147
f 188/158/171 186/156/175 83/53/79
f 83/53/79 178/148/167 188/158/171
f 187/157/176 80/50/76 83/53/79
f 83/53/79 186/156/175 187/157/176
f 185/155/174 184/154/173 85/55/81
f 85/55/81 84/54/80 185/155/174
f 162/132/155 150/120/145 85/55/81
f 85/55/81 184/154/173 162/132/155
f 189/159/177 88/58/84 91/61/87
f 91/61/87 176/146/165 189/159/177
f 190/160/178 92/62/88 88/58/84
f 88/58/84 189/159/177 190/160/178
f 92/62/88 190/160/178 191/161/179
f 191/161/179 94/64/90 92/62/88
f 192/162/180 96/66/92 94/64/90
f 94/64/90 191/161/179 192/162/180
f 99/69/95 98/68/94 193/163/181
f 193/163/181 194/164/182 99/69/95
f 102/72/98 99/69/95 194/164/182
f 194/164/182 195/165/183 102/72/98
f 105/75/101 104/74/100 196/166/184
f 196/166/184 197/167/185 105/75/101
f 108/78/104 105/75/101 197/167/185
f 197/167/185 177/147/166 108/78/104
f 193/163/181 98/68/94 169/139/160
f 169/139/160 198/168/186 193/163/181
f 104/74/100 102/72/98 195/165/183
f 195/165/183 196/166/184 104/74/100
f 102/72/98 104/74/100 107/77/103
f 107/77/103 103/73/99 102/72/98
f 145/115/141 144/114/140 141/111/137
f 141/111/137 140/110/136 145/115/141
f 69/39/65 68/38/64 71/41/67
f 71/41/67 70/40/66 69/39/65
f 68/38/64 119/89/115 121/91/117
f 121/91/117 71/41/67 68/38/64
f 119/89/115 160/130/153 159/129/152
f 159/129/152 121/91/117 119/89/115
f 160/130/153 81/51/77 87/57/83
f 87/57/83 159/129/152 160/130/153
f 80/50/76 84/54/80 87/57/83
f 87/57/83 81/51/77 80/50/76
f 187/157/176 185/155/174 84/54/80
f 84/54/80 80/50/76 187/157/176
f 185/155/174 187/157/176 183/153/172
f 183/153/172 181/151/170 185/155/174
f 181/151/170 183/153/172 125/95/121
f 125/95/121 113/83/109 181/151/170
f 113/83/109 125/95/121 124/94/120
f 124/94/120 114/84/110 113/83/109
f 76/46/72 114/84/110 124/94/120
f 199/169/187 200/170/188 201/171/189
f 202/172/190 199/169/187 201/171/189
f 203/173/191 202/172/190 201/171/189
f 204/174/186 203/173/191 201/171/189
f 205/175/182 206/176/192 201/171/189
f 207/177/184 208/178/193 201/171/189
f 209/179/185 207/177/184 201/171/189
f 210/180/194 209/179/185 201/171/189
f 206/176/192 204/174/186 201/171/189
f 200/170/188 210/180/194 201/171/189
f 208/178/193 205/175/182 201/171/189
f 100/70/96 103/73/99 140/110/136
f 140/110/136 136/106/132 100/70/96
f 101/71/97 100/70/96 136/106/132
f 136/106/132 139/109/135 101/71/97
f 168/138/93 101/71/97 139/109/135
f 139/109/135 170/140/161 168/138/93
f 97/67/93 134/104/130 132/102/128
f 132/102/128 95/65/91 97/67/93
f 130/100/126 93/63/89 95/65/91
f 95/65/91 132/102/128 130/100/126
f 93/63/89 130/100/126 127/97/123
f 127/97/123 89/59/85 93/63/89
f 89/59/85 127/97/123 126/96/122
f 126/96/122 90/60/86 89/59/85
f 146/116/142 109/79/105 90/60/86
f 90/60/86 126/96/122 146/116/142
f 106/76/102 109/79/105 146/116/142
f 146/116/142 142/112/138 106/76/102
f 142/112/138 145/115/141 107/77/103
f 107/77/103 106/76/102 142/112/138
f 103/73/99 107/77/103 145/115/141
f 145/115/141 140/110/136 103/73/99
f 147/117/143 211/181/195 212/182/62
f 212/182/62 143/113/139 147/117/143
f 143/113/139 212/182/62 213/183/65
f 213/183/65 144/114/140 143/113/139
f 141/111/137 144/114/140 213/183/65
f 213/183/65 214/184/66 141/111/137
f 137/107/133 141/111/137 214/184/66
f 214/184/66 215/185/69 137/107/133
f 138/108/134 137/107/133 215/185/69
f 215/185/69 216/186/196 138/108/134
f 171/141/162 138/108/134 216/186/196
f 216/186/196 217/187/48 171/141/162
f 133/103/129 135/105/131 218/188/48
f 218/188/48 219/189/47 133/103/129
f 219/189/47 220/190/197 131/101/127
f 131/101/127 133/103/129 219/189/47
f 128/98/124 131/101/127 220/190/197
f 220/190/197 221/191/198 128/98/124
f 128/98/124 221/191/198 222/192/199
f 222/192/199 129/99/125 128/98/124
f 211/181/195 147/117/143 129/99/125
f 129/99/125 222/192/199 211/181/195
