# Blender 5.2.0 LTS
# www.blender.org
mtllib rightArmFinal7.mtl
o Monster_Right_Arm_29351058
v -1.389930 -0.744725 0.165733
v -1.664032 -0.756370 -0.263489
v -1.174473 -0.681121 -0.205478
v -1.161532 -0.770911 0.052313
v -1.184479 -0.616154 0.278192
v -1.322978 -0.503608 0.339978
v -1.377646 -0.630862 0.286512
v -1.170246 -0.712430 0.185285
v -1.229871 -0.307500 0.339852
v -1.322625 -0.242838 0.367695
v -1.271119 -0.025755 0.201173
v -1.425533 0.125233 0.258689
v -1.275656 0.043544 0.097578
v -1.542295 0.171469 0.173134
v -1.425533 0.125233 0.258689
v -1.271119 -0.025755 0.201173
v -1.261114 -0.090723 -0.282497
v -1.846165 -0.107891 -0.343211
v -1.608158 0.154402 -0.006749
v -1.284059 0.064037 -0.056608
v -1.812224 -0.337151 -0.376638
v -1.846165 -0.107891 -0.343211
v -1.261114 -0.090723 -0.282497
v -1.233453 -0.278615 -0.359909
v -1.664032 -0.756370 -0.263489
v -1.725597 -0.604352 -0.332946
v -1.191241 -0.546964 -0.308251
v -1.174473 -0.681121 -0.205478
v -1.473705 -0.408095 0.296662
v -1.515470 -0.507248 0.218655
v -1.611995 -0.044111 0.282370
v -1.685773 -0.062215 0.203013
v -1.598276 -0.262757 0.214806
v -1.460425 -0.228906 0.323708
v -2.254871 -0.321033 0.097103
v -2.218591 -0.124401 0.078076
v -2.236169 -0.146072 0.026172
v -2.277877 -0.339649 0.023216
v -2.156854 -0.553439 0.141342
v -2.185306 -0.554613 0.080765
v -2.115281 -0.660452 0.129028
v -2.087074 -0.673568 0.175487
v -0.697611 0.120972 0.127554
v -0.704214 0.043801 0.212329
v -0.491033 0.085685 0.222423
v -0.474424 0.164191 0.162050
v -0.654520 -0.190247 0.306108
v -0.463023 -0.060122 0.266852
v -0.561493 -0.427609 0.249334
v -0.382036 -0.198887 0.225597
v -0.509293 -0.499934 0.178929
v -0.318704 -0.262644 0.180742
v -0.254563 -0.288190 0.099883
v -0.462392 -0.547665 0.064126
v -0.424570 -0.446608 -0.144567
v -0.175432 -0.203065 -0.044352
v -0.436526 -0.325960 -0.226654
v -0.166150 -0.113296 -0.100415
v -0.563209 0.053725 -0.197723
v -0.271986 0.145389 -0.081372
v -0.198281 0.032939 -0.125425
v -0.492624 -0.102606 -0.263110
v -0.658457 0.159912 -0.011049
v -0.391112 0.204596 0.047528
v -1.735208 -0.787282 -0.016270
v -1.860666 -0.757867 -0.215376
v -1.818249 -0.652052 0.086785
v -1.511148 -0.543072 0.132515
v -1.572645 -0.409741 0.119370
v -1.877691 -0.514596 0.059958
v -1.906629 -0.005963 -0.125900
v -1.985325 -0.143702 -0.311036
v -1.985325 -0.143702 -0.311036
v -2.003077 -0.371001 -0.317436
v -1.860666 -0.757867 -0.215376
v -1.924743 -0.615103 -0.272934
v -1.954596 -0.073282 -0.004539
v -1.944721 -0.343259 0.028146
v -1.642820 -0.213076 0.088790
v -1.650110 -0.052426 0.066969
v -0.812745 0.000666 0.105484
v -0.964019 0.061842 0.100612
v -0.966058 -0.006709 0.201012
v -0.824078 -0.055853 0.188911
v -0.915321 -0.282438 0.332371
v -0.787156 -0.277300 0.295983
v -0.841356 -0.539843 0.261930
v -0.695851 -0.518646 0.238080
v -0.806148 -0.617285 0.173513
v -0.648105 -0.588654 0.166795
v -0.774694 -0.674273 0.035849
v -0.763440 -0.574360 -0.216902
v -0.570733 -0.544303 -0.162598
v -0.604282 -0.636151 0.048861
v -0.781956 -0.443359 -0.316752
v -0.589539 -0.405459 -0.248871
v -0.832315 -0.216190 -0.357894
v -0.888149 -0.041227 -0.277819
v -0.703492 -0.065191 -0.213499
v -0.641724 -0.199903 -0.282733
v -0.954803 0.093204 -0.051736
v -0.789424 0.032005 -0.022125
v -1.511148 -0.543072 0.132515
v -1.818249 -0.652052 0.086785
v -2.031778 -0.769903 -0.078851
v -1.886376 -0.785172 0.003736
v -1.954596 -0.073282 -0.004539
v -1.650110 -0.052426 0.066969
v -1.664805 0.060049 0.342901
v -1.651145 0.176442 0.368015
v -1.728320 0.192925 0.323769
v -1.718603 0.024804 0.311333
v -2.101600 -0.606948 -0.138516
v -2.031778 -0.769903 -0.078851
v -2.163086 -0.156807 -0.176863
v -2.183561 -0.374634 -0.198836
v -1.953174 -0.651030 0.138384
v -1.776532 0.143631 0.238911
v -1.608158 0.154402 -0.006749
v -1.768568 0.018026 0.222503
v -1.651145 0.176442 0.368015
v -1.728320 0.192925 0.323769
v -0.509293 -0.499934 0.178929
v -0.318704 -0.262644 0.180742
v -0.648105 -0.588654 0.166795
v -0.806148 -0.617285 0.173513
v -1.170246 -0.712430 0.185285
v -1.377646 -0.630862 0.286512
v -1.515470 -0.507248 0.218655
v -1.776532 0.143631 0.238911
v -0.405398 0.259541 0.223318
v -0.285895 0.310220 0.190675
v -2.163086 -0.156807 -0.176863
v -2.095085 -0.072984 -0.033112
v -1.953174 -0.651030 0.138384
v -2.003603 -0.525324 0.107804
v -2.058969 -0.110820 0.050010
v -2.073078 -0.331750 0.068720
v -2.041052 -0.639506 0.194904
v -2.107858 -0.528370 0.173534
v -2.157145 -0.143735 0.119466
v -2.199592 -0.316072 0.141509
v -2.058969 -0.110820 0.050010
v -0.447034 0.154016 0.249273
v -0.436980 0.010027 0.270731
v -0.343691 -0.090319 0.269156
v -0.271928 -0.136309 0.260672
v -0.164469 -0.151048 0.240991
v -0.004050 -0.044777 0.189421
v 0.066744 0.118730 0.149394
v 0.010875 0.278726 0.134343
v -0.115281 0.323304 0.153442
v -0.271928 -0.136309 0.260672
v -0.447034 0.154016 0.249273
v -0.191380 0.086737 0.207603
v -0.405398 0.259541 0.223318
v -0.436980 0.010027 0.270731
v -0.343691 -0.090319 0.269156
v -0.271928 -0.136309 0.260672
v -0.004050 -0.044777 0.189421
v -0.164469 -0.151048 0.240991
v 0.010875 0.278726 0.134343
v 0.066744 0.118730 0.149394
v -0.115281 0.323304 0.153442
v -0.285895 0.310220 0.190675
v -1.261114 -0.090723 -0.282497
v -1.284059 0.064037 -0.056608
v -1.233453 -0.278615 -0.359909
v -1.191241 -0.546964 -0.308251
v -1.174473 -0.681121 -0.205478
v -1.161532 -0.770911 0.052313
v -1.170246 -0.712430 0.185285
v -1.184479 -0.616154 0.278192
v -1.170246 -0.712430 0.185285
v -1.229871 -0.307500 0.339852
v -1.271119 -0.025755 0.201173
v -1.275656 0.043544 0.097578
v -0.850871 -0.272108 -0.338874
v -0.824794 -0.382358 -0.316930
v -0.872732 -0.382754 -0.413664
v -0.885770 -0.327629 -0.424636
v -0.960983 -0.240547 -0.352883
v -0.935669 -0.314360 -0.450390
v -1.045018 -0.319238 -0.344948
v -0.972529 -0.356218 -0.465172
v -1.018940 -0.429488 -0.323004
v -0.959490 -0.411342 -0.454200
v -0.909591 -0.424611 -0.428446
v -0.908828 -0.461049 -0.308995
v -0.872732 -0.382754 -0.413664
v -0.824794 -0.382358 -0.316930
v -0.871634 -0.377958 -0.542590
v -1.147935 -0.335041 -0.336868
v -1.124111 -0.446044 -0.316187
v -1.178055 -0.445052 -0.409700
v -1.189967 -0.389551 -0.420041
v -1.257631 -0.299934 -0.344021
v -1.240938 -0.374711 -0.442645
v -1.343503 -0.375827 -0.330492
v -1.279996 -0.415370 -0.454908
v -1.319679 -0.486830 -0.309811
v -1.268084 -0.470871 -0.444567
v -1.217114 -0.485712 -0.421963
v -1.209983 -0.521939 -0.302659
v -1.178055 -0.445052 -0.409700
v -1.124111 -0.446044 -0.316187
v -1.184955 -0.440530 -0.538455
v -1.435886 -0.365326 -0.347121
v -1.415163 -0.476782 -0.325556
v -1.480234 -0.475677 -0.411696
v -1.490595 -0.419950 -0.422478
v -1.543756 -0.324647 -0.341979
v -1.543194 -0.403086 -0.439158
v -1.630900 -0.395423 -0.315272
v -1.585432 -0.441951 -0.445055
v -1.610177 -0.506878 -0.293707
v -1.575070 -0.497679 -0.434273
v -1.522471 -0.514542 -0.417593
v -1.502308 -0.547558 -0.298848
v -1.480234 -0.475677 -0.411696
v -1.415163 -0.476782 -0.325556
v -1.502906 -0.474597 -0.538703
vn -0.2342 -0.8523 0.4676
vn 0.0322 -0.8059 -0.5911
vn 0.1461 -0.8306 -0.5373
vn 0.0572 -0.9984 -0.0033
vn 0.1325 -0.4875 0.8630
vn -0.0809 -0.2251 0.9710
vn -0.3637 -0.5066 0.7817
vn 0.1517 -0.8074 0.5702
vn 0.1878 0.0994 0.9772
vn 0.1175 0.1727 0.9779
vn 0.3668 0.6045 0.7071
vn 0.4559 0.6810 0.5731
vn 0.2757 0.9219 0.2723
vn 0.1685 0.9847 -0.0434
vn 0.4559 0.6809 0.5732
vn 0.3668 0.6046 0.7071
vn -0.0045 0.6086 -0.7935
vn -0.1491 0.5283 -0.8359
vn -0.2640 0.9193 -0.2920
vn 0.1086 0.9528 -0.2835
vn -0.1143 -0.0276 -0.9931
vn -0.1491 0.5282 -0.8359
vn -0.0046 0.6085 -0.7936
vn 0.0090 0.1034 -0.9946
vn 0.0321 -0.8059 -0.5911
vn -0.0911 -0.3163 -0.9443
vn 0.1019 -0.3943 -0.9133
vn -0.5245 -0.2167 0.8234
vn -0.7728 -0.4334 0.4636
vn -0.2259 -0.3222 0.9193
vn -0.7961 -0.5664 0.2132
vn -0.8103 -0.2833 0.5130
vn -0.3846 -0.0200 0.9229
vn -0.8424 0.0025 0.5389
vn -0.5994 0.6817 0.4195
vn -0.8561 0.5072 -0.0990
vn -0.9933 -0.1065 -0.0447
vn -0.7290 -0.2255 0.6463
vn -0.8961 -0.4361 0.0832
vn -0.8017 -0.5726 0.1716
vn -0.3818 -0.6059 0.6980
vn -0.4846 0.7995 0.3550
vn -0.3763 0.5377 0.7545
vn -0.4474 0.3760 0.8114
vn -0.5705 0.7733 0.2766
vn -0.0234 0.0977 0.9949
vn -0.0313 0.0335 0.9989
vn 0.2845 -0.3319 0.8994
vn 0.1678 -0.3044 0.9377
vn 0.4769 -0.5924 0.6494
vn 0.3848 -0.5347 0.7523
vn 0.6929 -0.6787 0.2435
vn 0.6347 -0.7599 0.1403
vn 0.6177 -0.6064 -0.5008
vn 0.7686 -0.5617 -0.3062
vn 0.4337 -0.2736 -0.8585
vn 0.6909 -0.2121 -0.6911
vn -0.1437 0.6243 -0.7678
vn 0.1105 0.6893 -0.7160
vn 0.4706 0.2396 -0.8492
vn 0.1749 0.1846 -0.9671
vn -0.3972 0.8839 -0.2468
vn -0.2471 0.9022 -0.3534
vn 0.0257 -0.9323 0.3608
vn -0.2360 -0.7980 -0.5545
vn 0.1150 -0.2756 0.9544
vn -0.6076 -0.3630 0.7064
vn -0.6743 -0.1612 0.7207
vn 0.0541 0.2118 0.9758
vn -0.3381 0.9393 -0.0577
vn -0.4374 0.4536 -0.7765
vn -0.4374 0.4535 -0.7765
vn -0.4421 -0.1247 -0.8883
vn -0.2360 -0.7980 -0.5546
vn -0.4095 -0.3850 -0.8271
vn -0.0523 0.6542 0.7545
vn 0.0770 0.1618 0.9838
vn -0.7193 -0.1066 0.6865
vn -0.9416 0.1366 0.3077
vn -0.2156 0.8900 0.4016
vn 0.1214 0.9150 0.3848
vn 0.1116 0.6641 0.7393
vn -0.0965 0.5920 0.8001
vn 0.1422 0.1295 0.9813
vn 0.0937 0.0754 0.9927
vn 0.1886 -0.4546 0.8705
vn 0.1917 -0.4538 0.8702
vn 0.2071 -0.7957 0.5692
vn 0.2757 -0.7529 0.5976
vn 0.2336 -0.9720 0.0238
vn 0.2487 -0.7445 -0.6196
vn 0.4024 -0.7196 -0.5659
vn 0.3688 -0.9269 0.0689
vn 0.2307 -0.3432 -0.9105
vn 0.3305 -0.3133 -0.8903
vn 0.1738 0.1745 -0.9692
vn 0.1236 0.6934 -0.7099
vn -0.0185 0.6510 -0.7588
vn 0.1974 0.1617 -0.9669
vn 0.1163 0.9799 -0.1619
vn -0.1695 0.9610 -0.2187
vn -0.6076 -0.3631 0.7064
vn 0.1150 -0.2758 0.9543
vn -0.5318 -0.8193 -0.2145
vn 0.0166 -0.9300 0.3672
vn -0.9416 0.1365 0.3077
vn -0.0012 -0.2835 0.9590
vn 0.0624 0.4985 0.8646
vn -0.5565 0.7136 0.4256
vn -0.5623 -0.4386 0.7010
vn -0.7493 -0.4460 -0.4895
vn -0.5319 -0.8192 -0.2145
vn -0.6922 0.4894 -0.5305
vn -0.7705 -0.1524 -0.6189
vn 0.4065 -0.1701 0.8977
vn -0.8956 0.4369 -0.0838
vn -0.2641 0.9192 -0.2921
vn -0.9347 -0.3531 -0.0400
vn 0.0622 0.4985 0.8647
vn -0.5566 0.7134 0.4256
vn 0.4770 -0.5925 0.6492
vn 0.3849 -0.5348 0.7522
vn 0.2757 -0.7530 0.5975
vn 0.2071 -0.7958 0.5691
vn 0.1517 -0.8075 0.5700
vn -0.3638 -0.5066 0.7817
vn -0.7728 -0.4336 0.4635
vn -0.8956 0.4368 -0.0838
vn -0.6605 0.7360 -0.1484
vn -0.2714 0.8589 -0.4343
vn -0.6921 0.4894 -0.5305
vn -0.3116 0.9476 0.0709
vn 0.4083 0.3504 0.8429
vn 0.2454 0.5862 0.7721
vn 0.4274 0.1790 0.8862
vn 0.2307 -0.1593 0.9599
vn -0.0277 0.1705 0.9850
vn 0.0688 0.4647 0.8828
vn -0.1738 0.1018 0.9795
vn -0.8236 0.3514 0.4452
vn -0.4120 0.0853 0.9072
vn -0.0925 -0.2896 0.9527
vn 0.0102 -0.4860 0.8739
vn 0.5071 -0.7695 0.3881
vn 0.7826 -0.5867 -0.2080
vn 0.7777 -0.0557 -0.6262
vn 0.4590 0.4752 -0.7506
vn 0.0256 0.7916 -0.6105
vn 0.0102 -0.4861 0.8739
vn 0.1994 0.1586 0.9670
vn 0.2005 0.1578 0.9669
vn 0.1987 0.1581 0.9672
vn 0.1978 0.1623 0.9667
vn 0.2040 0.1602 0.9658
vn 0.2058 0.1559 0.9661
vn 0.2022 0.1544 0.9671
vn 0.2013 0.1588 0.9666
vn 0.2002 0.1586 0.9668
vn 0.1988 0.1561 0.9675
vn 0.2005 0.1569 0.9670
vn 0.1983 0.1572 0.9675
vn 0.1461 -0.8306 -0.5374
vn 0.0573 -0.9984 -0.0033
vn 0.1518 -0.8075 0.5700
vn 0.1327 -0.4875 0.8630
vn 0.1517 -0.8074 0.5701
vn 0.1876 0.0994 0.9772
vn 0.3667 0.6046 0.7071
vn 0.6559 0.4834 -0.5798
vn 0.8474 -0.3271 -0.4183
vn 0.9280 -0.2956 -0.2268
vn 0.7253 0.5620 -0.3975
vn -0.1486 0.7485 -0.6463
vn -0.0909 0.8058 -0.5852
vn -0.8112 0.1647 -0.5612
vn -0.7192 0.1724 -0.6731
vn -0.6094 -0.6898 -0.3909
vn -0.5137 -0.6977 -0.4993
vn 0.3169 -0.9172 -0.2416
vn 0.2447 -0.9170 -0.3151
vn 0.9280 -0.2957 -0.2268
vn 0.4424 -0.0735 -0.8938
vn 0.6329 0.4610 -0.6220
vn 0.8085 -0.3544 -0.4698
vn 0.9016 -0.3260 -0.2842
vn 0.7166 0.5374 -0.4446
vn -0.1654 0.7515 -0.6387
vn -0.1006 0.8074 -0.5813
vn -0.8397 0.1900 -0.5088
vn -0.7545 0.1949 -0.6267
vn -0.6549 -0.6703 -0.3489
vn -0.5666 -0.6815 -0.4632
vn 0.2714 -0.9272 -0.2580
vn 0.1940 -0.9252 -0.3260
vn 0.3817 -0.0890 -0.9200
vn 0.5726 0.4077 -0.7113
vn 0.7251 -0.4108 -0.5527
vn 0.8425 -0.3811 -0.3807
vn 0.6811 0.4851 -0.5484
vn -0.2065 0.7400 -0.6401
vn -0.1328 0.7942 -0.5930
vn -0.8861 0.2191 -0.4085
vn -0.8164 0.2163 -0.5355
vn -0.7255 -0.6445 -0.2414
vn -0.6528 -0.6637 -0.3652
vn 0.1911 -0.9476 -0.2560
vn 0.1065 -0.9433 -0.3144
vn 0.2593 -0.1368 -0.9561
vt 0.782704 0.258166
vt 0.770350 0.255673
vt 0.778473 0.234950
vt 0.784230 0.241449
vt 0.800045 0.273232
vt 0.796595 0.278786
vt 0.793900 0.273710
vt 0.799722 0.266755
vt 0.801245 0.288040
vt 0.799330 0.290238
vt 0.803614 0.301657
vt 0.801158 0.309544
vt 0.791523 0.347852
vt 0.790164 0.335327
vt 0.793767 0.338802
vt 0.794761 0.347829
vt 0.782214 0.358998
vt 0.772995 0.338292
vt 0.784207 0.332796
vt 0.787629 0.350381
vt 0.756675 0.301596
vt 0.756865 0.312355
vt 0.742958 0.311493
vt 0.742732 0.302020
vt 0.755498 0.279493
vt 0.755898 0.287875
vt 0.742221 0.289366
vt 0.741968 0.281368
vt 0.793878 0.286176
vt 0.790607 0.282643
vt 0.794401 0.306785
vt 0.791373 0.306987
vt 0.791024 0.295880
vt 0.796138 0.293989
vt 0.773982 0.302563
vt 0.775007 0.311075
vt 0.773502 0.311327
vt 0.772234 0.302861
vt 0.774107 0.289847
vt 0.772487 0.291265
vt 0.773247 0.284635
vt 0.774594 0.283905
vt 0.283500 0.536617
vt 0.283285 0.500563
vt 0.306984 0.500563
vt 0.305683 0.536617
vt 0.278886 0.457229
vt 0.307448 0.457229
vt 0.281705 0.405219
vt 0.311090 0.405219
vt 0.284998 0.376039
vt 0.314351 0.376039
vt 0.307478 0.815040
vt 0.285032 0.815040
vt 0.292053 0.750584
vt 0.317794 0.750584
vt 0.292039 0.714212
vt 0.318059 0.714212
vt 0.286935 0.626655
vt 0.307076 0.626655
vt 0.318353 0.663493
vt 0.291908 0.663493
vt 0.284558 0.581556
vt 0.306565 0.581556
vt 0.775092 0.265300
vt 0.768936 0.264866
vt 0.782423 0.281506
vt 0.787435 0.281550
vt 0.787153 0.288931
vt 0.782154 0.289188
vt 0.777627 0.328885
vt 0.771318 0.331842
vt 0.760860 0.313054
vt 0.761512 0.301520
vt 0.760740 0.279882
vt 0.760830 0.287950
vt 0.782970 0.311877
vt 0.781871 0.298187
vt 0.786986 0.299676
vt 0.787634 0.307839
vt 0.270058 0.536617
vt 0.257118 0.536617
vt 0.256323 0.500563
vt 0.268925 0.500563
vt 0.251175 0.457229
vt 0.261579 0.457229
vt 0.252801 0.405219
vt 0.263899 0.405219
vt 0.255122 0.376039
vt 0.267210 0.376039
vt 0.258080 0.815040
vt 0.261602 0.750584
vt 0.276455 0.750584
vt 0.271431 0.815040
vt 0.261473 0.714212
vt 0.276272 0.714212
vt 0.261200 0.663494
vt 0.260393 0.626655
vt 0.274731 0.626655
vt 0.275883 0.663493
vt 0.257934 0.581556
vt 0.271223 0.581556
vt 0.782430 0.269534
vt 0.777871 0.273478
vt 0.769558 0.275215
vt 0.773432 0.272325
vt 0.778911 0.321924
vt 0.783917 0.322295
vt 0.794804 0.313374
vt 0.796254 0.318476
vt 0.794069 0.320783
vt 0.793214 0.312735
vt 0.766218 0.289399
vt 0.766631 0.280358
vt 0.767008 0.313866
vt 0.766355 0.301425
vt 0.776659 0.279852
vt 0.791407 0.319367
vt 0.785525 0.318117
vt 0.790797 0.312967
vt 0.793270 0.325695
vt 0.791268 0.323346
vt 0.284978 0.874818
vt 0.308045 0.874818
vt 0.271000 0.874818
vt 0.257778 0.874818
vt 0.787095 0.245561
vt 0.786737 0.257842
vt 0.785434 0.267985
vt 0.788428 0.323635
vt 0.351671 0.536617
vt 0.351671 0.581556
vt 0.770653 0.321493
vt 0.775515 0.318752
vt 0.778869 0.282999
vt 0.778843 0.289478
vt 0.780117 0.311630
vt 0.778804 0.299768
vt 0.776055 0.283979
vt 0.775802 0.289607
vt 0.776852 0.310582
vt 0.775566 0.301669
vt 0.777921 0.316367
vt 0.351671 0.500563
vt 0.351671 0.457229
vt 0.351671 0.405219
vt 0.351671 0.376039
vt 0.351671 0.815040
vt 0.351671 0.750584
vt 0.351671 0.714212
vt 0.351671 0.663493
vt 0.351671 0.626655
vt 0.351671 0.874818
vt 0.945484 0.234119
vt 0.914383 0.296697
vt 0.933672 0.234119
vt 0.945484 0.303274
vt 0.945484 0.358942
vt 0.930074 0.358942
vt 0.883052 0.358942
vt 0.917809 0.358942
vt 0.883052 0.234119
vt 0.883052 0.302224
vt 0.898847 0.234119
vt 0.919619 0.234119
vt 0.226798 0.626655
vt 0.226798 0.581556
vt 0.226798 0.663494
vt 0.226798 0.714212
vt 0.226798 0.750584
vt 0.226798 0.815040
vt 0.226798 0.874818
vt 0.226798 0.405219
vt 0.226798 0.376039
vt 0.226798 0.457229
vt 0.226798 0.500563
vt 0.226798 0.536617
vt 0.436610 0.063511
vt 0.413556 0.063511
vt 0.448137 0.132673
vt 0.459664 0.132673
vt 0.459664 0.063511
vt 0.471191 0.132673
vt 0.482718 0.063511
vt 0.482718 0.132673
vt 0.505772 0.063511
vt 0.494245 0.132673
vt 0.505772 0.132673
vt 0.528826 0.063511
vt 0.517299 0.132673
vt 0.551880 0.063511
vt 0.482718 0.201834
s 1
f 1/1/1 2/2/2 3/3/3
f 3/3/3 4/4/4 1/1/1
f 5/5/5 6/6/6 7/7/7
f 7/7/7 8/8/8 5/5/5
f 6/6/6 5/5/5 9/9/9
f 9/9/9 10/10/10 6/6/6
f 11/11/11 12/12/12 10/10/10
f 10/10/10 9/9/9 11/11/11
f 13/13/13 14/14/14 15/15/15
f 15/15/15 16/16/16 13/13/13
f 17/17/17 18/18/18 19/19/19
f 19/19/19 20/20/20 17/17/17
f 21/21/21 22/22/22 23/23/23
f 23/23/23 24/24/24 21/21/21
f 25/25/25 26/26/26 27/27/27
f 27/27/27 28/28/3 25/25/25
f 6/6/6 29/29/28 30/30/29
f 30/30/29 7/7/7 6/6/6
f 31/31/30 32/32/31 33/33/32
f 33/33/32 34/34/33 31/31/30
f 35/35/34 36/36/35 37/37/36
f 37/37/36 38/38/37 35/35/34
f 39/39/38 40/40/39 41/41/40
f 41/41/40 42/42/41 39/39/38
f 43/43/42 44/44/43 45/45/44
f 45/45/44 46/46/45 43/43/42
f 44/44/43 47/47/46 48/48/47
f 48/48/47 45/45/44 44/44/43
f 47/47/46 49/49/48 50/50/49
f 50/50/49 48/48/47 47/47/46
f 49/49/48 51/51/50 52/52/51
f 52/52/51 50/50/49 49/49/48
f 53/53/52 54/54/53 55/55/54
f 55/55/54 56/56/55 53/53/52
f 56/56/55 55/55/54 57/57/56
f 57/57/56 58/58/57 56/56/55
f 59/59/58 60/60/59 61/61/60
f 61/61/60 62/62/61 59/59/58
f 59/59/58 63/63/62 64/64/63
f 64/64/63 60/60/59 59/59/58
f 2/2/2 1/1/1 65/65/64
f 65/65/64 66/66/65 2/2/2
f 67/67/66 68/68/67 69/69/68
f 69/69/68 70/70/69 67/67/66
f 71/71/70 19/19/19 18/18/18
f 18/18/18 72/72/71 71/71/70
f 73/73/72 22/22/22 21/21/21
f 21/21/21 74/74/73 73/73/72
f 26/26/26 25/25/25 75/75/74
f 75/75/74 76/76/75 26/26/26
f 77/77/76 78/78/77 79/79/78
f 79/79/78 80/80/79 77/77/76
f 81/81/80 82/82/81 83/83/82
f 83/83/82 84/84/83 81/81/80
f 84/84/83 83/83/82 85/85/84
f 85/85/84 86/86/85 84/84/83
f 87/87/86 88/88/87 86/86/85
f 86/86/85 85/85/84 87/87/86
f 88/88/87 87/87/86 89/89/88
f 89/89/88 90/90/89 88/88/87
f 91/91/90 92/92/91 93/93/92
f 93/93/92 94/94/93 91/91/90
f 92/92/91 95/95/94 96/96/95
f 96/96/95 93/93/92 92/92/91
f 97/97/96 98/98/97 99/99/98
f 99/99/98 100/100/99 97/97/96
f 98/98/97 101/101/100 102/102/101
f 102/102/101 99/99/98 98/98/97
f 103/103/102 104/104/103 65/65/64
f 65/65/64 1/1/1 103/103/102
f 105/105/104 106/106/105 42/42/41
f 42/42/41 41/41/40 105/105/104
f 71/71/70 107/107/76 108/108/106
f 108/108/106 19/19/19 71/71/70
f 29/29/28 34/34/33 33/33/32
f 33/33/32 30/30/29 29/29/28
f 34/34/33 10/10/10 12/12/12
f 12/12/12 31/31/30 34/34/33
f 29/29/28 6/6/6 10/10/10
f 10/10/10 34/34/33 29/29/28
f 109/109/107 110/110/108 111/111/109
f 111/111/109 112/112/110 109/109/107
f 113/113/111 114/114/112 41/41/40
f 41/41/40 40/40/39 113/113/111
f 38/38/37 37/37/36 115/115/113
f 115/115/113 116/116/114 38/38/37
f 104/104/103 117/117/115 106/106/105
f 106/106/105 65/65/64 104/104/103
f 31/31/30 12/12/12 110/110/108
f 110/110/108 109/109/107 31/31/30
f 112/112/110 32/32/31 31/31/30
f 31/31/30 109/109/107 112/112/110
f 118/118/116 119/119/117 80/80/79
f 80/80/79 120/120/118 118/118/116
f 121/121/119 15/15/15 14/14/14
f 14/14/14 122/122/120 121/121/119
f 123/123/121 54/54/53 53/53/52
f 53/53/52 124/124/122 123/123/121
f 125/125/123 126/126/124 91/91/90
f 91/91/90 94/94/93 125/125/123
f 127/127/125 128/128/126 1/1/1
f 1/1/1 4/4/4 127/127/125
f 128/128/126 129/129/127 103/103/102
f 103/103/102 1/1/1 128/128/126
f 69/69/68 68/68/67 30/30/29
f 30/30/29 33/33/32 69/69/68
f 32/32/31 80/80/79 79/79/78
f 79/79/78 33/33/32 32/32/31
f 32/32/31 112/112/110 120/120/118
f 120/120/118 80/80/79 32/32/31
f 112/112/110 111/111/109 118/118/116
f 118/118/116 120/120/118 112/112/110
f 14/14/14 19/19/19 130/130/128
f 130/130/128 122/122/120 14/14/14
f 14/14/14 13/13/13 20/20/20
f 20/20/20 19/19/19 14/14/14
f 82/82/81 81/81/80 102/102/101
f 102/102/101 101/101/100 82/82/81
f 63/63/62 43/43/42 46/46/45
f 46/46/45 64/64/63 63/63/62
f 64/64/63 46/46/45 131/131/129
f 131/131/129 132/132/130 64/64/63
f 71/71/70 72/72/71 133/133/131
f 133/133/131 134/134/132 71/71/70
f 115/115/113 73/73/72 74/74/73
f 74/74/73 116/116/114 115/115/113
f 76/76/75 75/75/74 114/114/112
f 114/114/112 113/113/111 76/76/75
f 66/66/65 65/65/64 106/106/105
f 106/106/105 105/105/104 66/66/65
f 135/135/115 67/67/66 70/70/69
f 70/70/69 136/136/133 135/135/115
f 78/78/77 77/77/76 137/137/134
f 137/137/134 138/138/135 78/78/77
f 139/139/136 135/135/115 136/136/133
f 136/136/133 140/140/137 139/139/136
f 138/138/135 137/137/134 141/141/138
f 141/141/138 142/142/139 138/138/135
f 134/134/132 133/133/131 37/37/36
f 37/37/36 36/36/35 134/134/132
f 107/107/76 71/71/70 134/134/132
f 134/134/132 143/143/134 107/107/76
f 143/143/134 134/134/132 36/36/35
f 36/36/35 141/141/138 143/143/134
f 36/36/35 35/35/34 142/142/139
f 142/142/139 141/141/138 36/36/35
f 140/140/137 39/39/38 42/42/41
f 42/42/41 139/139/136 140/140/137
f 42/42/41 106/106/105 117/117/115
f 117/117/115 139/139/136 42/42/41
f 144/144/140 131/131/129 46/46/45
f 46/46/45 45/45/44 144/144/140
f 145/145/141 144/144/140 45/45/44
f 45/45/44 48/48/47 145/145/141
f 146/146/142 145/145/141 48/48/47
f 48/48/47 50/50/49 146/146/142
f 147/147/143 146/146/142 50/50/49
f 50/50/49 52/52/51 147/147/143
f 148/148/144 53/53/52 56/56/55
f 56/56/55 149/149/145 148/148/144
f 149/149/145 56/56/55 58/58/57
f 58/58/57 150/150/146 149/149/145
f 151/151/147 61/61/60 60/60/59
f 60/60/59 152/152/148 151/151/147
f 152/152/148 60/60/59 64/64/63
f 64/64/63 132/132/130 152/152/148
f 148/148/144 153/153/149 124/124/122
f 124/124/122 53/53/52 148/148/144
f 150/150/146 58/58/57 61/61/60
f 61/61/60 151/151/147 150/150/146
f 58/58/57 57/57/56 62/62/61
f 62/62/61 61/61/60 58/58/57
f 95/95/94 97/97/96 100/100/99
f 100/100/99 96/96/95 95/95/94
f 26/26/26 21/21/21 24/24/24
f 24/24/24 27/27/27 26/26/26
f 21/21/21 26/26/26 76/76/75
f 76/76/75 74/74/73 21/21/21
f 74/74/73 76/76/75 113/113/111
f 113/113/111 116/116/114 74/74/73
f 116/116/114 113/113/111 40/40/39
f 40/40/39 38/38/37 116/116/114
f 40/40/39 39/39/38 35/35/34
f 35/35/34 38/38/37 40/40/39
f 39/39/38 140/140/137 142/142/139
f 142/142/139 35/35/34 39/39/38
f 140/140/137 136/136/133 138/138/135
f 138/138/135 142/142/139 140/140/137
f 136/136/133 70/70/69 78/78/77
f 78/78/77 138/138/135 136/136/133
f 70/70/69 69/69/68 79/79/78
f 79/79/78 78/78/77 70/70/69
f 33/33/32 79/79/78 69/69/68
f 154/154/150 155/155/151 156/156/152
f 157/157/153 155/155/151 154/154/150
f 158/158/154 155/155/151 157/157/153
f 159/159/155 155/155/151 158/158/154
f 160/160/156 155/155/151 161/161/157
f 162/162/158 155/155/151 163/163/159
f 164/164/160 155/155/151 162/162/158
f 165/165/161 155/155/151 164/164/160
f 161/161/157 155/155/151 159/159/155
f 156/156/152 155/155/151 165/165/161
f 163/163/159 155/155/151 160/160/156
f 55/55/54 93/93/92 96/96/95
f 96/96/95 57/57/56 55/55/54
f 54/54/53 94/94/93 93/93/92
f 93/93/92 55/55/54 54/54/53
f 123/123/121 125/125/123 94/94/93
f 94/94/93 54/54/53 123/123/121
f 88/88/87 90/90/89 51/51/50
f 51/51/50 49/49/48 88/88/87
f 49/49/48 47/47/46 86/86/85
f 86/86/85 88/88/87 49/49/48
f 84/84/83 86/86/85 47/47/46
f 47/47/46 44/44/43 84/84/83
f 81/81/80 84/84/83 44/44/43
f 44/44/43 43/43/42 81/81/80
f 43/43/42 63/63/62 102/102/101
f 102/102/101 81/81/80 43/43/42
f 59/59/58 99/99/98 102/102/101
f 102/102/101 63/63/62 59/59/58
f 99/99/98 59/59/58 62/62/61
f 62/62/61 100/100/99 99/99/98
f 57/57/56 96/96/95 100/100/99
f 100/100/99 62/62/61 57/57/56
f 166/166/17 167/167/20 101/101/100
f 101/101/100 98/98/97 166/166/17
f 168/168/24 166/166/17 98/98/97
f 98/98/97 97/97/96 168/168/24
f 95/95/94 169/169/27 168/168/24
f 168/168/24 97/97/96 95/95/94
f 92/92/91 170/170/162 169/169/27
f 169/169/27 95/95/94 92/92/91
f 91/91/90 171/171/163 170/170/162
f 170/170/162 92/92/91 91/91/90
f 126/126/124 172/172/164 171/171/163
f 171/171/163 91/91/90 126/126/124
f 87/87/86 173/173/165 174/174/166
f 174/174/166 89/89/88 87/87/86
f 173/173/165 87/87/86 85/85/84
f 85/85/84 175/175/167 173/173/165
f 83/83/82 176/176/168 175/175/167
f 175/175/167 85/85/84 83/83/82
f 177/177/13 176/176/168 83/83/82
f 83/83/82 82/82/81 177/177/13
f 82/82/81 101/101/100 167/167/20
f 167/167/20 177/177/13 82/82/81
f 178/178/169 179/179/170 180/180/171
f 180/180/171 181/181/172 178/178/169
f 182/182/173 178/178/169 181/181/172
f 181/181/172 183/183/174 182/182/173
f 184/184/175 182/182/173 183/183/174
f 183/183/174 185/185/176 184/184/175
f 186/186/177 184/184/175 185/185/176
f 185/185/176 187/187/178 186/186/177
f 188/188/179 189/189/180 186/186/177
f 186/186/177 187/187/178 188/188/179
f 190/190/181 191/191/170 189/189/180
f 189/189/180 188/188/179 190/190/181
f 180/180/171 192/192/182 181/181/172
f 181/181/172 192/192/182 183/183/174
f 183/183/174 192/192/182 185/185/176
f 185/185/176 192/192/182 187/187/178
f 187/187/178 192/192/182 188/188/179
f 188/188/179 192/192/182 190/190/181
f 193/178/183 194/179/184 195/180/185
f 195/180/185 196/181/186 193/178/183
f 197/182/187 193/178/183 196/181/186
f 196/181/186 198/183/188 197/182/187
f 199/184/189 197/182/187 198/183/188
f 198/183/188 200/185/190 199/184/189
f 201/186/191 199/184/189 200/185/190
f 200/185/190 202/187/192 201/186/191
f 203/188/193 204/189/194 201/186/191
f 201/186/191 202/187/192 203/188/193
f 205/190/185 206/191/184 204/189/194
f 204/189/194 203/188/193 205/190/185
f 195/180/185 207/192/195 196/181/186
f 196/181/186 207/192/195 198/183/188
f 198/183/188 207/192/195 200/185/190
f 200/185/190 207/192/195 202/187/192
f 202/187/192 207/192/195 203/188/193
f 203/188/193 207/192/195 205/190/185
f 208/178/196 209/179/197 210/180/198
f 210/180/198 211/181/199 208/178/196
f 212/182/200 208/178/196 211/181/199
f 211/181/199 213/183/201 212/182/200
f 214/184/202 212/182/200 213/183/201
f 213/183/201 215/185/203 214/184/202
f 216/186/204 214/184/202 215/185/203
f 215/185/203 217/187/205 216/186/204
f 218/188/206 219/189/207 216/186/204
f 216/186/204 217/187/205 218/188/206
f 220/190/198 221/191/197 219/189/207
f 219/189/207 218/188/206 220/190/198
f 210/180/198 222/192/208 211/181/199
f 211/181/199 222/192/208 213/183/201
f 213/183/201 222/192/208 215/185/203
f 215/185/203 222/192/208 217/187/205
f 217/187/205 222/192/208 218/188/206
f 218/188/206 222/192/208 220/190/198
